<?xml version="1.0" ?><svg height="48" id="svg6485" version="1.1" viewBox="0 0 48 48" width="48" xmlns="http://www.w3.org/2000/svg" xmlns:cc="http://creativecommons.org/ns#" xmlns:dc="http://purl.org/dc/elements/1.1/" xmlns:inkscape="http://www.inkscape.org/namespaces/inkscape" xmlns:rdf="http://www.w3.org/1999/02/22-rdf-syntax-ns#" xmlns:sodipodi="http://sodipodi.sourceforge.net/DTD/sodipodi-0.dtd" xmlns:svg="http://www.w3.org/2000/svg"><defs id="defs6487"><clipPath clipPathUnits="userSpaceOnUse" id="clipPath18427"><rect height="121.40158" id="rect18429" style="opacity:1;fill:#e9e9e9;fill-opacity:0.8041237;stroke:none;stroke-width:1;stroke-linecap:round;stroke-linejoin:round;stroke-miterlimit:4;stroke-dasharray:none;stroke-dashoffset:0;stroke-opacity:1;paint-order:fill markers stroke" width="88.351334" x="-269.08893" y="204.7206"/></clipPath><clipPath clipPathUnits="userSpaceOnUse" id="clipPath18443"><path d="m -222.26758,211.43642 a 31.996582,31.996582 0 0 0 -31.99804,31.99609 31.996582,31.996582 0 0 0 10.67773,23.81446 c -3.77662,1.10404 -6.52344,4.57592 -6.52344,8.71875 0,5.03653 4.05527,9.09179 9.0918,9.09179 l 7.63086,0 0,35.49219 c 0,1.71385 1.3799,3.09375 3.09375,3.09375 1.71385,0 3.0918,-1.3799 3.0918,-3.09375 l 0,-35.49219 1.59179,0 0,37.99219 c 0,1.71385 1.3799,3.09375 3.09375,3.09375 1.71385,0 3.09375,-1.3799 3.09375,-3.09375 l 0,-37.99219 1.625,0 0,35.49219 c 0,1.71385 1.3799,3.09375 3.09375,3.09375 1.71385,0 3.09375,-1.3799 3.09375,-3.09375 l 0,-35.49219 6.67969,0 c 5.03653,0 9.0918,-4.05526 9.0918,-9.09179 0,-3.7665 -2.26947,-6.98211 -5.51954,-8.36524 a 31.996582,31.996582 0 0 0 11.0879,-24.16797 31.996582,31.996582 0 0 0 -31.9961,-31.99609 z" id="path18445" style="opacity:1;fill:#e9e9e9;fill-opacity:0.8041237;stroke:none;stroke-width:1;stroke-linecap:round;stroke-linejoin:round;stroke-miterlimit:4;stroke-dasharray:none;stroke-dashoffset:0;stroke-opacity:1;paint-order:fill markers stroke"/></clipPath><clipPath clipPathUnits="userSpaceOnUse" id="clipPath5172"><rect height="32" id="rect5174" rx="0" ry="0" style="color:#000000;clip-rule:nonzero;display:inline;overflow:visible;visibility:visible;opacity:1;isolation:auto;mix-blend-mode:normal;color-interpolation:sRGB;color-interpolation-filters:linearRGB;solid-color:#000000;solid-opacity:1;fill:#000000;fill-opacity:0.51572331;fill-rule:nonzero;stroke:none;stroke-width:1;stroke-linecap:round;stroke-linejoin:round;stroke-miterlimit:4;stroke-dasharray:none;stroke-dashoffset:0;stroke-opacity:1;color-rendering:auto;image-rendering:auto;shape-rendering:auto;text-rendering:auto;enable-background:accumulate" width="32" x="0" y="1020.3622"/></clipPath><clipPath clipPathUnits="userSpaceOnUse" id="clipPath5284"><rect height="48" id="rect5286" style="color:#000000;clip-rule:nonzero;display:inline;overflow:visible;visibility:visible;opacity:1;isolation:auto;mix-blend-mode:normal;color-interpolation:sRGB;color-interpolation-filters:linearRGB;solid-color:#000000;solid-opacity:1;fill:#000000;fill-opacity:0.48427675;fill-rule:nonzero;stroke:none;stroke-width:0.40000001;stroke-linecap:round;stroke-linejoin:round;stroke-miterlimit:4;stroke-dasharray:none;stroke-dashoffset:0;stroke-opacity:1;color-rendering:auto;image-rendering:auto;shape-rendering:auto;text-rendering:auto;enable-background:accumulate" width="48" x="0" y="1004.3622"/></clipPath></defs><g id="layer1" style="display:inline" transform="translate(0,-1004.3622)"><g id="g11185" style="display:inline" transform="translate(-265.0004,-105.9995)"><path d="m 291,1112.3622 c -0.554,0 -1,0.446 -1,1 l 0,1 c 0,0.554 0.446,1 1,1 l 10.0039,0 0.016,6.4844 c 0,0.8253 0.6708,1.4938 1.4961,1.4961 l 6.4844,0.017 0,28.502 c 0,0.8569 -0.6431,1.5 -1.5,1.5 l -23,0 c -0.857,0 -1.5,-0.6431 -1.5,-1.5 l 0,-1.5 c 0,-0.554 -0.446,-1 -1,-1 l -1,0 c -0.554,0 -1,0.446 -1,1 l 0,1.5 c 0,2.4671 2.0329,4.5 4.5,4.5 l 23,0 c 2.467,0 4.5,-2.0329 4.5,-4.5 l 0,-30.4863 c -1e-4,-0.3978 -0.1582,-0.7793 -0.4395,-1.0606 l -7.5137,-7.5136 c -0.2812,-0.2814 -0.6627,-0.4394 -1.0605,-0.4395 z m -11,21 c 0,0.554 0.446,1 1,1 l 1,0 c 0.554,0 1,-0.446 1,-1 l 0,-10 c 0,-0.554 -0.446,-1 -1,-1 l -1,0 c -0.554,0 -1,0.446 -1,1 z" id="path9138" style="color:#000000;font-style:normal;font-variant:normal;font-weight:normal;font-stretch:normal;font-size:medium;line-height:normal;font-family:sans-serif;text-indent:0;text-align:start;text-decoration:none;text-decoration-line:none;text-decoration-style:solid;text-decoration-color:#000000;letter-spacing:normal;word-spacing:normal;text-transform:none;direction:ltr;block-progression:tb;writing-mode:lr-tb;baseline-shift:baseline;text-anchor:start;white-space:normal;clip-rule:nonzero;display:inline;overflow:visible;visibility:visible;opacity:1;isolation:auto;mix-blend-mode:normal;color-interpolation:sRGB;color-interpolation-filters:linearRGB;solid-color:#000000;solid-opacity:1;fill:#242730;fill-opacity:1;fill-rule:nonzero;stroke:none;stroke-width:3;stroke-linecap:round;stroke-linejoin:round;stroke-miterlimit:4;stroke-dasharray:none;stroke-dashoffset:0;stroke-opacity:1;color-rendering:auto;image-rendering:auto;shape-rendering:auto;text-rendering:auto;enable-background:accumulate"/><path d="m 284.5,108 c -2.467,0 -4.5,2.0329 -4.5,4.5 l 0,2.5 c 0,0.554 0.446,1 1,1 l 1,0 c 0.554,0 1,-0.446 1,-1 l 0,-2.5 c 0,-0.8569 0.6431,-1.5 1.5,-1.5 l 2.5,0 c 0.554,0 1,-0.446 1,-1 l 0,-1 c 0,-0.554 -0.446,-1 -1,-1 l -2.5,0 z M 269,132 c -1.10801,0 -2,0.892 -2,2 l 0,7 c 0,1.108 0.89199,2 2,2 l 25,0 c 1.10801,0 2,-0.892 2,-2 l 0,-7 c 0,-1.108 -0.89199,-2 -2,-2 l -25,0 z m 6.86133,2.23438 c 1.1172,0 1.77539,0.63 1.77539,1.5371 0,0.6016 -0.28581,1.01243 -0.91602,1.29883 0.7257,0.2292 1.0586,0.69731 1.0586,1.47071 0,1.1363 -0.80099,1.89062 -2.18555,1.89062 -1.17449,0 -1.90039,-0.45023 -1.90039,-0.92773 0,-0.296 0.20096,-0.51563 0.53516,-0.51563 0.31511,0 0.77278,0.42188 1.43164,0.42188 0.59202,0 0.9082,-0.33531 0.9082,-0.90821 0,-0.7257 -0.31532,-0.86943 -0.95508,-0.89843 -0.36286,-0.01 -0.49805,-0.095 -0.49805,-0.48633 0,-0.4203 0.17318,-0.39146 0.48829,-0.43946 0.49653,-0.067 0.80078,-0.15214 0.80078,-0.74414 0,-0.487 -0.22916,-0.74414 -0.6875,-0.74414 -0.63021,0 -0.97374,0.42969 -1.36524,0.42969 -0.24826,0 -0.40039,-0.18317 -0.40039,-0.42187 0,-0.4966 0.77386,-0.96289 1.91016,-0.96289 z m 11.47851,0 c 1.19359,0 1.91016,0.70555 1.91016,1.75585 0,0.7257 -0.36436,1.36616 -1.09961,2.00586 l -1.41211,1.22266 1.63281,0 c 0,-0.3342 0.16211,-0.49609 0.50586,-0.49609 0.28646,0 0.42969,0.17205 0.42969,0.43945 l 0,0.0566 -0.0391,0.72461 c -0.01,0.2196 -0.0271,0.32617 -0.27539,0.32617 l -3.35157,0 c -0.36284,0 -0.56445,-0.16272 -0.56445,-0.44922 0,-0.2387 0.12499,-0.45873 0.38281,-0.70703 l 1.9004,-1.83398 c 0.40104,-0.3915 0.61132,-0.79236 0.61132,-1.19336 0,-0.5538 -0.2782,-0.83008 -0.83203,-0.83008 -0.3342,0 -0.57161,0.10544 -0.71484,0.27734 -0.19098,0.2387 -0.25846,0.5625 -0.63086,0.5625 -0.3151,0 -0.46875,-0.20073 -0.46875,-0.61132 0,-0.4106 0.077,-0.57294 0.37305,-0.77344 0.49653,-0.3247 1.01235,-0.47656 1.64257,-0.47656 z m -5.64843,0.35351 c 0.44879,0 0.87759,0.10419 1.33593,0.30469 0.11459,-0.21 0.21962,-0.29492 0.42969,-0.29492 0.29602,0 0.42969,0.12429 0.42969,0.52539 l 0.01,1.21093 c 0,0.401 -0.0948,0.54493 -0.48632,0.54493 -0.28646,0 -0.4024,-0.14346 -0.48828,-0.43946 -0.15279,-0.5443 -0.42969,-0.83007 -1.11719,-0.83007 -0.94533,0 -1.47852,0.64932 -1.47852,1.89062 0,1.2413 0.57248,1.91992 1.52735,1.91992 0.23872,0 0.53537,-0.0591 0.88867,-0.16406 l 0,-0.72461 -0.52539,0 c -0.3915,0 -0.58399,-0.12413 -0.58399,-0.51563 0,-0.39149 0.19249,-0.51562 0.58399,-0.51562 l 1.67968,0 c 0.39149,0 0.5918,0.10476 0.5918,0.50586 0,0.3342 -0.18142,0.51562 -0.51562,0.51562 l -0.0762,0 0,1.10743 0,0.0566 c 0,0.1718 -0.009,0.22822 -0.1621,0.32422 -0.25784,0.1528 -1.05121,0.40234 -2.01563,0.40234 -1.64238,0 -2.74023,-1.19331 -2.74023,-2.91211 0,-1.6328 1.11826,-2.91211 2.71289,-2.91211 z" id="path9140" style="color:#000000;font-style:normal;font-variant:normal;font-weight:normal;font-stretch:normal;font-size:medium;line-height:normal;font-family:sans-serif;text-indent:0;text-align:start;text-decoration:none;text-decoration-line:none;text-decoration-style:solid;text-decoration-color:#000000;letter-spacing:normal;word-spacing:normal;text-transform:none;direction:ltr;block-progression:tb;writing-mode:lr-tb;baseline-shift:baseline;text-anchor:start;white-space:normal;clip-rule:nonzero;display:inline;overflow:visible;visibility:visible;opacity:1;isolation:auto;mix-blend-mode:normal;color-interpolation:sRGB;color-interpolation-filters:linearRGB;solid-color:#000000;solid-opacity:1;fill:#11c111;fill-opacity:1;fill-rule:nonzero;stroke:none;stroke-width:3;stroke-linecap:round;stroke-linejoin:round;stroke-miterlimit:4;stroke-dasharray:none;stroke-dashoffset:0;stroke-opacity:1;color-rendering:auto;image-rendering:auto;shape-rendering:auto;text-rendering:auto;enable-background:accumulate" transform="translate(0,1004.3622)"/></g></g></svg>