<?xml version="1.0" ?><svg height="48" id="svg6485" version="1.1" viewBox="0 0 48 48" width="48" xmlns="http://www.w3.org/2000/svg" xmlns:cc="http://creativecommons.org/ns#" xmlns:dc="http://purl.org/dc/elements/1.1/" xmlns:inkscape="http://www.inkscape.org/namespaces/inkscape" xmlns:rdf="http://www.w3.org/1999/02/22-rdf-syntax-ns#" xmlns:sodipodi="http://sodipodi.sourceforge.net/DTD/sodipodi-0.dtd" xmlns:svg="http://www.w3.org/2000/svg"><defs id="defs6487"><clipPath clipPathUnits="userSpaceOnUse" id="clipPath18427"><rect height="121.40158" id="rect18429" style="opacity:1;fill:#e9e9e9;fill-opacity:0.8041237;stroke:none;stroke-width:1;stroke-linecap:round;stroke-linejoin:round;stroke-miterlimit:4;stroke-dasharray:none;stroke-dashoffset:0;stroke-opacity:1;paint-order:fill markers stroke" width="88.351334" x="-269.08893" y="204.7206"/></clipPath><clipPath clipPathUnits="userSpaceOnUse" id="clipPath18443"><path d="m -222.26758,211.43642 a 31.996582,31.996582 0 0 0 -31.99804,31.99609 31.996582,31.996582 0 0 0 10.67773,23.81446 c -3.77662,1.10404 -6.52344,4.57592 -6.52344,8.71875 0,5.03653 4.05527,9.09179 9.0918,9.09179 l 7.63086,0 0,35.49219 c 0,1.71385 1.3799,3.09375 3.09375,3.09375 1.71385,0 3.0918,-1.3799 3.0918,-3.09375 l 0,-35.49219 1.59179,0 0,37.99219 c 0,1.71385 1.3799,3.09375 3.09375,3.09375 1.71385,0 3.09375,-1.3799 3.09375,-3.09375 l 0,-37.99219 1.625,0 0,35.49219 c 0,1.71385 1.3799,3.09375 3.09375,3.09375 1.71385,0 3.09375,-1.3799 3.09375,-3.09375 l 0,-35.49219 6.67969,0 c 5.03653,0 9.0918,-4.05526 9.0918,-9.09179 0,-3.7665 -2.26947,-6.98211 -5.51954,-8.36524 a 31.996582,31.996582 0 0 0 11.0879,-24.16797 31.996582,31.996582 0 0 0 -31.9961,-31.99609 z" id="path18445" style="opacity:1;fill:#e9e9e9;fill-opacity:0.8041237;stroke:none;stroke-width:1;stroke-linecap:round;stroke-linejoin:round;stroke-miterlimit:4;stroke-dasharray:none;stroke-dashoffset:0;stroke-opacity:1;paint-order:fill markers stroke"/></clipPath><clipPath clipPathUnits="userSpaceOnUse" id="clipPath5172"><rect height="32" id="rect5174" rx="0" ry="0" style="color:#000000;clip-rule:nonzero;display:inline;overflow:visible;visibility:visible;opacity:1;isolation:auto;mix-blend-mode:normal;color-interpolation:sRGB;color-interpolation-filters:linearRGB;solid-color:#000000;solid-opacity:1;fill:#000000;fill-opacity:0.51572331;fill-rule:nonzero;stroke:none;stroke-width:1;stroke-linecap:round;stroke-linejoin:round;stroke-miterlimit:4;stroke-dasharray:none;stroke-dashoffset:0;stroke-opacity:1;color-rendering:auto;image-rendering:auto;shape-rendering:auto;text-rendering:auto;enable-background:accumulate" width="32" x="0" y="1020.3622"/></clipPath><clipPath clipPathUnits="userSpaceOnUse" id="clipPath5284"><rect height="48" id="rect5286" style="color:#000000;clip-rule:nonzero;display:inline;overflow:visible;visibility:visible;opacity:1;isolation:auto;mix-blend-mode:normal;color-interpolation:sRGB;color-interpolation-filters:linearRGB;solid-color:#000000;solid-opacity:1;fill:#000000;fill-opacity:0.48427675;fill-rule:nonzero;stroke:none;stroke-width:0.40000001;stroke-linecap:round;stroke-linejoin:round;stroke-miterlimit:4;stroke-dasharray:none;stroke-dashoffset:0;stroke-opacity:1;color-rendering:auto;image-rendering:auto;shape-rendering:auto;text-rendering:auto;enable-background:accumulate" width="48" x="0" y="1004.3622"/></clipPath></defs><g id="layer1" style="display:inline" transform="translate(0,-1004.3622)"><g id="g8250" style="display:inline" transform="translate(-368.99997,-105.9995)"><path d="m 395,1112.3622 c -0.55401,0 -1,0.446 -1,1 l 0,1 c 0,0.554 0.44599,1 1,1 l 10.00391,0 0.0156,6.4844 c 0.002,0.8253 0.67075,1.4938 1.49609,1.4961 l 6.48437,0.017 0,28.502 c 0,0.8569 -0.64305,1.5 -1.5,1.5 l -23,0 c -0.85695,0 -1.5,-0.6431 -1.5,-1.5 l 0,-1.5 c 0,-0.554 -0.44599,-1 -1,-1 l -1,0 c -0.55401,0 -1,0.446 -1,1 l 0,1.5 c 0,2.4671 2.03295,4.5 4.5,4.5 l 23,0 c 2.46705,0 4.5,-2.0329 4.5,-4.5 l 0,-30.4863 c -8e-5,-0.3978 -0.15815,-0.7793 -0.43945,-1.0606 l -7.51368,-7.5136 c -0.28126,-0.2814 -0.66274,-0.4394 -1.06054,-0.4395 z m -11,21 c 0,0.554 0.44599,1 1,1 l 1,0 c 0.55401,0 1,-0.446 1,-1 l 0,-10 c 0,-0.554 -0.44599,-1 -1,-1 l -1,0 c -0.55401,0 -1,0.446 -1,1 z" id="path7270" style="color:#000000;font-style:normal;font-variant:normal;font-weight:normal;font-stretch:normal;font-size:medium;line-height:normal;font-family:sans-serif;text-indent:0;text-align:start;text-decoration:none;text-decoration-line:none;text-decoration-style:solid;text-decoration-color:#000000;letter-spacing:normal;word-spacing:normal;text-transform:none;direction:ltr;block-progression:tb;writing-mode:lr-tb;baseline-shift:baseline;text-anchor:start;white-space:normal;clip-rule:nonzero;display:inline;overflow:visible;visibility:visible;opacity:1;isolation:auto;mix-blend-mode:normal;color-interpolation:sRGB;color-interpolation-filters:linearRGB;solid-color:#000000;solid-opacity:1;fill:#242730;fill-opacity:1;fill-rule:nonzero;stroke:none;stroke-width:3;stroke-linecap:round;stroke-linejoin:round;stroke-miterlimit:4;stroke-dasharray:none;stroke-dashoffset:0;stroke-opacity:1;color-rendering:auto;image-rendering:auto;shape-rendering:auto;text-rendering:auto;enable-background:accumulate"/><path d="m 388.5,108 c -2.46705,0 -4.5,2.0329 -4.5,4.5 l 0,2.5 c 0,0.554 0.44599,1 1,1 l 1,0 c 0.55401,0 1,-0.446 1,-1 l 0,-2.5 c 0,-0.8569 0.64305,-1.5 1.5,-1.5 l 2.5,0 c 0.55401,0 1,-0.446 1,-1 l 0,-1 c 0,-0.554 -0.44599,-1 -1,-1 l -2.5,0 z M 373,132 c -1.10801,0 -2,0.892 -2,2 l 0,7 c 0,1.108 0.89199,2 2,2 l 25,0 c 1.10801,0 2,-0.892 2,-2 l 0,-7 c 0,-1.108 -0.89199,-2 -2,-2 l -25,0 z m 5.42383,2.74023 1.74805,0 c 0.42012,0 0.45789,0.11324 0.58203,0.45704 l 1.48047,4.04882 0.0762,0 c 0.3342,0 0.51562,0.17166 0.51562,0.50586 0,0.3915 -0.2003,0.51563 -0.59179,0.51563 l -1.4043,0 c -0.3915,0 -0.5918,-0.12413 -0.5918,-0.51563 0,-0.3915 0.2003,-0.50586 0.5918,-0.50586 l 0.16211,0 -0.19141,-0.54297 -2.01367,0 -0.20117,0.54297 0.16211,0 c 0.39149,0 0.59179,0.11436 0.59179,0.50586 0,0.3915 -0.2003,0.51563 -0.59179,0.51563 l -1.20313,0 c -0.3915,0 -0.5918,-0.12413 -0.5918,-0.51563 3e-5,-0.3342 0.18142,-0.50586 0.51563,-0.50586 l 0.0762,0 1.25196,-3.47461 -0.38282,0 c -0.3915,0 -0.58203,-0.12412 -0.58203,-0.51562 0,-0.382 0.19075,-0.51563 0.5918,-0.51563 z m 5.43945,0 1.92774,0 c 1.53735,0 2.31054,0.60182 2.31054,1.72852 0,1.1936 -0.77319,1.82422 -2.31054,1.82422 l -0.79297,0 0,0.95312 0.46875,0 c 0.38195,0 0.57226,0.12396 0.57226,0.50586 0,0.382 -0.19031,0.51563 -0.57226,0.51563 l -1.60352,0 c -0.38195,0 -0.57422,-0.13363 -0.57422,-0.51563 0,-0.3246 0.18099,-0.50586 0.4961,-0.50586 l 0.0781,0 0,-3.47461 -0.0684,0 c -0.32466,0 -0.50586,-0.18142 -0.50586,-0.51562 0,-0.3724 0.19227,-0.51563 0.57422,-0.51563 z m 5.54297,0 1.20313,0 c 0.40102,0 0.59179,0.13363 0.59179,0.51563 0,0.3342 -0.18142,0.51562 -0.51562,0.51562 l -0.0762,0 0,1.41211 1.43945,-1.43945 c -0.32299,-0.038 -0.4375,-0.17388 -0.4375,-0.48828 0,-0.382 0.18098,-0.51563 0.58203,-0.51563 l 1.14648,0 c 0.40105,0 0.58204,0.13363 0.58204,0.51563 0,0.3437 -0.17209,0.52539 -0.5254,0.52539 -0.0286,0 -0.0653,-0.01 -0.10351,-0.01 l -1.36524,1.34571 c 0.62067,0.4583 1.00196,1.18556 1.43165,2.13086 0.0573,-0.01 0.10464,-0.0117 0.15234,-0.0117 0.36285,0 0.53516,0.17192 0.53516,0.51562 -3e-5,0.3915 -0.19055,0.51563 -0.58204,0.51563 l -0.57422,0 c -0.42966,0 -0.45811,-0.1903 -0.67773,-0.6582 -0.27691,-0.6016 -0.57204,-1.15575 -1.16406,-1.65235 l -0.43945,0.41992 0,0.86914 0.0762,0 c 0.3342,0 0.51562,0.17166 0.51562,0.50586 0,0.3915 -0.2003,0.51563 -0.59179,0.51563 l -1.20313,0 c -0.3915,0 -0.5918,-0.12413 -0.5918,-0.51563 0,-0.3342 0.18143,-0.50586 0.51563,-0.50586 l 0.0762,0 0,-3.47461 -0.0762,0 c -0.3342,0 -0.50586,-0.18142 -0.50586,-0.51562 0,-0.382 0.18098,-0.51563 0.58203,-0.51563 z m -9.61719,1.03125 -0.67773,1.9668 1.35547,0 -0.67774,-1.9668 z m 5.20899,0.0371 0,1.4336 0.66015,0 c 0.73525,0 1.10743,-0.25867 1.10742,-0.72657 3e-5,-0.4679 -0.37217,-0.70703 -1.10742,-0.70703 l -0.66015,0 z" id="path7272" style="color:#000000;font-style:normal;font-variant:normal;font-weight:normal;font-stretch:normal;font-size:medium;line-height:normal;font-family:sans-serif;text-indent:0;text-align:start;text-decoration:none;text-decoration-line:none;text-decoration-style:solid;text-decoration-color:#000000;letter-spacing:normal;word-spacing:normal;text-transform:none;direction:ltr;block-progression:tb;writing-mode:lr-tb;baseline-shift:baseline;text-anchor:start;white-space:normal;clip-rule:nonzero;display:inline;overflow:visible;visibility:visible;opacity:1;isolation:auto;mix-blend-mode:normal;color-interpolation:sRGB;color-interpolation-filters:linearRGB;solid-color:#000000;solid-opacity:1;fill:#11c111;fill-opacity:1;fill-rule:nonzero;stroke:none;stroke-width:3;stroke-linecap:round;stroke-linejoin:round;stroke-miterlimit:4;stroke-dasharray:none;stroke-dashoffset:0;stroke-opacity:1;color-rendering:auto;image-rendering:auto;shape-rendering:auto;text-rendering:auto;enable-background:accumulate" transform="translate(0,1004.3622)"/></g></g></svg>