<?xml version="1.0" ?><svg height="48" id="svg6485" version="1.1" viewBox="0 0 48 48" width="48" xmlns="http://www.w3.org/2000/svg" xmlns:cc="http://creativecommons.org/ns#" xmlns:dc="http://purl.org/dc/elements/1.1/" xmlns:inkscape="http://www.inkscape.org/namespaces/inkscape" xmlns:rdf="http://www.w3.org/1999/02/22-rdf-syntax-ns#" xmlns:sodipodi="http://sodipodi.sourceforge.net/DTD/sodipodi-0.dtd" xmlns:svg="http://www.w3.org/2000/svg"><defs id="defs6487"><clipPath clipPathUnits="userSpaceOnUse" id="clipPath18427"><rect height="121.40158" id="rect18429" style="opacity:1;fill:#e9e9e9;fill-opacity:0.8041237;stroke:none;stroke-width:1;stroke-linecap:round;stroke-linejoin:round;stroke-miterlimit:4;stroke-dasharray:none;stroke-dashoffset:0;stroke-opacity:1;paint-order:fill markers stroke" width="88.351334" x="-269.08893" y="204.7206"/></clipPath><clipPath clipPathUnits="userSpaceOnUse" id="clipPath18443"><path d="m -222.26758,211.43642 a 31.996582,31.996582 0 0 0 -31.99804,31.99609 31.996582,31.996582 0 0 0 10.67773,23.81446 c -3.77662,1.10404 -6.52344,4.57592 -6.52344,8.71875 0,5.03653 4.05527,9.09179 9.0918,9.09179 l 7.63086,0 0,35.49219 c 0,1.71385 1.3799,3.09375 3.09375,3.09375 1.71385,0 3.0918,-1.3799 3.0918,-3.09375 l 0,-35.49219 1.59179,0 0,37.99219 c 0,1.71385 1.3799,3.09375 3.09375,3.09375 1.71385,0 3.09375,-1.3799 3.09375,-3.09375 l 0,-37.99219 1.625,0 0,35.49219 c 0,1.71385 1.3799,3.09375 3.09375,3.09375 1.71385,0 3.09375,-1.3799 3.09375,-3.09375 l 0,-35.49219 6.67969,0 c 5.03653,0 9.0918,-4.05526 9.0918,-9.09179 0,-3.7665 -2.26947,-6.98211 -5.51954,-8.36524 a 31.996582,31.996582 0 0 0 11.0879,-24.16797 31.996582,31.996582 0 0 0 -31.9961,-31.99609 z" id="path18445" style="opacity:1;fill:#e9e9e9;fill-opacity:0.8041237;stroke:none;stroke-width:1;stroke-linecap:round;stroke-linejoin:round;stroke-miterlimit:4;stroke-dasharray:none;stroke-dashoffset:0;stroke-opacity:1;paint-order:fill markers stroke"/></clipPath><clipPath clipPathUnits="userSpaceOnUse" id="clipPath5172"><rect height="32" id="rect5174" rx="0" ry="0" style="color:#000000;clip-rule:nonzero;display:inline;overflow:visible;visibility:visible;opacity:1;isolation:auto;mix-blend-mode:normal;color-interpolation:sRGB;color-interpolation-filters:linearRGB;solid-color:#000000;solid-opacity:1;fill:#000000;fill-opacity:0.51572331;fill-rule:nonzero;stroke:none;stroke-width:1;stroke-linecap:round;stroke-linejoin:round;stroke-miterlimit:4;stroke-dasharray:none;stroke-dashoffset:0;stroke-opacity:1;color-rendering:auto;image-rendering:auto;shape-rendering:auto;text-rendering:auto;enable-background:accumulate" width="32" x="0" y="1020.3622"/></clipPath><clipPath clipPathUnits="userSpaceOnUse" id="clipPath5284"><rect height="48" id="rect5286" style="color:#000000;clip-rule:nonzero;display:inline;overflow:visible;visibility:visible;opacity:1;isolation:auto;mix-blend-mode:normal;color-interpolation:sRGB;color-interpolation-filters:linearRGB;solid-color:#000000;solid-opacity:1;fill:#000000;fill-opacity:0.48427675;fill-rule:nonzero;stroke:none;stroke-width:0.40000001;stroke-linecap:round;stroke-linejoin:round;stroke-miterlimit:4;stroke-dasharray:none;stroke-dashoffset:0;stroke-opacity:1;color-rendering:auto;image-rendering:auto;shape-rendering:auto;text-rendering:auto;enable-background:accumulate" width="48" x="0" y="1004.3622"/></clipPath></defs><g id="layer1" style="display:inline" transform="translate(0,-1004.3622)"><g id="g8246" style="display:inline" transform="translate(-368.99997,-155.9995)"><path d="m 395,1162.3622 c -0.55401,0 -1,0.446 -1,1 l 0,1 c 0,0.554 0.44599,1 1,1 l 10.00391,0 0.0156,6.4844 c 0.002,0.8253 0.67075,1.4938 1.49609,1.4961 l 6.48437,0.017 0,28.502 c 0,0.8569 -0.64305,1.5 -1.5,1.5 l -23,0 c -0.85695,0 -1.5,-0.6431 -1.5,-1.5 l 0,-1.5 c 0,-0.554 -0.44599,-1 -1,-1 l -1,0 c -0.55401,0 -1,0.446 -1,1 l 0,1.5 c 0,2.4671 2.03295,4.5 4.5,4.5 l 23,0 c 2.46705,0 4.5,-2.0329 4.5,-4.5 l 0,-30.4863 c -8e-5,-0.3978 -0.15815,-0.7793 -0.43945,-1.0606 l -7.51368,-7.5136 c -0.28126,-0.2814 -0.66274,-0.4394 -1.06054,-0.4395 z m -11,21 c 0,0.554 0.44599,1 1,1 l 1,0 c 0.55401,0 1,-0.446 1,-1 l 0,-10 c 0,-0.554 -0.44599,-1 -1,-1 l -1,0 c -0.55401,0 -1,0.446 -1,1 z" id="path7288" style="color:#000000;font-style:normal;font-variant:normal;font-weight:normal;font-stretch:normal;font-size:medium;line-height:normal;font-family:sans-serif;text-indent:0;text-align:start;text-decoration:none;text-decoration-line:none;text-decoration-style:solid;text-decoration-color:#000000;letter-spacing:normal;word-spacing:normal;text-transform:none;direction:ltr;block-progression:tb;writing-mode:lr-tb;baseline-shift:baseline;text-anchor:start;white-space:normal;clip-rule:nonzero;display:inline;overflow:visible;visibility:visible;opacity:1;isolation:auto;mix-blend-mode:normal;color-interpolation:sRGB;color-interpolation-filters:linearRGB;solid-color:#000000;solid-opacity:1;fill:#242730;fill-opacity:1;fill-rule:nonzero;stroke:none;stroke-width:3;stroke-linecap:round;stroke-linejoin:round;stroke-miterlimit:4;stroke-dasharray:none;stroke-dashoffset:0;stroke-opacity:1;color-rendering:auto;image-rendering:auto;shape-rendering:auto;text-rendering:auto;enable-background:accumulate"/><path d="m 388.5,158 c -2.46705,0 -4.5,2.0329 -4.5,4.5 l 0,2.5 c 0,0.554 0.44599,1 1,1 l 1,0 c 0.55401,0 1,-0.446 1,-1 l 0,-2.5 c 0,-0.8569 0.64305,-1.5 1.5,-1.5 l 2.5,0 c 0.55401,0 1,-0.446 1,-1 l 0,-1 c 0,-0.554 -0.44599,-1 -1,-1 l -2.5,0 z M 373,182 c -1.10801,0 -2,0.892 -2,2 l 0,7 c 0,1.108 0.89199,2 2,2 l 25,0 c 1.10801,0 2,-0.892 2,-2 l 0,-7 c 0,-1.108 -0.89199,-2 -2,-2 l -25,0 z m 16.22461,2.73047 4.01172,0 c 0.48698,0 0.50434,0.11413 0.52344,0.58203 l 0.0488,1.39453 0,0.0371 c 0,0.3724 -0.13324,0.55469 -0.49609,0.55469 -0.28646,0 -0.46875,-0.19963 -0.46875,-0.39063 0,-0.029 -0.01,-0.087 -0.01,-0.20117 l -0.0293,-0.94531 -0.97266,0 0,3.47461 0.7832,0 c 0.3915,0 0.58204,0.12412 0.58204,0.51562 0,0.3629 -0.18099,0.51563 -0.58204,0.51563 l -2.76953,0 c -0.40104,0 -0.59179,-0.15273 -0.59179,-0.51563 0,-0.3915 0.2003,-0.51562 0.59179,-0.51562 l 0.78321,0 0,-3.47461 -0.97461,0 -0.0273,0.94531 0,0.11524 c 0,0.2961 -0.17274,0.47656 -0.46875,0.47656 -0.36286,0 -0.50586,-0.18229 -0.50586,-0.55469 l 0,-0.0371 0.0469,-1.39453 c 0.0191,-0.4679 0.0384,-0.58203 0.52539,-0.58203 z m -11.44922,0.01 2.14844,0 c 1.33682,0 2.0039,0.54315 2.0039,1.49805 0,0.487 -0.21049,0.86091 -0.62109,1.09961 0.67796,0.2482 0.98438,0.66754 0.98438,1.33594 0,0.487 -0.21007,0.92665 -0.60157,1.22265 -0.45834,0.3434 -0.9644,0.3711 -1.54687,0.3711 l -0.32422,0 -2.04297,0 c -0.3915,0 -0.58398,-0.13363 -0.58398,-0.51563 0,-0.3342 0.1812,-0.50586 0.50586,-0.50586 l 0.0781,0 0,-3.47461 -0.0781,0 c -0.32466,0 -0.50586,-0.18142 -0.50586,-0.51562 0,-0.382 0.19248,-0.51563 0.58398,-0.51563 z m 6.25,0 1.74609,0 c 0.42014,0 0.45986,0.11324 0.58399,0.45704 l 1.47851,4.04882 0.0762,0 c 0.33421,0 0.51562,0.17166 0.51562,0.50586 0,0.3915 -0.2003,0.51563 -0.5918,0.51563 l -1.40234,0 c -0.3915,0 -0.5918,-0.12413 -0.5918,-0.51563 0,-0.3915 0.2003,-0.50586 0.5918,-0.50586 l 0.16211,0 -0.19141,-0.54297 -2.01562,0 -0.19922,0.54297 0.16211,0 c 0.3915,0 0.5918,0.11436 0.5918,0.50586 0,0.3915 -0.2003,0.51563 -0.5918,0.51563 l -1.20313,0 c -0.3915,0 -0.59179,-0.12413 -0.59179,-0.51563 0,-0.3342 0.18142,-0.50586 0.51562,-0.50586 l 0.0762,0 1.25,-3.47461 -0.38086,0 c -0.39148,0 -0.58203,-0.12412 -0.58203,-0.51562 0,-0.382 0.19076,-0.51563 0.5918,-0.51563 z m -5.0957,1.00196 0,1.17383 0.62109,0 c 0.70661,0 1.05078,-0.1334 1.05078,-0.5918 0,-0.4201 -0.28729,-0.58203 -0.89844,-0.58203 l -0.77343,0 z m 6.46093,0.0293 -0.67773,1.9668 1.35547,0 -0.67774,-1.9668 z m -6.46093,2.08204 0,1.42187 0.69726,0 c 0.89758,0 1.34571,-0.15323 1.34571,-0.70703 0,-0.5825 -0.43944,-0.71484 -1.29883,-0.71484 l -0.74414,0 z" id="path7290" style="color:#000000;font-style:normal;font-variant:normal;font-weight:normal;font-stretch:normal;font-size:medium;line-height:normal;font-family:sans-serif;text-indent:0;text-align:start;text-decoration:none;text-decoration-line:none;text-decoration-style:solid;text-decoration-color:#000000;letter-spacing:normal;word-spacing:normal;text-transform:none;direction:ltr;block-progression:tb;writing-mode:lr-tb;baseline-shift:baseline;text-anchor:start;white-space:normal;clip-rule:nonzero;display:inline;overflow:visible;visibility:visible;opacity:1;isolation:auto;mix-blend-mode:normal;color-interpolation:sRGB;color-interpolation-filters:linearRGB;solid-color:#000000;solid-opacity:1;fill:#11c111;fill-opacity:1;fill-rule:nonzero;stroke:none;stroke-width:3;stroke-linecap:round;stroke-linejoin:round;stroke-miterlimit:4;stroke-dasharray:none;stroke-dashoffset:0;stroke-opacity:1;color-rendering:auto;image-rendering:auto;shape-rendering:auto;text-rendering:auto;enable-background:accumulate" transform="translate(0,1004.3622)"/></g></g></svg>