<?xml version="1.0" ?><svg height="48" id="svg6485" version="1.1" viewBox="0 0 48 48" width="48" xmlns="http://www.w3.org/2000/svg" xmlns:cc="http://creativecommons.org/ns#" xmlns:dc="http://purl.org/dc/elements/1.1/" xmlns:inkscape="http://www.inkscape.org/namespaces/inkscape" xmlns:rdf="http://www.w3.org/1999/02/22-rdf-syntax-ns#" xmlns:sodipodi="http://sodipodi.sourceforge.net/DTD/sodipodi-0.dtd" xmlns:svg="http://www.w3.org/2000/svg"><defs id="defs6487"><clipPath clipPathUnits="userSpaceOnUse" id="clipPath18427"><rect height="121.40158" id="rect18429" style="opacity:1;fill:#e9e9e9;fill-opacity:0.8041237;stroke:none;stroke-width:1;stroke-linecap:round;stroke-linejoin:round;stroke-miterlimit:4;stroke-dasharray:none;stroke-dashoffset:0;stroke-opacity:1;paint-order:fill markers stroke" width="88.351334" x="-269.08893" y="204.7206"/></clipPath><clipPath clipPathUnits="userSpaceOnUse" id="clipPath18443"><path d="m -222.26758,211.43642 a 31.996582,31.996582 0 0 0 -31.99804,31.99609 31.996582,31.996582 0 0 0 10.67773,23.81446 c -3.77662,1.10404 -6.52344,4.57592 -6.52344,8.71875 0,5.03653 4.05527,9.09179 9.0918,9.09179 l 7.63086,0 0,35.49219 c 0,1.71385 1.3799,3.09375 3.09375,3.09375 1.71385,0 3.0918,-1.3799 3.0918,-3.09375 l 0,-35.49219 1.59179,0 0,37.99219 c 0,1.71385 1.3799,3.09375 3.09375,3.09375 1.71385,0 3.09375,-1.3799 3.09375,-3.09375 l 0,-37.99219 1.625,0 0,35.49219 c 0,1.71385 1.3799,3.09375 3.09375,3.09375 1.71385,0 3.09375,-1.3799 3.09375,-3.09375 l 0,-35.49219 6.67969,0 c 5.03653,0 9.0918,-4.05526 9.0918,-9.09179 0,-3.7665 -2.26947,-6.98211 -5.51954,-8.36524 a 31.996582,31.996582 0 0 0 11.0879,-24.16797 31.996582,31.996582 0 0 0 -31.9961,-31.99609 z" id="path18445" style="opacity:1;fill:#e9e9e9;fill-opacity:0.8041237;stroke:none;stroke-width:1;stroke-linecap:round;stroke-linejoin:round;stroke-miterlimit:4;stroke-dasharray:none;stroke-dashoffset:0;stroke-opacity:1;paint-order:fill markers stroke"/></clipPath><clipPath clipPathUnits="userSpaceOnUse" id="clipPath5172"><rect height="32" id="rect5174" rx="0" ry="0" style="color:#000000;clip-rule:nonzero;display:inline;overflow:visible;visibility:visible;opacity:1;isolation:auto;mix-blend-mode:normal;color-interpolation:sRGB;color-interpolation-filters:linearRGB;solid-color:#000000;solid-opacity:1;fill:#000000;fill-opacity:0.51572331;fill-rule:nonzero;stroke:none;stroke-width:1;stroke-linecap:round;stroke-linejoin:round;stroke-miterlimit:4;stroke-dasharray:none;stroke-dashoffset:0;stroke-opacity:1;color-rendering:auto;image-rendering:auto;shape-rendering:auto;text-rendering:auto;enable-background:accumulate" width="32" x="0" y="1020.3622"/></clipPath><clipPath clipPathUnits="userSpaceOnUse" id="clipPath5284"><rect height="48" id="rect5286" style="color:#000000;clip-rule:nonzero;display:inline;overflow:visible;visibility:visible;opacity:1;isolation:auto;mix-blend-mode:normal;color-interpolation:sRGB;color-interpolation-filters:linearRGB;solid-color:#000000;solid-opacity:1;fill:#000000;fill-opacity:0.48427675;fill-rule:nonzero;stroke:none;stroke-width:0.40000001;stroke-linecap:round;stroke-linejoin:round;stroke-miterlimit:4;stroke-dasharray:none;stroke-dashoffset:0;stroke-opacity:1;color-rendering:auto;image-rendering:auto;shape-rendering:auto;text-rendering:auto;enable-background:accumulate" width="48" x="0" y="1004.3622"/></clipPath></defs><g id="layer1" style="display:inline" transform="translate(0,-1004.3622)"><g id="g11381" style="display:inline" transform="translate(-677.0004,-155.9995)"><path d="m 703,1162.3622 c -0.554,0 -1,0.446 -1,1 l 0,1 c 0,0.554 0.446,1 1,1 l 10.0039,0 0.016,6.4844 c 0,0.8253 0.6708,1.4938 1.4961,1.4961 l 6.4844,0.017 0,28.502 c 0,0.8569 -0.6431,1.5 -1.5,1.5 l -23,0 c -0.857,0 -1.5,-0.6431 -1.5,-1.5 l 0,-1.5 c 0,-0.554 -0.446,-1 -1,-1 l -1,0 c -0.554,0 -1,0.446 -1,1 l 0,1.5 c 0,2.4671 2.0329,4.5 4.5,4.5 l 23,0 c 2.467,0 4.5,-2.0329 4.5,-4.5 l 0,-30.4863 c -10e-5,-0.3978 -0.1582,-0.7793 -0.4395,-1.0606 l -7.5137,-7.5136 c -0.2812,-0.2814 -0.6627,-0.4394 -1.0605,-0.4395 z m -11,21 c 0,0.554 0.446,1 1,1 l 1,0 c 0.554,0 1,-0.446 1,-1 l 0,-10 c 0,-0.554 -0.446,-1 -1,-1 l -1,0 c -0.554,0 -1,0.446 -1,1 z" id="path8782" style="color:#000000;font-style:normal;font-variant:normal;font-weight:normal;font-stretch:normal;font-size:medium;line-height:normal;font-family:sans-serif;text-indent:0;text-align:start;text-decoration:none;text-decoration-line:none;text-decoration-style:solid;text-decoration-color:#000000;letter-spacing:normal;word-spacing:normal;text-transform:none;direction:ltr;block-progression:tb;writing-mode:lr-tb;baseline-shift:baseline;text-anchor:start;white-space:normal;clip-rule:nonzero;display:inline;overflow:visible;visibility:visible;opacity:1;isolation:auto;mix-blend-mode:normal;color-interpolation:sRGB;color-interpolation-filters:linearRGB;solid-color:#000000;solid-opacity:1;fill:#242730;fill-opacity:1;fill-rule:nonzero;stroke:none;stroke-width:3;stroke-linecap:round;stroke-linejoin:round;stroke-miterlimit:4;stroke-dasharray:none;stroke-dashoffset:0;stroke-opacity:1;color-rendering:auto;image-rendering:auto;shape-rendering:auto;text-rendering:auto;enable-background:accumulate"/><path d="m 696.5,158 c -2.467,0 -4.5,2.0329 -4.5,4.5 l 0,2.5 c 0,0.554 0.446,1 1,1 l 1,0 c 0.554,0 1,-0.446 1,-1 l 0,-2.5 c 0,-0.8569 0.6431,-1.5 1.5,-1.5 l 2.5,0 c 0.554,0 1,-0.446 1,-1 l 0,-1 c 0,-0.554 -0.446,-1 -1,-1 l -2.5,0 z M 681,182 c -1.10801,0 -2,0.892 -2,2 l 0,7 c 0,1.108 0.89199,2 2,2 l 25,0 c 1.10801,0 2,-0.892 2,-2 l 0,-7 c 0,-1.108 -0.89199,-2 -2,-2 l -25,0 z m 2.71484,2.96289 c 0.39089,0 0.76484,0.091 1.16407,0.26563 0.0998,-0.1826 0.19788,-0.25586 0.38086,-0.25586 0.25782,0 0.36718,0.10567 0.36718,0.45507 l 0.008,1.0586 c 0,0.3493 -0.0828,0.47461 -0.42383,0.47461 -0.24951,0 -0.34122,-0.12697 -0.41602,-0.38477 -0.13307,-0.4741 -0.38165,-0.72265 -0.98047,-0.72265 -0.82336,0 -1.28906,0.56528 -1.28906,1.64648 0,1.0729 0.4652,1.64648 1.29688,1.64648 0.76515,0 1.22195,-0.56445 1.58789,-0.56445 0.20792,0 0.375,0.2006 0.375,0.4668 0,0.4324 -0.92409,0.99609 -2.04688,0.99609 -1.43049,0 -2.37695,-1.04782 -2.37695,-2.54492 0,-1.4221 0.96459,-2.53711 2.35351,-2.53711 z m 14.84375,0 c 0.37427,0 0.71319,0.075 1.0625,0.22461 0.0915,-0.2001 0.19146,-0.22461 0.41602,-0.22461 0.26621,0 0.3338,0.084 0.3418,0.43359 l 0.0156,0.78125 0,0.041 c 0,0.3078 -0.098,0.43359 -0.41406,0.43359 -0.33267,0 -0.367,-0.18321 -0.4668,-0.38281 -0.16634,-0.3244 -0.45676,-0.50781 -0.84765,-0.50781 -0.50732,0 -0.81446,0.26691 -0.81446,0.59961 -10e-6,0.4242 0.46469,0.46602 1.30469,0.64062 1.00634,0.2079 1.48047,0.65697 1.48047,1.48047 0,0.9979 -0.69874,1.55469 -1.96289,1.55469 -0.41585,0 -0.7985,-0.043 -1.22266,-0.20117 -0.0915,0.1576 -0.19983,0.20117 -0.38281,0.20117 -0.33268,0 -0.4588,-0.10031 -0.4668,-0.44141 l -0.0234,-0.95703 0,-0.041 c 0,-0.3493 0.11605,-0.48243 0.45704,-0.48243 0.31604,0 0.35811,0.23234 0.50781,0.52344 0.21625,0.4242 0.58194,0.625 1.13086,0.625 0.4907,0 0.79101,-0.20734 0.79101,-0.58984 0,-0.524 -0.46601,-0.52638 -1.38086,-0.76758 -0.91485,-0.2412 -1.39843,-0.54769 -1.39843,-1.37109 0,-0.9232 0.7669,-1.57227 1.87304,-1.57227 z m 5.00196,0 c 0.37425,0 0.71515,0.075 1.06445,0.22461 0.0915,-0.2001 0.18951,-0.22461 0.41406,-0.22461 0.26623,0 0.33575,0.084 0.34375,0.43359 l 0.0156,0.78125 0,0.041 c 0,0.3078 -0.1,0.43359 -0.41602,0.43359 -0.33267,0 -0.367,-0.18321 -0.4668,-0.38281 -0.16633,-0.3244 -0.45676,-0.50781 -0.84765,-0.50781 -0.50732,0 -0.81445,0.26691 -0.81445,0.59961 0,0.4242 0.46663,0.46602 1.30664,0.64062 1.00635,0.2079 1.47851,0.65697 1.47851,1.48047 0,0.9979 -0.69678,1.55469 -1.96094,1.55469 -0.41585,0 -0.79848,-0.043 -1.22265,-0.20117 -0.0915,0.1576 -0.19983,0.20117 -0.38281,0.20117 -0.33267,0 -0.4588,-0.10031 -0.4668,-0.44141 l -0.0254,-0.95703 0,-0.041 c 0,-0.3493 0.11604,-0.48243 0.45703,-0.48243 0.31604,0 0.36005,0.23234 0.50977,0.52344 0.21622,0.4242 0.58194,0.625 1.13085,0.625 0.49069,0 0.78907,-0.20734 0.78907,-0.58984 0,-0.524 -0.46601,-0.52638 -1.38086,-0.76758 -0.91486,-0.2412 -1.39649,-0.54769 -1.39649,-1.37109 0,-0.9232 0.76495,-1.57227 1.8711,-1.57227 z m -16.78125,0.13281 1.73828,0 c 0.33268,0 0.49804,0.12688 0.49804,0.45118 0,0.33269 -0.16536,0.44726 -0.49804,0.44726 l -0.35742,0 0,3.02734 1.8457,0 0,-0.72265 c 0,-0.3493 0.11705,-0.51563 0.44141,-0.51563 0.33268,0 0.4414,0.17473 0.4414,0.51563 l 0,1.24609 c 0,0.2907 -0.0828,0.36719 -0.42383,0.36719 l -3.68554,0 c -0.33267,0 -0.49024,-0.11652 -0.49024,-0.44922 0,-0.3326 0.15757,-0.44141 0.49024,-0.44141 l 0.35742,0 0,-3.02734 -0.35742,0 c -0.33267,0 -0.49024,-0.11456 -0.49024,-0.44726 0,-0.3243 0.15757,-0.45118 0.49024,-0.45118 z m 5.56054,0 1.52344,0 c 0.36594,0 0.39773,0.10099 0.50586,0.40039 l 1.28906,3.52539 0.0664,0 c 0.29108,0 0.44922,0.15031 0.44922,0.44141 0,0.341 -0.17464,0.44922 -0.51563,0.44922 l -1.22265,0 c -0.34099,0 -0.51563,-0.10822 -0.51563,-0.44922 0,-0.3407 0.17464,-0.44141 0.51563,-0.44141 l 0.14257,0 -0.16796,-0.47265 -1.75391,0 -0.17383,0.47265 0.13867,0 c 0.34098,0 0.51563,0.10041 0.51563,0.44141 0,0.341 -0.17465,0.44922 -0.51563,0.44922 l -1.04687,0 c -0.341,0 -0.51367,-0.10822 -0.51367,-0.44922 0,-0.2911 0.15617,-0.44141 0.44726,-0.44141 l 0.0664,0 1.08984,-3.02734 -0.33398,0 c -0.341,0 -0.50586,-0.10616 -0.50586,-0.44726 0,-0.3327 0.1663,-0.45118 0.51562,-0.45118 z m 1.18946,0.89844 -0.5918,1.71289 1.18164,0 -0.58984,-1.71289 z" id="path8784" style="color:#000000;font-style:normal;font-variant:normal;font-weight:normal;font-stretch:normal;font-size:medium;line-height:normal;font-family:sans-serif;text-indent:0;text-align:start;text-decoration:none;text-decoration-line:none;text-decoration-style:solid;text-decoration-color:#000000;letter-spacing:normal;word-spacing:normal;text-transform:none;direction:ltr;block-progression:tb;writing-mode:lr-tb;baseline-shift:baseline;text-anchor:start;white-space:normal;clip-rule:nonzero;display:inline;overflow:visible;visibility:visible;opacity:1;isolation:auto;mix-blend-mode:normal;color-interpolation:sRGB;color-interpolation-filters:linearRGB;solid-color:#000000;solid-opacity:1;fill:#11c111;fill-opacity:1;fill-rule:nonzero;stroke:none;stroke-width:3;stroke-linecap:round;stroke-linejoin:round;stroke-miterlimit:4;stroke-dasharray:none;stroke-dashoffset:0;stroke-opacity:1;color-rendering:auto;image-rendering:auto;shape-rendering:auto;text-rendering:auto;enable-background:accumulate" transform="translate(0,1004.3622)"/></g></g></svg>