<?xml version="1.0" ?><svg height="48" id="svg6485" version="1.1" viewBox="0 0 48 48" width="48" xmlns="http://www.w3.org/2000/svg" xmlns:cc="http://creativecommons.org/ns#" xmlns:dc="http://purl.org/dc/elements/1.1/" xmlns:inkscape="http://www.inkscape.org/namespaces/inkscape" xmlns:rdf="http://www.w3.org/1999/02/22-rdf-syntax-ns#" xmlns:sodipodi="http://sodipodi.sourceforge.net/DTD/sodipodi-0.dtd" xmlns:svg="http://www.w3.org/2000/svg"><defs id="defs6487"><clipPath clipPathUnits="userSpaceOnUse" id="clipPath18427"><rect height="121.40158" id="rect18429" style="opacity:1;fill:#e9e9e9;fill-opacity:0.8041237;stroke:none;stroke-width:1;stroke-linecap:round;stroke-linejoin:round;stroke-miterlimit:4;stroke-dasharray:none;stroke-dashoffset:0;stroke-opacity:1;paint-order:fill markers stroke" width="88.351334" x="-269.08893" y="204.7206"/></clipPath><clipPath clipPathUnits="userSpaceOnUse" id="clipPath18443"><path d="m -222.26758,211.43642 a 31.996582,31.996582 0 0 0 -31.99804,31.99609 31.996582,31.996582 0 0 0 10.67773,23.81446 c -3.77662,1.10404 -6.52344,4.57592 -6.52344,8.71875 0,5.03653 4.05527,9.09179 9.0918,9.09179 l 7.63086,0 0,35.49219 c 0,1.71385 1.3799,3.09375 3.09375,3.09375 1.71385,0 3.0918,-1.3799 3.0918,-3.09375 l 0,-35.49219 1.59179,0 0,37.99219 c 0,1.71385 1.3799,3.09375 3.09375,3.09375 1.71385,0 3.09375,-1.3799 3.09375,-3.09375 l 0,-37.99219 1.625,0 0,35.49219 c 0,1.71385 1.3799,3.09375 3.09375,3.09375 1.71385,0 3.09375,-1.3799 3.09375,-3.09375 l 0,-35.49219 6.67969,0 c 5.03653,0 9.0918,-4.05526 9.0918,-9.09179 0,-3.7665 -2.26947,-6.98211 -5.51954,-8.36524 a 31.996582,31.996582 0 0 0 11.0879,-24.16797 31.996582,31.996582 0 0 0 -31.9961,-31.99609 z" id="path18445" style="opacity:1;fill:#e9e9e9;fill-opacity:0.8041237;stroke:none;stroke-width:1;stroke-linecap:round;stroke-linejoin:round;stroke-miterlimit:4;stroke-dasharray:none;stroke-dashoffset:0;stroke-opacity:1;paint-order:fill markers stroke"/></clipPath><clipPath clipPathUnits="userSpaceOnUse" id="clipPath5172"><rect height="32" id="rect5174" rx="0" ry="0" style="color:#000000;clip-rule:nonzero;display:inline;overflow:visible;visibility:visible;opacity:1;isolation:auto;mix-blend-mode:normal;color-interpolation:sRGB;color-interpolation-filters:linearRGB;solid-color:#000000;solid-opacity:1;fill:#000000;fill-opacity:0.51572331;fill-rule:nonzero;stroke:none;stroke-width:1;stroke-linecap:round;stroke-linejoin:round;stroke-miterlimit:4;stroke-dasharray:none;stroke-dashoffset:0;stroke-opacity:1;color-rendering:auto;image-rendering:auto;shape-rendering:auto;text-rendering:auto;enable-background:accumulate" width="32" x="0" y="1020.3622"/></clipPath><clipPath clipPathUnits="userSpaceOnUse" id="clipPath5284"><rect height="48" id="rect5286" style="color:#000000;clip-rule:nonzero;display:inline;overflow:visible;visibility:visible;opacity:1;isolation:auto;mix-blend-mode:normal;color-interpolation:sRGB;color-interpolation-filters:linearRGB;solid-color:#000000;solid-opacity:1;fill:#000000;fill-opacity:0.48427675;fill-rule:nonzero;stroke:none;stroke-width:0.40000001;stroke-linecap:round;stroke-linejoin:round;stroke-miterlimit:4;stroke-dasharray:none;stroke-dashoffset:0;stroke-opacity:1;color-rendering:auto;image-rendering:auto;shape-rendering:auto;text-rendering:auto;enable-background:accumulate" width="48" x="0" y="1004.3622"/></clipPath></defs><g id="layer1" style="display:inline" transform="translate(0,-1004.3622)"><g id="g11300" style="display:inline" transform="translate(-401.0004,-305.9995)"><path d="m 427,1312.3622 c -0.554,0 -1,0.446 -1,1 l 0,1 c 0,0.554 0.446,1 1,1 l 10.0039,0 0.016,6.4844 c 0,0.8253 0.6708,1.4938 1.4961,1.4961 l 6.4844,0.017 0,28.502 c 0,0.8569 -0.6431,1.5 -1.5,1.5 l -23,0 c -0.857,0 -1.5,-0.6431 -1.5,-1.5 l 0,-1.5 c 0,-0.554 -0.446,-1 -1,-1 l -1,0 c -0.554,0 -1,0.446 -1,1 l 0,1.5 c 0,2.4671 2.0329,4.5 4.5,4.5 l 23,0 c 2.467,0 4.5,-2.0329 4.5,-4.5 l 0,-30.4863 c -1e-4,-0.3978 -0.1582,-0.7793 -0.4395,-1.0606 l -7.5137,-7.5136 c -0.2812,-0.2814 -0.6627,-0.4394 -1.0605,-0.4395 z m -11,21 c 0,0.554 0.446,1 1,1 l 1,0 c 0.554,0 1,-0.446 1,-1 l 0,-10 c 0,-0.554 -0.446,-1 -1,-1 l -1,0 c -0.554,0 -1,0.446 -1,1 z" id="path9066" style="color:#000000;font-style:normal;font-variant:normal;font-weight:normal;font-stretch:normal;font-size:medium;line-height:normal;font-family:sans-serif;text-indent:0;text-align:start;text-decoration:none;text-decoration-line:none;text-decoration-style:solid;text-decoration-color:#000000;letter-spacing:normal;word-spacing:normal;text-transform:none;direction:ltr;block-progression:tb;writing-mode:lr-tb;baseline-shift:baseline;text-anchor:start;white-space:normal;clip-rule:nonzero;display:inline;overflow:visible;visibility:visible;opacity:1;isolation:auto;mix-blend-mode:normal;color-interpolation:sRGB;color-interpolation-filters:linearRGB;solid-color:#000000;solid-opacity:1;fill:#242730;fill-opacity:1;fill-rule:nonzero;stroke:none;stroke-width:3;stroke-linecap:round;stroke-linejoin:round;stroke-miterlimit:4;stroke-dasharray:none;stroke-dashoffset:0;stroke-opacity:1;color-rendering:auto;image-rendering:auto;shape-rendering:auto;text-rendering:auto;enable-background:accumulate"/><path d="m 420.5,308 c -2.467,0 -4.5,2.0329 -4.5,4.5 l 0,2.5 c 0,0.554 0.446,1 1,1 l 1,0 c 0.554,0 1,-0.446 1,-1 l 0,-2.5 c 0,-0.8569 0.6431,-1.5 1.5,-1.5 l 2.5,0 c 0.554,0 1,-0.446 1,-1 l 0,-1 c 0,-0.554 -0.446,-1 -1,-1 l -2.5,0 z M 405,332 c -1.10801,0 -2,0.892 -2,2 l 0,7 c 0,1.108 0.89199,2 2,2 l 25,0 c 1.10801,0 2,-0.892 2,-2 l 0,-7 c 0,-1.108 -0.89199,-2 -2,-2 l -25,0 z m 6.72656,2.58789 c 0.44879,0 0.87955,0.10419 1.33789,0.30469 0.11459,-0.21 0.22743,-0.29688 0.4375,-0.29688 0.29601,0 0.42188,0.12429 0.42188,0.52539 l 0.01,1.21289 c 0,0.401 -0.0968,0.54493 -0.48828,0.54493 -0.28646,0 -0.39066,-0.14346 -0.47656,-0.43946 -0.15278,-0.5443 -0.43944,-0.83007 -1.12695,-0.83007 -0.94532,0 -1.48047,0.64932 -1.48047,1.89062 0,1.2318 0.53536,1.89062 1.49023,1.89062 0.87849,0 1.40407,-0.65039 1.82422,-0.65039 0.23872,0 0.42969,0.22956 0.42969,0.53516 0,0.4965 -1.06054,1.14649 -2.34961,1.14649 -1.64238,0 -2.73047,-1.20308 -2.73047,-2.92188 0,-1.6328 1.10653,-2.91211 2.70117,-2.91211 z m 3.45313,0.15234 1.20312,0 c 0.40104,0 0.5918,0.13363 0.5918,0.51563 0,0.3342 -0.18143,0.51562 -0.51563,0.51562 l -0.0762,0 0,2.4336 c 0,0.8212 0.23958,1.19531 0.98438,1.19531 0.7257,0 0.98242,-0.36451 0.98242,-1.19531 l 0,-2.4336 -0.0762,0 c -0.3342,0 -0.50586,-0.18142 -0.50586,-0.51562 0,-0.382 0.18099,-0.51563 0.58203,-0.51563 l 1.16601,0 c 0.40106,0 0.58204,0.13363 0.58204,0.51563 0,0.3342 -0.17166,0.51562 -0.50586,0.51562 l -0.0762,0 0,2.41602 c 3e-5,1.5183 -0.59372,2.22461 -2.14062,2.22461 -1.60418,0 -2.19531,-0.67771 -2.19531,-2.22461 l 0,-2.41602 -0.0762,0 c -0.33421,0 -0.51563,-0.18142 -0.51563,-0.51562 0,-0.382 0.19075,-0.51563 0.5918,-0.51563 z m 6.01172,0 2.14843,0 c 1.33682,0 2.00586,0.53408 2.00586,1.51758 0,0.697 -0.38323,1.22241 -1.08984,1.47071 0.13368,0.076 0.19118,0.2018 0.26758,0.3164 l 0.76367,1.20313 c 0.0477,-0.01 0.10633,-0.0117 0.14453,-0.0117 0.36286,0 0.54297,0.17192 0.54297,0.51562 0,0.3915 -0.2003,0.51563 -0.5918,0.51563 l -0.57226,0 c -0.31511,0 -0.39128,-0.10376 -0.50586,-0.28516 l -1.14649,-1.75586 c -0.0858,-0.1333 -0.20048,-0.21094 -0.32422,-0.21094 l -0.43945,0 0,1.23243 0.0762,0 c 0.33421,0 0.50586,0.17166 0.50586,0.50586 0,0.3915 -0.19053,0.51562 -0.58203,0.51562 l -1.20312,0 c -0.39149,0 -0.58204,-0.13362 -0.58203,-0.51562 -1e-5,-0.3342 0.1812,-0.50586 0.50585,-0.50586 l 0.0762,0 0,-3.47657 -0.0762,0 c -0.32465,0 -0.50585,-0.18142 -0.50585,-0.51562 -1e-5,-0.382 0.19054,-0.51563 0.58203,-0.51563 z m 1.14648,1.00196 0,1.31836 0.62891,0 c 0.71615,0 1.04101,-0.14456 1.04101,-0.66016 0,-0.4774 -0.27755,-0.6582 -0.88867,-0.6582 l -0.78125,0 z" id="path9068" style="color:#000000;font-style:normal;font-variant:normal;font-weight:normal;font-stretch:normal;font-size:medium;line-height:normal;font-family:sans-serif;text-indent:0;text-align:start;text-decoration:none;text-decoration-line:none;text-decoration-style:solid;text-decoration-color:#000000;letter-spacing:normal;word-spacing:normal;text-transform:none;direction:ltr;block-progression:tb;writing-mode:lr-tb;baseline-shift:baseline;text-anchor:start;white-space:normal;clip-rule:nonzero;display:inline;overflow:visible;visibility:visible;opacity:1;isolation:auto;mix-blend-mode:normal;color-interpolation:sRGB;color-interpolation-filters:linearRGB;solid-color:#000000;solid-opacity:1;fill:#11c111;fill-opacity:1;fill-rule:nonzero;stroke:none;stroke-width:3;stroke-linecap:round;stroke-linejoin:round;stroke-miterlimit:4;stroke-dasharray:none;stroke-dashoffset:0;stroke-opacity:1;color-rendering:auto;image-rendering:auto;shape-rendering:auto;text-rendering:auto;enable-background:accumulate" transform="translate(0,1004.3622)"/></g></g></svg>