<?xml version="1.0" ?><svg height="48" id="svg6485" version="1.1" viewBox="0 0 48 48" width="48" xmlns="http://www.w3.org/2000/svg" xmlns:cc="http://creativecommons.org/ns#" xmlns:dc="http://purl.org/dc/elements/1.1/" xmlns:inkscape="http://www.inkscape.org/namespaces/inkscape" xmlns:rdf="http://www.w3.org/1999/02/22-rdf-syntax-ns#" xmlns:sodipodi="http://sodipodi.sourceforge.net/DTD/sodipodi-0.dtd" xmlns:svg="http://www.w3.org/2000/svg"><defs id="defs6487"><clipPath clipPathUnits="userSpaceOnUse" id="clipPath18427"><rect height="121.40158" id="rect18429" style="opacity:1;fill:#e9e9e9;fill-opacity:0.8041237;stroke:none;stroke-width:1;stroke-linecap:round;stroke-linejoin:round;stroke-miterlimit:4;stroke-dasharray:none;stroke-dashoffset:0;stroke-opacity:1;paint-order:fill markers stroke" width="88.351334" x="-269.08893" y="204.7206"/></clipPath><clipPath clipPathUnits="userSpaceOnUse" id="clipPath18443"><path d="m -222.26758,211.43642 a 31.996582,31.996582 0 0 0 -31.99804,31.99609 31.996582,31.996582 0 0 0 10.67773,23.81446 c -3.77662,1.10404 -6.52344,4.57592 -6.52344,8.71875 0,5.03653 4.05527,9.09179 9.0918,9.09179 l 7.63086,0 0,35.49219 c 0,1.71385 1.3799,3.09375 3.09375,3.09375 1.71385,0 3.0918,-1.3799 3.0918,-3.09375 l 0,-35.49219 1.59179,0 0,37.99219 c 0,1.71385 1.3799,3.09375 3.09375,3.09375 1.71385,0 3.09375,-1.3799 3.09375,-3.09375 l 0,-37.99219 1.625,0 0,35.49219 c 0,1.71385 1.3799,3.09375 3.09375,3.09375 1.71385,0 3.09375,-1.3799 3.09375,-3.09375 l 0,-35.49219 6.67969,0 c 5.03653,0 9.0918,-4.05526 9.0918,-9.09179 0,-3.7665 -2.26947,-6.98211 -5.51954,-8.36524 a 31.996582,31.996582 0 0 0 11.0879,-24.16797 31.996582,31.996582 0 0 0 -31.9961,-31.99609 z" id="path18445" style="opacity:1;fill:#e9e9e9;fill-opacity:0.8041237;stroke:none;stroke-width:1;stroke-linecap:round;stroke-linejoin:round;stroke-miterlimit:4;stroke-dasharray:none;stroke-dashoffset:0;stroke-opacity:1;paint-order:fill markers stroke"/></clipPath><clipPath clipPathUnits="userSpaceOnUse" id="clipPath5172"><rect height="32" id="rect5174" rx="0" ry="0" style="color:#000000;clip-rule:nonzero;display:inline;overflow:visible;visibility:visible;opacity:1;isolation:auto;mix-blend-mode:normal;color-interpolation:sRGB;color-interpolation-filters:linearRGB;solid-color:#000000;solid-opacity:1;fill:#000000;fill-opacity:0.51572331;fill-rule:nonzero;stroke:none;stroke-width:1;stroke-linecap:round;stroke-linejoin:round;stroke-miterlimit:4;stroke-dasharray:none;stroke-dashoffset:0;stroke-opacity:1;color-rendering:auto;image-rendering:auto;shape-rendering:auto;text-rendering:auto;enable-background:accumulate" width="32" x="0" y="1020.3622"/></clipPath><clipPath clipPathUnits="userSpaceOnUse" id="clipPath5284"><rect height="48" id="rect5286" style="color:#000000;clip-rule:nonzero;display:inline;overflow:visible;visibility:visible;opacity:1;isolation:auto;mix-blend-mode:normal;color-interpolation:sRGB;color-interpolation-filters:linearRGB;solid-color:#000000;solid-opacity:1;fill:#000000;fill-opacity:0.48427675;fill-rule:nonzero;stroke:none;stroke-width:0.40000001;stroke-linecap:round;stroke-linejoin:round;stroke-miterlimit:4;stroke-dasharray:none;stroke-dashoffset:0;stroke-opacity:1;color-rendering:auto;image-rendering:auto;shape-rendering:auto;text-rendering:auto;enable-background:accumulate" width="48" x="0" y="1004.3622"/></clipPath></defs><g id="layer1" style="display:inline" transform="translate(0,-1004.3622)"><g id="g6937" style="display:inline" transform="translate(-284.99997,-205.9995)"><path d="m 311,1212.3622 c -0.55401,0 -1,0.446 -1,1 l 0,1 c 0,0.554 0.44599,1 1,1 l 10.00391,0 0.0156,6.4844 c 0.002,0.8253 0.67075,1.4938 1.49609,1.4961 l 6.48437,0.017 0,28.502 c 0,0.8569 -0.64305,1.5 -1.5,1.5 l -23,0 c -0.85695,0 -1.5,-0.6431 -1.5,-1.5 l 0,-1.5 c 0,-0.554 -0.44599,-1 -1,-1 l -1,0 c -0.55401,0 -1,0.446 -1,1 l 0,1.5 c 0,2.4671 2.03295,4.5 4.5,4.5 l 23,0 c 2.46705,0 4.5,-2.0329 4.5,-4.5 l 0,-30.4863 c -8e-5,-0.3978 -0.15815,-0.7793 -0.43945,-1.0606 l -7.51368,-7.5136 c -0.28126,-0.2814 -0.66274,-0.4394 -1.06054,-0.4395 z m -11,21 c 0,0.554 0.44599,1 1,1 l 1,0 c 0.55401,0 1,-0.446 1,-1 l 0,-10 c 0,-0.554 -0.44599,-1 -1,-1 l -1,0 c -0.55401,0 -1,0.446 -1,1 z" id="path6607" style="color:#000000;font-style:normal;font-variant:normal;font-weight:normal;font-stretch:normal;font-size:medium;line-height:normal;font-family:sans-serif;text-indent:0;text-align:start;text-decoration:none;text-decoration-line:none;text-decoration-style:solid;text-decoration-color:#000000;letter-spacing:normal;word-spacing:normal;text-transform:none;direction:ltr;block-progression:tb;writing-mode:lr-tb;baseline-shift:baseline;text-anchor:start;white-space:normal;clip-rule:nonzero;display:inline;overflow:visible;visibility:visible;opacity:1;isolation:auto;mix-blend-mode:normal;color-interpolation:sRGB;color-interpolation-filters:linearRGB;solid-color:#000000;solid-opacity:1;fill:#242730;fill-opacity:1;fill-rule:nonzero;stroke:none;stroke-width:3;stroke-linecap:round;stroke-linejoin:round;stroke-miterlimit:4;stroke-dasharray:none;stroke-dashoffset:0;stroke-opacity:1;color-rendering:auto;image-rendering:auto;shape-rendering:auto;text-rendering:auto;enable-background:accumulate"/><path d="m 304.5,208 c -2.46705,0 -4.5,2.0329 -4.5,4.5 l 0,2.5 c 0,0.554 0.44599,1 1,1 l 1,0 c 0.55401,0 1,-0.446 1,-1 l 0,-2.5 c 0,-0.8569 0.64305,-1.5 1.5,-1.5 l 2.5,0 c 0.55401,0 1,-0.446 1,-1 l 0,-1 c 0,-0.554 -0.44599,-1 -1,-1 l -2.5,0 z M 289,232 c -1.10801,0 -2,0.892 -2,2 l 0,7 c 0,1.108 0.89199,2 2,2 l 25,0 c 1.10801,0 2,-0.892 2,-2 l 0,-7 c 0,-1.108 -0.89199,-2 -2,-2 l -25,0 z m 4.79297,2.74023 0.87891,0 0.27734,0 c 0.88803,0 1.62433,0.02 2.19726,0.36329 0.73525,0.4488 1.16211,1.28888 1.16211,2.39648 0,1.1554 -0.48566,2.04312 -1.3164,2.48242 -0.48699,0.2672 -1.08832,0.28516 -1.79492,0.28516 l -0.52539,0 -0.87891,0 c -0.3915,0 -0.58985,-0.12413 -0.58985,-0.51563 10e-6,-0.3342 0.17947,-0.50586 0.51368,-0.50586 l 0.0781,0 0,-3.47461 -0.0781,0 c -0.33421,0 -0.51368,-0.18142 -0.51368,-0.51562 10e-6,-0.382 0.1888,-0.51563 0.58985,-0.51563 z m 5.74414,0 3.82031,0 c 0.39143,0 0.48633,0.095 0.48633,0.42969 l 0,1.04102 c 0,0.4011 -0.12369,0.59179 -0.49609,0.59179 -0.38195,0 -0.50586,-0.20029 -0.50586,-0.59179 l 0,-0.48828 -2.16797,0 0,1.19336 0.81055,0 0,-0.0566 c 0,-0.3533 0.1634,-0.5254 0.47851,-0.5254 0.35331,0 0.48633,0.19249 0.48633,0.58399 l 0,0.96289 c 0,0.3915 -0.12326,0.58398 -0.47656,0.58398 -0.31511,0 -0.47852,-0.16384 -0.47852,-0.49804 l 0,-0.0859 -0.82031,0 0,1.39453 2.16797,0 0,-0.55469 c 0,-0.401 0.13346,-0.58203 0.50586,-0.58203 0.38195,0 0.49609,0.19053 0.49609,0.58203 l 0,1.12696 c 0,0.3339 -0.0948,0.41992 -0.48633,0.41992 l -3.82031,0 c -0.38194,0 -0.57227,-0.13363 -0.57227,-0.51563 0,-0.3246 0.18099,-0.50586 0.4961,-0.50586 l 0.0762,0 0,-3.47461 -0.0644,0 c -0.32466,0 -0.50782,-0.18142 -0.50782,-0.51562 0,-0.3724 0.19032,-0.51563 0.57227,-0.51563 z m 5.74609,0 2.14649,0 c 1.33682,0 2.00586,0.54315 2.00586,1.49805 0,0.487 -0.20855,0.86091 -0.61914,1.09961 0.67795,0.2482 0.98047,0.66754 0.98047,1.33594 -10e-6,0.487 -0.20811,0.92665 -0.59961,1.22265 -0.45833,0.3431 -0.96636,0.3711 -1.54883,0.3711 l -0.32422,0 -2.04102,0 c -0.3915,0 -0.58398,-0.13363 -0.58398,-0.51563 0,-0.3342 0.1812,-0.50586 0.50586,-0.50586 l 0.0781,0 0,-3.47461 -0.0781,0 c -0.32466,0 -0.50586,-0.18142 -0.50586,-0.51562 0,-0.382 0.19248,-0.51563 0.58398,-0.51563 z m -10.00976,1.00196 c -0.0859,0 -0.18185,-4.4e-4 -0.27735,0.01 l 0,3.48438 c 0.0955,0.01 0.18364,0.01 0.26953,0.01 1.16495,0 1.70704,-0.55276 1.70704,-1.75586 0,-1.1745 -0.55338,-1.74804 -1.69922,-1.74804 z m 11.16601,0 0,1.17383 0.61914,0 c 0.70661,0 1.05079,-0.1334 1.05079,-0.5918 0,-0.4201 -0.28732,-0.58203 -0.89844,-0.58203 l -0.77149,0 z m 0,2.11133 0,1.42187 0.69532,0 c 0.89758,0 1.3457,-0.15323 1.3457,-0.70703 0,-0.5825 -0.43749,-0.71484 -1.29688,-0.71484 l -0.74414,0 z" id="path6609" style="color:#000000;font-style:normal;font-variant:normal;font-weight:normal;font-stretch:normal;font-size:medium;line-height:normal;font-family:sans-serif;text-indent:0;text-align:start;text-decoration:none;text-decoration-line:none;text-decoration-style:solid;text-decoration-color:#000000;letter-spacing:normal;word-spacing:normal;text-transform:none;direction:ltr;block-progression:tb;writing-mode:lr-tb;baseline-shift:baseline;text-anchor:start;white-space:normal;clip-rule:nonzero;display:inline;overflow:visible;visibility:visible;opacity:1;isolation:auto;mix-blend-mode:normal;color-interpolation:sRGB;color-interpolation-filters:linearRGB;solid-color:#000000;solid-opacity:1;fill:#11c111;fill-opacity:1;fill-rule:nonzero;stroke:none;stroke-width:3;stroke-linecap:round;stroke-linejoin:round;stroke-miterlimit:4;stroke-dasharray:none;stroke-dashoffset:0;stroke-opacity:1;color-rendering:auto;image-rendering:auto;shape-rendering:auto;text-rendering:auto;enable-background:accumulate" transform="translate(0,1004.3622)"/></g></g></svg>