<?xml version="1.0" encoding="utf-8"?>
<!-- Generator: Adobe Illustrator 23.0.4, SVG Export Plug-In . SVG Version: 6.00 Build 0)  -->
<svg version="1.1"
	 id="svg6485" xmlns:cc="http://creativecommons.org/ns#" xmlns:dc="http://purl.org/dc/elements/1.1/" xmlns:inkscape="http://www.inkscape.org/namespaces/inkscape" xmlns:rdf="http://www.w3.org/1999/02/22-rdf-syntax-ns#" xmlns:sodipodi="http://sodipodi.sourceforge.net/DTD/sodipodi-0.dtd" xmlns:svg="http://www.w3.org/2000/svg"
	 xmlns="http://www.w3.org/2000/svg" xmlns:xlink="http://www.w3.org/1999/xlink" x="0px" y="0px" viewBox="0 0 48 48"
	 style="enable-background:new 0 0 48 48;" xml:space="preserve">
<style type="text/css">
	.st0{fill:#11C111;}
	.st1{fill:#242730;}
</style>
<path class="st0" d="M8.8,7.4c-2.5,0-4.5,2-4.5,4.5v2.5c0,0.6,0.4,1,1,1h1c0.6,0,1-0.4,1-1v-2.5c0-0.9,0.6-1.5,1.5-1.5h2.5
	c0.6,0,1-0.4,1-1v-1c0-0.6-0.4-1-1-1C11.3,7.4,8.8,7.4,8.8,7.4z"/>
<path class="st1" d="M43.8,17.9v18.4c0,2.5-2,4.5-4.5,4.5H8.8c-2.5,0-4.5-2-4.5-4.5V18.4c0-0.6,0.5-1,1-1h1c0.6,0,1,0.4,1,1v1.8
	h33.5v-2.3c0-0.8-0.7-1.5-1.5-1.5H23.8c-0.5,0-1-0.1-1.5-0.3c-0.5-0.1-0.9-0.4-1.3-0.7c-1.1-0.8-1.7-2.1-1.7-3.5
	c0-0.9-0.7-1.5-1.5-1.5h-2.5c-0.6,0-1-0.4-1-1v-1c0-0.5,0.4-1,1-1h2.5c1,0,2,0.4,2.8,1c0.5,0.4,0.9,1,1.2,1.7
	c0.3,0.7,0.5,1.3,0.5,1.8c0,0.9,0.6,1.5,1.5,1.5h15.4C41.7,13.4,43.7,15.4,43.8,17.9z"/>
</svg>
