<?xml version="1.0" ?><svg height="48" id="svg6485" version="1.1" viewBox="0 0 48 48" width="48" xmlns="http://www.w3.org/2000/svg" xmlns:cc="http://creativecommons.org/ns#" xmlns:dc="http://purl.org/dc/elements/1.1/" xmlns:inkscape="http://www.inkscape.org/namespaces/inkscape" xmlns:rdf="http://www.w3.org/1999/02/22-rdf-syntax-ns#" xmlns:sodipodi="http://sodipodi.sourceforge.net/DTD/sodipodi-0.dtd" xmlns:svg="http://www.w3.org/2000/svg"><defs id="defs6487"><clipPath clipPathUnits="userSpaceOnUse" id="clipPath18427"><rect height="121.40158" id="rect18429" style="opacity:1;fill:#e9e9e9;fill-opacity:0.8041237;stroke:none;stroke-width:1;stroke-linecap:round;stroke-linejoin:round;stroke-miterlimit:4;stroke-dasharray:none;stroke-dashoffset:0;stroke-opacity:1;paint-order:fill markers stroke" width="88.351334" x="-269.08893" y="204.7206"/></clipPath><clipPath clipPathUnits="userSpaceOnUse" id="clipPath18443"><path d="m -222.26758,211.43642 a 31.996582,31.996582 0 0 0 -31.99804,31.99609 31.996582,31.996582 0 0 0 10.67773,23.81446 c -3.77662,1.10404 -6.52344,4.57592 -6.52344,8.71875 0,5.03653 4.05527,9.09179 9.0918,9.09179 l 7.63086,0 0,35.49219 c 0,1.71385 1.3799,3.09375 3.09375,3.09375 1.71385,0 3.0918,-1.3799 3.0918,-3.09375 l 0,-35.49219 1.59179,0 0,37.99219 c 0,1.71385 1.3799,3.09375 3.09375,3.09375 1.71385,0 3.09375,-1.3799 3.09375,-3.09375 l 0,-37.99219 1.625,0 0,35.49219 c 0,1.71385 1.3799,3.09375 3.09375,3.09375 1.71385,0 3.09375,-1.3799 3.09375,-3.09375 l 0,-35.49219 6.67969,0 c 5.03653,0 9.0918,-4.05526 9.0918,-9.09179 0,-3.7665 -2.26947,-6.98211 -5.51954,-8.36524 a 31.996582,31.996582 0 0 0 11.0879,-24.16797 31.996582,31.996582 0 0 0 -31.9961,-31.99609 z" id="path18445" style="opacity:1;fill:#e9e9e9;fill-opacity:0.8041237;stroke:none;stroke-width:1;stroke-linecap:round;stroke-linejoin:round;stroke-miterlimit:4;stroke-dasharray:none;stroke-dashoffset:0;stroke-opacity:1;paint-order:fill markers stroke"/></clipPath><clipPath clipPathUnits="userSpaceOnUse" id="clipPath5172"><rect height="32" id="rect5174" rx="0" ry="0" style="color:#000000;clip-rule:nonzero;display:inline;overflow:visible;visibility:visible;opacity:1;isolation:auto;mix-blend-mode:normal;color-interpolation:sRGB;color-interpolation-filters:linearRGB;solid-color:#000000;solid-opacity:1;fill:#000000;fill-opacity:0.51572331;fill-rule:nonzero;stroke:none;stroke-width:1;stroke-linecap:round;stroke-linejoin:round;stroke-miterlimit:4;stroke-dasharray:none;stroke-dashoffset:0;stroke-opacity:1;color-rendering:auto;image-rendering:auto;shape-rendering:auto;text-rendering:auto;enable-background:accumulate" width="32" x="0" y="1020.3622"/></clipPath><clipPath clipPathUnits="userSpaceOnUse" id="clipPath5284"><rect height="48" id="rect5286" style="color:#000000;clip-rule:nonzero;display:inline;overflow:visible;visibility:visible;opacity:1;isolation:auto;mix-blend-mode:normal;color-interpolation:sRGB;color-interpolation-filters:linearRGB;solid-color:#000000;solid-opacity:1;fill:#000000;fill-opacity:0.48427675;fill-rule:nonzero;stroke:none;stroke-width:0.40000001;stroke-linecap:round;stroke-linejoin:round;stroke-miterlimit:4;stroke-dasharray:none;stroke-dashoffset:0;stroke-opacity:1;color-rendering:auto;image-rendering:auto;shape-rendering:auto;text-rendering:auto;enable-background:accumulate" width="48" x="0" y="1004.3622"/></clipPath></defs><g id="layer1" style="display:inline" transform="translate(0,-1004.3622)"><g id="g8222" style="display:inline" transform="translate(-368.99997,-455.9995)"><path d="m 395,1462.3622 c -0.55401,0 -1,0.446 -1,1 l 0,1 c 0,0.554 0.44599,1 1,1 l 10.00391,0 0.0156,6.4844 c 0.002,0.8253 0.67075,1.4938 1.49609,1.4961 l 6.48437,0.017 0,28.502 c 0,0.8569 -0.64305,1.5 -1.5,1.5 l -23,0 c -0.85695,0 -1.5,-0.6431 -1.5,-1.5 l 0,-1.5 c 0,-0.554 -0.44599,-1 -1,-1 l -1,0 c -0.55401,0 -1,0.446 -1,1 l 0,1.5 c 0,2.4671 2.03295,4.5 4.5,4.5 l 23,0 c 2.46705,0 4.5,-2.0329 4.5,-4.5 l 0,-30.4863 c -8e-5,-0.3978 -0.15815,-0.7793 -0.43945,-1.0606 l -7.51368,-7.5136 c -0.28126,-0.2814 -0.66274,-0.4394 -1.06054,-0.4395 z m -11,21 c 0,0.554 0.44599,1 1,1 l 1,0 c 0.55401,0 1,-0.446 1,-1 l 0,-10 c 0,-0.554 -0.44599,-1 -1,-1 l -1,0 c -0.55401,0 -1,0.446 -1,1 z" id="path7360" style="color:#000000;font-style:normal;font-variant:normal;font-weight:normal;font-stretch:normal;font-size:medium;line-height:normal;font-family:sans-serif;text-indent:0;text-align:start;text-decoration:none;text-decoration-line:none;text-decoration-style:solid;text-decoration-color:#000000;letter-spacing:normal;word-spacing:normal;text-transform:none;direction:ltr;block-progression:tb;writing-mode:lr-tb;baseline-shift:baseline;text-anchor:start;white-space:normal;clip-rule:nonzero;display:inline;overflow:visible;visibility:visible;opacity:1;isolation:auto;mix-blend-mode:normal;color-interpolation:sRGB;color-interpolation-filters:linearRGB;solid-color:#000000;solid-opacity:1;fill:#242730;fill-opacity:1;fill-rule:nonzero;stroke:none;stroke-width:3;stroke-linecap:round;stroke-linejoin:round;stroke-miterlimit:4;stroke-dasharray:none;stroke-dashoffset:0;stroke-opacity:1;color-rendering:auto;image-rendering:auto;shape-rendering:auto;text-rendering:auto;enable-background:accumulate"/><path d="m 388.5,458 c -2.46705,0 -4.5,2.0329 -4.5,4.5 l 0,2.5 c 0,0.554 0.44599,1 1,1 l 1,0 c 0.55401,0 1,-0.446 1,-1 l 0,-2.5 c 0,-0.8569 0.64305,-1.5 1.5,-1.5 l 2.5,0 c 0.55401,0 1,-0.446 1,-1 l 0,-1 c 0,-0.554 -0.44599,-1 -1,-1 l -2.5,0 z M 373,482 c -1.10801,0 -2,0.892 -2,2 l 0,7 c 0,1.108 0.89199,2 2,2 l 25,0 c 1.10801,0 2,-0.892 2,-2 l 0,-7 c 0,-1.108 -0.89199,-2 -2,-2 l -25,0 z m 2.18359,3.39258 c 0.32481,0 0.63509,0.076 0.9668,0.2207 0.0829,-0.1522 0.15851,-0.21484 0.31055,-0.21484 0.21428,0 0.31054,0.091 0.31054,0.38086 l 0.008,0.87695 c 0,0.2903 -0.0682,0.39453 -0.35157,0.39453 -0.20732,0 -0.29131,-0.10406 -0.35351,-0.31836 -0.11058,-0.3939 -0.31103,-0.60156 -0.8086,-0.60156 -0.68414,0 -1.07031,0.47074 -1.07031,1.36914 0,0.8984 0.4144,1.38867 1.10547,1.38867 0.17276,0 0.38689,-0.041 0.64258,-0.11719 l 0,-0.52539 -0.38086,0 c -0.28334,0 -0.42188,-0.09 -0.42188,-0.37304 3e-5,-0.2832 0.13854,-0.37305 0.42188,-0.37305 l 1.2168,0 c 0.28334,0 0.42773,0.075 0.42773,0.36523 0,0.2419 -0.13117,0.375 -0.37305,0.375 l -0.0547,0 0,0.80079 0,0.041 c 0,0.1244 -0.007,0.16538 -0.11719,0.23438 -0.18659,0.1106 -0.761,0.29101 -1.45899,0.29101 -1.18862,0 -1.98242,-0.86352 -1.98242,-2.10742 0,-1.1817 0.80881,-2.10742 1.96289,-2.10742 z m 12.47071,0 c 0.32421,0 0.63575,0.076 0.96679,0.2207 0.0829,-0.1522 0.16047,-0.21484 0.3125,-0.21484 0.21428,0 0.31055,0.091 0.31055,0.38086 l 0.008,0.87695 c 0,0.2903 -0.0702,0.39453 -0.35351,0.39453 -0.20732,0 -0.28936,-0.10406 -0.35156,-0.31836 -0.1106,-0.3939 -0.31103,-0.60156 -0.8086,-0.60156 -0.68416,0 -1.07226,0.47074 -1.07226,1.36914 0,0.8984 0.41439,1.38867 1.10546,1.38867 0.17277,0 0.38688,-0.041 0.64258,-0.11719 l 0,-0.52539 -0.3789,0 c -0.28334,0 -0.42188,-0.09 -0.42188,-0.37304 0,-0.2832 0.13854,-0.37305 0.42188,-0.37305 l 1.21679,0 c 0.28334,0 0.42774,0.075 0.42774,0.36523 0,0.2419 -0.13118,0.375 -0.37305,0.375 l -0.0547,0 0,0.80079 0,0.041 c 0,0.1244 -0.009,0.16538 -0.11914,0.23438 -0.18659,0.1106 -0.75905,0.29101 -1.45703,0.29101 -1.18864,0 -1.98437,-0.86352 -1.98437,-2.10742 0,-1.1817 0.8088,-2.10742 1.96289,-2.10742 z m 6.80859,0.10156 2.90234,0 c 0.35249,0 0.36706,0.083 0.38086,0.42188 l 0.0332,1.00976 0,0.0273 c 0,0.26951 -0.0968,0.4004 -0.35938,0.4004 -0.20732,0 -0.33789,-0.14501 -0.33789,-0.28321 0,-0.021 -0.008,-0.061 -0.008,-0.14453 l -0.0195,-0.68359 -0.70508,0 0,2.51562 0.56641,0 c 0.28334,0 0.42187,0.0899 0.42187,0.37305 0,0.2627 -0.13162,0.37305 -0.42187,0.37305 l -2.00391,0 c -0.29025,0 -0.42969,-0.11035 -0.42969,-0.37305 0,-0.2831 0.14635,-0.37305 0.42969,-0.37305 l 0.56641,0 0,-2.51562 -0.70508,0 -0.0215,0.68359 0,0.084 c 0,0.2142 -0.12366,0.34375 -0.33789,0.34375 -0.26261,0 -0.36719,-0.1309 -0.36718,-0.4004 l 0,-0.0273 0.0351,-1.00976 c 0.0138,-0.3386 0.0284,-0.42188 0.38086,-0.42188 z m -16.23437,0.01 1.26367,0 c 0.30407,0 0.33207,0.083 0.42187,0.33203 l 1.07032,2.92968 0.0566,0 c 0.24188,0 0.37304,0.12539 0.37304,0.36719 0,0.2832 -0.14635,0.37305 -0.42968,0.37305 l -1.01563,0 c -0.28334,0 -0.42773,-0.09 -0.42773,-0.37305 0,-0.2832 0.14439,-0.36719 0.42773,-0.36719 l 0.11719,0 -0.13672,-0.39257 -1.45899,0 -0.14453,0.39257 0.11719,0 c 0.28334,0 0.42773,0.084 0.42773,0.36719 10e-6,0.2832 -0.14439,0.37305 -0.42773,0.37305 l -0.87109,0 c -0.28334,0 -0.42774,-0.09 -0.42774,-0.37305 0,-0.2418 0.13118,-0.36719 0.37305,-0.36719 l 0.0547,0 0.90429,-2.51562 -0.27539,0 c -0.28334,0 -0.42187,-0.0899 -0.42187,-0.37305 0,-0.2762 0.13944,-0.37304 0.42969,-0.37304 z m 3.78906,0 0.63672,0 0.20117,0 c 0.6427,0 1.17324,0.0151 1.58789,0.26367 0.53212,0.3248 0.84375,0.93277 0.84375,1.73437 0,0.8362 -0.35189,1.47898 -0.95313,1.79688 -0.35244,0.1933 -0.78743,0.20703 -1.29882,0.20703 l -0.38086,0 -0.63672,0 c -0.28334,0 -0.42774,-0.09 -0.42774,-0.37305 0,-0.2418 0.13118,-0.36719 0.37305,-0.36719 l 0.0547,0 0,-2.51562 -0.0547,0 c -0.24187,0 -0.37305,-0.13115 -0.37305,-0.37305 0,-0.2762 0.13749,-0.37304 0.42774,-0.37304 z m 8.31445,0 2.76563,0 c 0.28335,0 0.35156,0.071 0.35156,0.3125 l 0,0.75195 c 0,0.2902 -0.0899,0.42969 -0.35938,0.42969 -0.27646,0 -0.36523,-0.14639 -0.36523,-0.42969 l 0,-0.35156 -1.56836,0 0,0.86328 0.58594,0 0,-0.041 c 0,-0.2557 0.11765,-0.38086 0.3457,-0.38086 0.25575,0 0.35352,0.13848 0.35352,0.42188 l 0,0.69726 c 0,0.2834 -0.09,0.42188 -0.34571,0.42188 -0.22805,0 -0.3457,-0.11748 -0.3457,-0.35938 l 0,-0.0625 -0.59375,0 0,1.00977 1.56836,0 0,-0.40039 c 0,-0.2903 0.0957,-0.42188 0.36523,-0.42188 0.27646,0 0.35938,0.13848 0.35938,0.42188 l 0,0.81445 c 0,0.242 -0.0682,0.30469 -0.35156,0.30469 l -2.76563,0 c -0.27643,0 -0.41406,-0.096 -0.41406,-0.37305 0,-0.2349 0.13131,-0.36719 0.35937,-0.36719 l 0.0547,0 0,-2.51562 -0.0469,0 c -0.23497,0 -0.36719,-0.13115 -0.36719,-0.37305 0,-0.2695 0.13763,-0.37304 0.41406,-0.37304 z m -7.24219,0.72265 c -0.0622,0 -0.13207,-4.3e-4 -0.20117,0.01 l 0,2.51758 c 0.0691,0.01 0.13116,0.01 0.19336,0.01 0.8431,0 1.23828,-0.40068 1.23828,-1.27148 0,-0.85 -0.40119,-1.26563 -1.23047,-1.26563 z m -3.875,0.0234 -0.49023,1.42383 0.98242,0 -0.49219,-1.42383 z" id="path7362" style="color:#000000;font-style:normal;font-variant:normal;font-weight:normal;font-stretch:normal;font-size:medium;line-height:normal;font-family:sans-serif;text-indent:0;text-align:start;text-decoration:none;text-decoration-line:none;text-decoration-style:solid;text-decoration-color:#000000;letter-spacing:normal;word-spacing:normal;text-transform:none;direction:ltr;block-progression:tb;writing-mode:lr-tb;baseline-shift:baseline;text-anchor:start;white-space:normal;clip-rule:nonzero;display:inline;overflow:visible;visibility:visible;opacity:1;isolation:auto;mix-blend-mode:normal;color-interpolation:sRGB;color-interpolation-filters:linearRGB;solid-color:#000000;solid-opacity:1;fill:#11c111;fill-opacity:1;fill-rule:nonzero;stroke:none;stroke-width:3;stroke-linecap:round;stroke-linejoin:round;stroke-miterlimit:4;stroke-dasharray:none;stroke-dashoffset:0;stroke-opacity:1;color-rendering:auto;image-rendering:auto;shape-rendering:auto;text-rendering:auto;enable-background:accumulate" transform="translate(0,1004.3622)"/></g></g></svg>