<?xml version="1.0" ?><svg height="48" id="svg6485" version="1.1" viewBox="0 0 48 48" width="48" xmlns="http://www.w3.org/2000/svg" xmlns:cc="http://creativecommons.org/ns#" xmlns:dc="http://purl.org/dc/elements/1.1/" xmlns:inkscape="http://www.inkscape.org/namespaces/inkscape" xmlns:rdf="http://www.w3.org/1999/02/22-rdf-syntax-ns#" xmlns:sodipodi="http://sodipodi.sourceforge.net/DTD/sodipodi-0.dtd" xmlns:svg="http://www.w3.org/2000/svg"><defs id="defs6487"><clipPath clipPathUnits="userSpaceOnUse" id="clipPath18427"><rect height="121.40158" id="rect18429" style="opacity:1;fill:#e9e9e9;fill-opacity:0.8041237;stroke:none;stroke-width:1;stroke-linecap:round;stroke-linejoin:round;stroke-miterlimit:4;stroke-dasharray:none;stroke-dashoffset:0;stroke-opacity:1;paint-order:fill markers stroke" width="88.351334" x="-269.08893" y="204.7206"/></clipPath><clipPath clipPathUnits="userSpaceOnUse" id="clipPath18443"><path d="m -222.26758,211.43642 a 31.996582,31.996582 0 0 0 -31.99804,31.99609 31.996582,31.996582 0 0 0 10.67773,23.81446 c -3.77662,1.10404 -6.52344,4.57592 -6.52344,8.71875 0,5.03653 4.05527,9.09179 9.0918,9.09179 l 7.63086,0 0,35.49219 c 0,1.71385 1.3799,3.09375 3.09375,3.09375 1.71385,0 3.0918,-1.3799 3.0918,-3.09375 l 0,-35.49219 1.59179,0 0,37.99219 c 0,1.71385 1.3799,3.09375 3.09375,3.09375 1.71385,0 3.09375,-1.3799 3.09375,-3.09375 l 0,-37.99219 1.625,0 0,35.49219 c 0,1.71385 1.3799,3.09375 3.09375,3.09375 1.71385,0 3.09375,-1.3799 3.09375,-3.09375 l 0,-35.49219 6.67969,0 c 5.03653,0 9.0918,-4.05526 9.0918,-9.09179 0,-3.7665 -2.26947,-6.98211 -5.51954,-8.36524 a 31.996582,31.996582 0 0 0 11.0879,-24.16797 31.996582,31.996582 0 0 0 -31.9961,-31.99609 z" id="path18445" style="opacity:1;fill:#e9e9e9;fill-opacity:0.8041237;stroke:none;stroke-width:1;stroke-linecap:round;stroke-linejoin:round;stroke-miterlimit:4;stroke-dasharray:none;stroke-dashoffset:0;stroke-opacity:1;paint-order:fill markers stroke"/></clipPath><clipPath clipPathUnits="userSpaceOnUse" id="clipPath5172"><rect height="32" id="rect5174" rx="0" ry="0" style="color:#000000;clip-rule:nonzero;display:inline;overflow:visible;visibility:visible;opacity:1;isolation:auto;mix-blend-mode:normal;color-interpolation:sRGB;color-interpolation-filters:linearRGB;solid-color:#000000;solid-opacity:1;fill:#000000;fill-opacity:0.51572331;fill-rule:nonzero;stroke:none;stroke-width:1;stroke-linecap:round;stroke-linejoin:round;stroke-miterlimit:4;stroke-dasharray:none;stroke-dashoffset:0;stroke-opacity:1;color-rendering:auto;image-rendering:auto;shape-rendering:auto;text-rendering:auto;enable-background:accumulate" width="32" x="0" y="1020.3622"/></clipPath><clipPath clipPathUnits="userSpaceOnUse" id="clipPath5284"><rect height="48" id="rect5286" style="color:#000000;clip-rule:nonzero;display:inline;overflow:visible;visibility:visible;opacity:1;isolation:auto;mix-blend-mode:normal;color-interpolation:sRGB;color-interpolation-filters:linearRGB;solid-color:#000000;solid-opacity:1;fill:#000000;fill-opacity:0.48427675;fill-rule:nonzero;stroke:none;stroke-width:0.40000001;stroke-linecap:round;stroke-linejoin:round;stroke-miterlimit:4;stroke-dasharray:none;stroke-dashoffset:0;stroke-opacity:1;color-rendering:auto;image-rendering:auto;shape-rendering:auto;text-rendering:auto;enable-background:accumulate" width="48" x="0" y="1004.3622"/></clipPath></defs><g id="layer1" style="display:inline" transform="translate(0,-1004.3622)"><g id="g11201" style="display:inline" transform="translate(-266.0004,-305.9995)"><path d="m 291,1312.3622 c -0.554,0 -1,0.446 -1,1 l 0,1 c 0,0.554 0.446,1 1,1 l 10.0039,0 0.016,6.4844 c 0,0.8253 0.6708,1.4938 1.4961,1.4961 l 6.4844,0.017 0,28.502 c 0,0.8569 -0.6431,1.5 -1.5,1.5 l -23,0 c -0.857,0 -1.5,-0.6431 -1.5,-1.5 l 0,-1.5 c 0,-0.554 -0.446,-1 -1,-1 l -1,0 c -0.554,0 -1,0.446 -1,1 l 0,1.5 c 0,2.4671 2.0329,4.5 4.5,4.5 l 23,0 c 2.467,0 4.5,-2.0329 4.5,-4.5 l 0,-30.4863 c -1e-4,-0.3978 -0.1582,-0.7793 -0.4395,-1.0606 l -7.5137,-7.5136 c -0.2812,-0.2814 -0.6627,-0.4394 -1.0605,-0.4395 z m -11,21 c 0,0.554 0.446,1 1,1 l 1,0 c 0.554,0 1,-0.446 1,-1 l 0,-10 c 0,-0.554 -0.446,-1 -1,-1 l -1,0 c -0.554,0 -1,0.446 -1,1 z" id="path9190" style="color:#000000;font-style:normal;font-variant:normal;font-weight:normal;font-stretch:normal;font-size:medium;line-height:normal;font-family:sans-serif;text-indent:0;text-align:start;text-decoration:none;text-decoration-line:none;text-decoration-style:solid;text-decoration-color:#000000;letter-spacing:normal;word-spacing:normal;text-transform:none;direction:ltr;block-progression:tb;writing-mode:lr-tb;baseline-shift:baseline;text-anchor:start;white-space:normal;clip-rule:nonzero;display:inline;overflow:visible;visibility:visible;opacity:1;isolation:auto;mix-blend-mode:normal;color-interpolation:sRGB;color-interpolation-filters:linearRGB;solid-color:#000000;solid-opacity:1;fill:#242730;fill-opacity:1;fill-rule:nonzero;stroke:none;stroke-width:3;stroke-linecap:round;stroke-linejoin:round;stroke-miterlimit:4;stroke-dasharray:none;stroke-dashoffset:0;stroke-opacity:1;color-rendering:auto;image-rendering:auto;shape-rendering:auto;text-rendering:auto;enable-background:accumulate"/><path d="m 284.5,308 c -2.467,0 -4.5,2.0329 -4.5,4.5 l 0,2.5 c 0,0.554 0.446,1 1,1 l 1,0 c 0.554,0 1,-0.446 1,-1 l 0,-2.5 c 0,-0.8569 0.6431,-1.5 1.5,-1.5 l 2.5,0 c 0.554,0 1,-0.446 1,-1 l 0,-1 c 0,-0.554 -0.446,-1 -1,-1 l -2.5,0 z M 269,332 c -1.10801,0 -2,0.892 -2,2 l 0,7 c 0,1.108 0.89199,2 2,2 l 25,0 c 1.10801,0 2,-0.892 2,-2 l 0,-7 c 0,-1.108 -0.89199,-2 -2,-2 l -25,0 z m 9.80469,2.23438 c 1.19359,0 1.91015,0.70555 1.91015,1.75585 0,0.7257 -0.36436,1.36616 -1.09961,2.00586 l -1.41211,1.22266 1.63282,0 c 0,-0.3342 0.16211,-0.49609 0.50586,-0.49609 0.28647,0 0.42968,0.17205 0.42968,0.43945 l 0,0.0566 -0.0371,0.72461 c -0.01,0.2196 -0.0291,0.32617 -0.27735,0.32617 l -3.35156,0 c -0.36285,0 -0.56445,-0.16272 -0.56445,-0.44922 0,-0.2387 0.125,-0.45873 0.38281,-0.70703 l 1.90039,-1.83398 c 0.40104,-0.3915 0.61133,-0.79236 0.61133,-1.19336 0,-0.5538 -0.27821,-0.83008 -0.83203,-0.83008 -0.33421,0 -0.57162,0.10544 -0.71485,0.27734 -0.19097,0.2387 -0.25846,0.5625 -0.63086,0.5625 -0.31511,0 -0.46875,-0.20073 -0.46875,-0.61132 0,-0.4106 0.077,-0.57294 0.37305,-0.77344 0.49653,-0.3247 1.01237,-0.47656 1.64258,-0.47656 z m 6.84179,0 c 0.61112,0 0.90821,0.0861 0.90821,0.34374 0,0.5345 -0.32616,0.4101 -1.09961,0.4961 -0.98352,0.1051 -1.52734,0.70679 -1.78516,1.90039 0.29601,-0.3437 0.73567,-0.53516 1.22266,-0.53516 0.99306,0 1.77539,0.85963 1.77539,1.98633 0,1.165 -0.81053,1.98633 -2.09961,1.98633 -1.28908,0 -2.13086,-0.98433 -2.13086,-2.70313 0,-2.1007 1.28014,-3.4746 3.20898,-3.4746 z m 4.79883,0.01 c 0.0382,0 0.0871,0.01 0.13477,0.0195 l 0.83008,0.14258 c 0.0955,0.019 0.14257,0.097 0.14257,0.24023 l 0,3.29297 c 0.0287,0.01 0.0476,0.0117 0.0762,0.0117 0.18143,0 0.24999,-0.24023 0.42187,-0.24023 0.24826,0 0.41992,0.13434 0.41992,0.37304 0,0.057 -0.0102,0.12464 -0.0293,0.18164 l -0.10547,0.34376 c -0.0382,0.1339 -0.12411,0.1914 -0.25782,0.1914 l -0.52539,0 0,0.58399 0.27735,0 c 0.39149,0 0.5918,0.11306 0.5918,0.44726 -3e-5,0.3342 -0.20031,0.4375 -0.5918,0.4375 l -1.9668,0 c -0.3915,0 -0.58203,-0.1033 -0.58203,-0.4375 0,-0.3342 0.19053,-0.44726 0.58203,-0.44726 l 0.67774,0 0,-0.58399 -2.14844,0 c -0.15277,0 -0.24805,-0.096 -0.24805,-0.28711 l 0,-0.28711 c 0,-0.1528 6.6e-4,-0.27579 0.11524,-0.46679 l 1.95703,-3.33399 c 0.0764,-0.1334 0.12348,-0.18164 0.22851,-0.18164 z m -19.33203,0.49805 1.20313,0 c 0.40105,0 0.59179,0.13362 0.59179,0.51562 0,0.3342 -0.18142,0.51563 -0.51562,0.51563 l -0.0762,0 0,1.06836 1.52734,0 0,-1.06836 -0.0762,0 c -0.3342,0 -0.51563,-0.18143 -0.51563,-0.51563 0,-0.382 0.19076,-0.51562 0.5918,-0.51562 l 1.20313,0 c 0.40104,0 0.57226,0.13362 0.57226,0.51562 0,0.3342 -0.16188,0.51563 -0.49609,0.51563 l -0.0762,0 0,3.47461 0.0762,0 c 0.33421,0 0.49609,0.17166 0.49609,0.50586 0,0.3915 -0.18076,0.51562 -0.57226,0.51562 l -1.20313,0 c -0.39149,0 -0.5918,-0.12412 -0.5918,-0.51562 0,-0.3342 0.18143,-0.50586 0.51563,-0.50586 l 0.0762,0 0,-1.375 -1.52734,0 0,1.375 0.0762,0 c 0.3342,0 0.51562,0.17166 0.51562,0.50586 0,0.3915 -0.20029,0.51562 -0.59179,0.51562 l -1.20313,0 c -0.3915,0 -0.58398,-0.12412 -0.58398,-0.51562 0,-0.3342 0.17166,-0.50586 0.50586,-0.50586 l 0.0781,0 0,-3.47461 -0.0781,0 c -0.3342,0 -0.50586,-0.18143 -0.50586,-0.51563 0,-0.382 0.18293,-0.51562 0.58398,-0.51562 z m 19.42774,0.62109 -1.46094,2.57813 1.46094,0 0,-2.57813 z m -5.95313,2.09961 c -0.50609,0 -0.89844,0.41164 -0.89844,0.99414 0,0.6397 0.41037,1.04883 0.93555,1.04883 0.49653,0 0.85938,-0.39085 0.85938,-1.00195 -10e-6,-0.6111 -0.38086,-1.04102 -0.89649,-1.04102 z" id="path9192" style="color:#000000;font-style:normal;font-variant:normal;font-weight:normal;font-stretch:normal;font-size:medium;line-height:normal;font-family:sans-serif;text-indent:0;text-align:start;text-decoration:none;text-decoration-line:none;text-decoration-style:solid;text-decoration-color:#000000;letter-spacing:normal;word-spacing:normal;text-transform:none;direction:ltr;block-progression:tb;writing-mode:lr-tb;baseline-shift:baseline;text-anchor:start;white-space:normal;clip-rule:nonzero;display:inline;overflow:visible;visibility:visible;opacity:1;isolation:auto;mix-blend-mode:normal;color-interpolation:sRGB;color-interpolation-filters:linearRGB;solid-color:#000000;solid-opacity:1;fill:#11c111;fill-opacity:1;fill-rule:nonzero;stroke:none;stroke-width:3;stroke-linecap:round;stroke-linejoin:round;stroke-miterlimit:4;stroke-dasharray:none;stroke-dashoffset:0;stroke-opacity:1;color-rendering:auto;image-rendering:auto;shape-rendering:auto;text-rendering:auto;enable-background:accumulate" transform="translate(0,1004.3622)"/></g></g></svg>