<?xml version="1.0" ?><svg height="48" id="svg6485" version="1.1" viewBox="0 0 48 48" width="48" xmlns="http://www.w3.org/2000/svg" xmlns:cc="http://creativecommons.org/ns#" xmlns:dc="http://purl.org/dc/elements/1.1/" xmlns:inkscape="http://www.inkscape.org/namespaces/inkscape" xmlns:rdf="http://www.w3.org/1999/02/22-rdf-syntax-ns#" xmlns:sodipodi="http://sodipodi.sourceforge.net/DTD/sodipodi-0.dtd" xmlns:svg="http://www.w3.org/2000/svg"><defs id="defs6487"><clipPath clipPathUnits="userSpaceOnUse" id="clipPath18427"><rect height="121.40158" id="rect18429" style="opacity:1;fill:#e9e9e9;fill-opacity:0.8041237;stroke:none;stroke-width:1;stroke-linecap:round;stroke-linejoin:round;stroke-miterlimit:4;stroke-dasharray:none;stroke-dashoffset:0;stroke-opacity:1;paint-order:fill markers stroke" width="88.351334" x="-269.08893" y="204.7206"/></clipPath><clipPath clipPathUnits="userSpaceOnUse" id="clipPath18443"><path d="m -222.26758,211.43642 a 31.996582,31.996582 0 0 0 -31.99804,31.99609 31.996582,31.996582 0 0 0 10.67773,23.81446 c -3.77662,1.10404 -6.52344,4.57592 -6.52344,8.71875 0,5.03653 4.05527,9.09179 9.0918,9.09179 l 7.63086,0 0,35.49219 c 0,1.71385 1.3799,3.09375 3.09375,3.09375 1.71385,0 3.0918,-1.3799 3.0918,-3.09375 l 0,-35.49219 1.59179,0 0,37.99219 c 0,1.71385 1.3799,3.09375 3.09375,3.09375 1.71385,0 3.09375,-1.3799 3.09375,-3.09375 l 0,-37.99219 1.625,0 0,35.49219 c 0,1.71385 1.3799,3.09375 3.09375,3.09375 1.71385,0 3.09375,-1.3799 3.09375,-3.09375 l 0,-35.49219 6.67969,0 c 5.03653,0 9.0918,-4.05526 9.0918,-9.09179 0,-3.7665 -2.26947,-6.98211 -5.51954,-8.36524 a 31.996582,31.996582 0 0 0 11.0879,-24.16797 31.996582,31.996582 0 0 0 -31.9961,-31.99609 z" id="path18445" style="opacity:1;fill:#e9e9e9;fill-opacity:0.8041237;stroke:none;stroke-width:1;stroke-linecap:round;stroke-linejoin:round;stroke-miterlimit:4;stroke-dasharray:none;stroke-dashoffset:0;stroke-opacity:1;paint-order:fill markers stroke"/></clipPath><clipPath clipPathUnits="userSpaceOnUse" id="clipPath5172"><rect height="32" id="rect5174" rx="0" ry="0" style="color:#000000;clip-rule:nonzero;display:inline;overflow:visible;visibility:visible;opacity:1;isolation:auto;mix-blend-mode:normal;color-interpolation:sRGB;color-interpolation-filters:linearRGB;solid-color:#000000;solid-opacity:1;fill:#000000;fill-opacity:0.51572331;fill-rule:nonzero;stroke:none;stroke-width:1;stroke-linecap:round;stroke-linejoin:round;stroke-miterlimit:4;stroke-dasharray:none;stroke-dashoffset:0;stroke-opacity:1;color-rendering:auto;image-rendering:auto;shape-rendering:auto;text-rendering:auto;enable-background:accumulate" width="32" x="0" y="1020.3622"/></clipPath><clipPath clipPathUnits="userSpaceOnUse" id="clipPath5284"><rect height="48" id="rect5286" style="color:#000000;clip-rule:nonzero;display:inline;overflow:visible;visibility:visible;opacity:1;isolation:auto;mix-blend-mode:normal;color-interpolation:sRGB;color-interpolation-filters:linearRGB;solid-color:#000000;solid-opacity:1;fill:#000000;fill-opacity:0.48427675;fill-rule:nonzero;stroke:none;stroke-width:0.40000001;stroke-linecap:round;stroke-linejoin:round;stroke-miterlimit:4;stroke-dasharray:none;stroke-dashoffset:0;stroke-opacity:1;color-rendering:auto;image-rendering:auto;shape-rendering:auto;text-rendering:auto;enable-background:accumulate" width="48" x="0" y="1004.3622"/></clipPath></defs><g id="layer1" style="display:inline" transform="translate(0,-1004.3622)"><g id="g11397" style="display:inline" transform="translate(-677.0004,-355.9995)"><path d="m 703,1362.3622 c -0.554,0 -1,0.446 -1,1 l 0,1 c 0,0.554 0.446,1 1,1 l 10.0039,0 0.016,6.4844 c 0,0.8253 0.6708,1.4938 1.4961,1.4961 l 6.4844,0.017 0,28.502 c 0,0.8569 -0.6431,1.5 -1.5,1.5 l -23,0 c -0.857,0 -1.5,-0.6431 -1.5,-1.5 l 0,-1.5 c 0,-0.554 -0.446,-1 -1,-1 l -1,0 c -0.554,0 -1,0.446 -1,1 l 0,1.5 c 0,2.4671 2.0329,4.5 4.5,4.5 l 23,0 c 2.467,0 4.5,-2.0329 4.5,-4.5 l 0,-30.4863 c -10e-5,-0.3978 -0.1582,-0.7793 -0.4395,-1.0606 l -7.5137,-7.5136 c -0.2812,-0.2814 -0.6627,-0.4394 -1.0605,-0.4395 z m -11,21 c 0,0.554 0.446,1 1,1 l 1,0 c 0.554,0 1,-0.446 1,-1 l 0,-10 c 0,-0.554 -0.446,-1 -1,-1 l -1,0 c -0.554,0 -1,0.446 -1,1 z" id="path8830" style="color:#000000;font-style:normal;font-variant:normal;font-weight:normal;font-stretch:normal;font-size:medium;line-height:normal;font-family:sans-serif;text-indent:0;text-align:start;text-decoration:none;text-decoration-line:none;text-decoration-style:solid;text-decoration-color:#000000;letter-spacing:normal;word-spacing:normal;text-transform:none;direction:ltr;block-progression:tb;writing-mode:lr-tb;baseline-shift:baseline;text-anchor:start;white-space:normal;clip-rule:nonzero;display:inline;overflow:visible;visibility:visible;opacity:1;isolation:auto;mix-blend-mode:normal;color-interpolation:sRGB;color-interpolation-filters:linearRGB;solid-color:#000000;solid-opacity:1;fill:#242730;fill-opacity:1;fill-rule:nonzero;stroke:none;stroke-width:3;stroke-linecap:round;stroke-linejoin:round;stroke-miterlimit:4;stroke-dasharray:none;stroke-dashoffset:0;stroke-opacity:1;color-rendering:auto;image-rendering:auto;shape-rendering:auto;text-rendering:auto;enable-background:accumulate"/><path d="m 696.5,358 c -2.467,0 -4.5,2.0329 -4.5,4.5 l 0,2.5 c 0,0.554 0.446,1 1,1 l 1,0 c 0.554,0 1,-0.446 1,-1 l 0,-2.5 c 0,-0.8569 0.6431,-1.5 1.5,-1.5 l 2.5,0 c 0.554,0 1,-0.446 1,-1 l 0,-1 c 0,-0.554 -0.446,-1 -1,-1 l -2.5,0 z M 681,382 c -1.10801,0 -2,0.892 -2,2 l 0,7 c 0,1.108 0.89199,2 2,2 l 25,0 c 1.10801,0 2,-0.892 2,-2 l 0,-7 c 0,-1.108 -0.89199,-2 -2,-2 l -25,0 z m 7.88086,2.74023 1.74609,0 c 0.42015,0 0.45986,0.11324 0.58399,0.45704 l 1.48047,4.04882 0.0762,0 c 0.33421,0 0.51562,0.17166 0.51562,0.50586 0,0.3915 -0.20029,0.51563 -0.59179,0.51563 l -1.4043,0 c -0.39149,0 -0.5918,-0.12413 -0.5918,-0.51563 0,-0.3915 0.20031,-0.50586 0.5918,-0.50586 l 0.16211,0 -0.19141,-0.54297 -2.01367,0 -0.20117,0.54297 0.16211,0 c 0.3915,0 0.5918,0.11436 0.5918,0.50586 0,0.3915 -0.2003,0.51563 -0.5918,0.51563 l -1.20313,0 c -0.39149,0 -0.59179,-0.12413 -0.59179,-0.51563 0,-0.3342 0.18142,-0.50586 0.51562,-0.50586 l 0.0762,0 1.25,-3.47461 -0.38086,0 c -0.3915,0 -0.58203,-0.12412 -0.58203,-0.51562 0,-0.382 0.19075,-0.51563 0.5918,-0.51563 z m 4.91211,0 1.38476,0 c 0.38195,0 0.57422,0.13363 0.57422,0.51563 0,0.3819 -0.19227,0.51562 -0.57422,0.51562 l -0.12304,0 1.11719,3.30274 1.15429,-3.30274 -0.12305,0 c -0.38193,0 -0.57226,-0.13372 -0.57226,-0.51562 0,-0.3915 0.20008,-0.51563 0.58203,-0.51563 l 1.17383,0 c 0.3915,0 0.58203,0.12413 0.58203,0.51563 0,0.3342 -0.1812,0.51562 -0.50586,0.51562 l -0.0762,0 -1.42188,4.03907 c -0.12413,0.3633 -0.17314,0.45703 -0.57422,0.45703 l -0.57226,0 c -0.42015,0 -0.44813,-0.11323 -0.57227,-0.45703 l -1.45312,-4.03907 -0.0762,0 c -0.32466,0 -0.48633,-0.18142 -0.48633,-0.51562 0,-0.3915 0.18055,-0.51563 0.5625,-0.51563 z m 6.57617,0 1.74609,0 c 0.42015,0 0.45986,0.11324 0.58399,0.45704 l 1.48047,4.04882 0.0762,0 c 0.3342,0 0.51562,0.17166 0.51562,0.50586 0,0.3915 -0.2003,0.51563 -0.59179,0.51563 l -1.4043,0 c -0.39149,0 -0.5918,-0.12413 -0.5918,-0.51563 0,-0.3915 0.20031,-0.50586 0.5918,-0.50586 l 0.16211,0 -0.19141,-0.54297 -2.01367,0 -0.20117,0.54297 0.16211,0 c 0.3915,0 0.5918,0.11436 0.5918,0.50586 0,0.3915 -0.2003,0.51563 -0.5918,0.51563 l -1.20313,0 c -0.3915,0 -0.59179,-0.12413 -0.59179,-0.51563 0,-0.3342 0.18141,-0.50586 0.51562,-0.50586 l 0.0762,0 1.25,-3.47461 -0.38085,0 c -0.39152,0 -0.58204,-0.12412 -0.58204,-0.51562 0,-0.382 0.19075,-0.51563 0.5918,-0.51563 z m -16.07812,0.01 2.3789,0 c 0.3915,0 0.5918,0.10476 0.5918,0.50586 0,0.3915 -0.2003,0.50586 -0.5918,0.50586 l -0.39258,0 0,2.58789 0,0.0859 c 0,0.5634 -0.01,1.01084 -0.35351,1.40234 -0.32466,0.3724 -0.92492,0.57422 -1.7461,0.57422 -0.59203,0 -1.11847,-0.10488 -1.60546,-0.33399 -0.24825,-0.1146 -0.34375,-0.24916 -0.34375,-0.72656 l 0,-0.96484 c 0,-0.4965 0.12456,-0.71484 0.53515,-0.71484 0.46789,0 0.42105,0.36283 0.46875,0.77343 0.0668,0.6302 0.21808,0.93555 0.87696,0.93555 0.77345,0 0.95507,-0.41099 0.95507,-1.30859 l 0,-2.30079 -0.77343,0 c -0.3915,0 -0.5918,-0.12412 -0.5918,-0.51562 0,-0.3915 0.2003,-0.50586 0.5918,-0.50586 z m 5.95507,1.02148 -0.67773,1.9668 1.35547,0 -0.67774,-1.9668 z m 11.48829,0 -0.67774,1.9668 1.35547,0 -0.67773,-1.9668 z" id="path8832" style="color:#000000;font-style:normal;font-variant:normal;font-weight:normal;font-stretch:normal;font-size:medium;line-height:normal;font-family:sans-serif;text-indent:0;text-align:start;text-decoration:none;text-decoration-line:none;text-decoration-style:solid;text-decoration-color:#000000;letter-spacing:normal;word-spacing:normal;text-transform:none;direction:ltr;block-progression:tb;writing-mode:lr-tb;baseline-shift:baseline;text-anchor:start;white-space:normal;clip-rule:nonzero;display:inline;overflow:visible;visibility:visible;opacity:1;isolation:auto;mix-blend-mode:normal;color-interpolation:sRGB;color-interpolation-filters:linearRGB;solid-color:#000000;solid-opacity:1;fill:#11c111;fill-opacity:1;fill-rule:nonzero;stroke:none;stroke-width:3;stroke-linecap:round;stroke-linejoin:round;stroke-miterlimit:4;stroke-dasharray:none;stroke-dashoffset:0;stroke-opacity:1;color-rendering:auto;image-rendering:auto;shape-rendering:auto;text-rendering:auto;enable-background:accumulate" transform="translate(0,1004.3622)"/></g></g></svg>