<?xml version="1.0" ?><svg height="48" id="svg6485" version="1.1" viewBox="0 0 48 48" width="48" xmlns="http://www.w3.org/2000/svg" xmlns:cc="http://creativecommons.org/ns#" xmlns:dc="http://purl.org/dc/elements/1.1/" xmlns:inkscape="http://www.inkscape.org/namespaces/inkscape" xmlns:rdf="http://www.w3.org/1999/02/22-rdf-syntax-ns#" xmlns:sodipodi="http://sodipodi.sourceforge.net/DTD/sodipodi-0.dtd" xmlns:svg="http://www.w3.org/2000/svg"><defs id="defs6487"><clipPath clipPathUnits="userSpaceOnUse" id="clipPath18427"><rect height="121.40158" id="rect18429" style="opacity:1;fill:#e9e9e9;fill-opacity:0.8041237;stroke:none;stroke-width:1;stroke-linecap:round;stroke-linejoin:round;stroke-miterlimit:4;stroke-dasharray:none;stroke-dashoffset:0;stroke-opacity:1;paint-order:fill markers stroke" width="88.351334" x="-269.08893" y="204.7206"/></clipPath><clipPath clipPathUnits="userSpaceOnUse" id="clipPath18443"><path d="m -222.26758,211.43642 a 31.996582,31.996582 0 0 0 -31.99804,31.99609 31.996582,31.996582 0 0 0 10.67773,23.81446 c -3.77662,1.10404 -6.52344,4.57592 -6.52344,8.71875 0,5.03653 4.05527,9.09179 9.0918,9.09179 l 7.63086,0 0,35.49219 c 0,1.71385 1.3799,3.09375 3.09375,3.09375 1.71385,0 3.0918,-1.3799 3.0918,-3.09375 l 0,-35.49219 1.59179,0 0,37.99219 c 0,1.71385 1.3799,3.09375 3.09375,3.09375 1.71385,0 3.09375,-1.3799 3.09375,-3.09375 l 0,-37.99219 1.625,0 0,35.49219 c 0,1.71385 1.3799,3.09375 3.09375,3.09375 1.71385,0 3.09375,-1.3799 3.09375,-3.09375 l 0,-35.49219 6.67969,0 c 5.03653,0 9.0918,-4.05526 9.0918,-9.09179 0,-3.7665 -2.26947,-6.98211 -5.51954,-8.36524 a 31.996582,31.996582 0 0 0 11.0879,-24.16797 31.996582,31.996582 0 0 0 -31.9961,-31.99609 z" id="path18445" style="opacity:1;fill:#e9e9e9;fill-opacity:0.8041237;stroke:none;stroke-width:1;stroke-linecap:round;stroke-linejoin:round;stroke-miterlimit:4;stroke-dasharray:none;stroke-dashoffset:0;stroke-opacity:1;paint-order:fill markers stroke"/></clipPath><clipPath clipPathUnits="userSpaceOnUse" id="clipPath5172"><rect height="32" id="rect5174" rx="0" ry="0" style="color:#000000;clip-rule:nonzero;display:inline;overflow:visible;visibility:visible;opacity:1;isolation:auto;mix-blend-mode:normal;color-interpolation:sRGB;color-interpolation-filters:linearRGB;solid-color:#000000;solid-opacity:1;fill:#000000;fill-opacity:0.51572331;fill-rule:nonzero;stroke:none;stroke-width:1;stroke-linecap:round;stroke-linejoin:round;stroke-miterlimit:4;stroke-dasharray:none;stroke-dashoffset:0;stroke-opacity:1;color-rendering:auto;image-rendering:auto;shape-rendering:auto;text-rendering:auto;enable-background:accumulate" width="32" x="0" y="1020.3622"/></clipPath><clipPath clipPathUnits="userSpaceOnUse" id="clipPath5284"><rect height="48" id="rect5286" style="color:#000000;clip-rule:nonzero;display:inline;overflow:visible;visibility:visible;opacity:1;isolation:auto;mix-blend-mode:normal;color-interpolation:sRGB;color-interpolation-filters:linearRGB;solid-color:#000000;solid-opacity:1;fill:#000000;fill-opacity:0.48427675;fill-rule:nonzero;stroke:none;stroke-width:0.40000001;stroke-linecap:round;stroke-linejoin:round;stroke-miterlimit:4;stroke-dasharray:none;stroke-dashoffset:0;stroke-opacity:1;color-rendering:auto;image-rendering:auto;shape-rendering:auto;text-rendering:auto;enable-background:accumulate" width="48" x="0" y="1004.3622"/></clipPath></defs><g id="layer1" style="display:inline" transform="translate(0,-1004.3622)"><g id="g9630" style="display:inline" transform="translate(-1097.0004,-305.9995)"><path d="m 1123,1312.3622 c -0.554,0 -1,0.446 -1,1 l 0,1 c 0,0.554 0.446,1 1,1 l 10.0039,0 0.016,6.4844 c 0,0.8253 0.6708,1.4938 1.4961,1.4961 l 6.4844,0.017 0,28.502 c 0,0.8569 -0.6431,1.5 -1.5,1.5 l -23,0 c -0.857,0 -1.5,-0.6431 -1.5,-1.5 l 0,-1.5 c 0,-0.554 -0.446,-1 -1,-1 l -1,0 c -0.554,0 -1,0.446 -1,1 l 0,1.5 c 0,2.4671 2.0329,4.5 4.5,4.5 l 23,0 c 2.467,0 4.5,-2.0329 4.5,-4.5 l 0,-30.4863 c -10e-5,-0.3978 -0.1582,-0.7793 -0.4395,-1.0606 l -7.5137,-7.5136 c -0.2812,-0.2814 -0.6627,-0.4394 -1.0605,-0.4395 z m -11,21 c 0,0.554 0.446,1 1,1 l 1,0 c 0.554,0 1,-0.446 1,-1 l 0,-10 c 0,-0.554 -0.446,-1 -1,-1 l -1,0 c -0.554,0 -1,0.446 -1,1 z" id="path7578" style="color:#000000;font-style:normal;font-variant:normal;font-weight:normal;font-stretch:normal;font-size:medium;line-height:normal;font-family:sans-serif;text-indent:0;text-align:start;text-decoration:none;text-decoration-line:none;text-decoration-style:solid;text-decoration-color:#000000;letter-spacing:normal;word-spacing:normal;text-transform:none;direction:ltr;block-progression:tb;writing-mode:lr-tb;baseline-shift:baseline;text-anchor:start;white-space:normal;clip-rule:nonzero;display:inline;overflow:visible;visibility:visible;opacity:1;isolation:auto;mix-blend-mode:normal;color-interpolation:sRGB;color-interpolation-filters:linearRGB;solid-color:#000000;solid-opacity:1;fill:#242730;fill-opacity:1;fill-rule:nonzero;stroke:none;stroke-width:3;stroke-linecap:round;stroke-linejoin:round;stroke-miterlimit:4;stroke-dasharray:none;stroke-dashoffset:0;stroke-opacity:1;color-rendering:auto;image-rendering:auto;shape-rendering:auto;text-rendering:auto;enable-background:accumulate"/><path d="m 1116.5,308 c -2.467,0 -4.5,2.0329 -4.5,4.5 l 0,2.5 c 0,0.554 0.446,1 1,1 l 1,0 c 0.554,0 1,-0.446 1,-1 l 0,-2.5 c 0,-0.8569 0.6431,-1.5 1.5,-1.5 l 2.5,0 c 0.554,0 1,-0.446 1,-1 l 0,-1 c 0,-0.554 -0.446,-1 -1,-1 l -2.5,0 z m -15.5,24 c -1.108,0 -2,0.892 -2,2 l 0,7 c 0,1.108 0.892,2 2,2 l 25,0 c 1.108,0 2,-0.892 2,-2 l 0,-7 c 0,-1.108 -0.892,-2 -2,-2 l -25,0 z m 20.9395,2.58789 c 0.4482,0 0.8783,0.10469 1.3359,0.30469 0.1146,-0.21 0.2196,-0.29492 0.4297,-0.29492 0.296,0 0.4297,0.12429 0.4297,0.52539 l 0.01,1.21093 c 0,0.401 -0.095,0.54493 -0.4863,0.54493 -0.2865,0 -0.4003,-0.14346 -0.4863,-0.43946 -0.1528,-0.5443 -0.4297,-0.83007 -1.1172,-0.83007 -0.9453,0 -1.4805,0.64932 -1.4805,1.89062 0,1.2413 0.5726,1.91992 1.5274,1.91992 0.2387,0 0.5353,-0.0591 0.8886,-0.16406 l 0,-0.72461 -0.5254,0 c -0.3915,0 -0.582,-0.12413 -0.582,-0.51563 0,-0.39149 0.1905,-0.51562 0.582,-0.51562 l 1.6797,0 c 0.3914,0 0.5918,0.10476 0.5918,0.50586 0,0.3342 -0.1814,0.51562 -0.5156,0.51562 l -0.076,0 0,1.10743 0,0.0566 c 0,0.1718 -0.01,0.22822 -0.1621,0.32422 -0.2578,0.1528 -1.0492,0.40234 -2.0136,0.40234 -1.6423,0 -2.7403,-1.19331 -2.7403,-2.91211 0,-1.6328 1.1164,-2.91211 2.711,-2.91211 z m -13.3301,0.15234 1.9277,0 c 1.5374,0 2.3106,0.60182 2.3106,1.72852 0,1.1936 -0.7732,1.82422 -2.3106,1.82422 l -0.791,0 0,0.95312 0.4668,0 c 0.3819,0 0.5723,0.12396 0.5723,0.50586 0,0.382 -0.1904,0.51563 -0.5723,0.51563 l -1.6035,0 c -0.382,0 -0.5742,-0.13363 -0.5742,-0.51563 0,-0.3246 0.1829,-0.50586 0.498,-0.50586 l 0.076,0 0,-3.47461 -0.068,0 c -0.3247,0 -0.5058,-0.18142 -0.5058,-0.51562 0,-0.3724 0.1922,-0.51563 0.5742,-0.51563 z m 5.541,0 0,0 3.8184,0 c 0.392,0 0.4863,0.095 0.4863,0.42969 l 0,1.04102 c 0,0.4011 -0.1237,0.59179 -0.4961,0.59179 -0.382,0 -0.5058,-0.20029 -0.5058,-0.59179 l 0,-0.48828 -2.168,0 0,1.19336 0.8125,0 0,-0.0566 c 0,-0.3533 0.1615,-0.5254 0.4766,-0.5254 0.3533,0 0.4863,0.19249 0.4863,0.58399 l 0,0.96289 c 0,0.3915 -0.1233,0.58398 -0.4766,0.58398 -0.3151,0 -0.4785,-0.16384 -0.4785,-0.49804 l 0,-0.0859 -0.8203,0 0,1.39453 2.168,0 0,-0.55469 c 0,-0.401 0.1334,-0.58203 0.5058,-0.58203 0.3819,0 0.4961,0.19053 0.4961,0.58203 l 0,1.12696 c 0,0.3341 -0.095,0.41992 -0.4863,0.41992 l -3.8203,0 c -0.3819,0 -0.5723,-0.13363 -0.5723,-0.51563 0,-0.3246 0.181,-0.50586 0.4961,-0.50586 l 0.076,0 0,-3.47461 -0.066,0 c -0.3247,0 -0.5078,-0.18142 -0.5078,-0.51562 0,-0.3724 0.1923,-0.51563 0.5742,-0.51563 z m -9.8242,0.01 2.3769,0 c 0.3915,0 0.5918,0.10476 0.5918,0.50586 0,0.3915 -0.2003,0.50586 -0.5918,0.50586 l -0.3926,0 0,2.58789 0,0.0859 c 0,0.5634 -0.01,1.01084 -0.3535,1.40234 -0.3246,0.3724 -0.9249,0.57422 -1.7461,0.57422 -0.592,0 -1.1184,-0.10488 -1.6054,-0.33399 -0.2487,-0.1146 -0.3418,-0.24916 -0.3418,-0.72656 l 0,-0.96484 c 0,-0.4965 0.1226,-0.71484 0.5332,-0.71484 0.4679,0 0.4207,0.36283 0.4687,0.77343 0.067,0.6302 0.22,0.93555 0.8789,0.93555 0.7734,0 0.9532,-0.41099 0.9532,-1.30859 l 0,-2.30079 -0.7715,0 c -0.3915,0 -0.5938,-0.12412 -0.5938,-0.51562 0,-0.3915 0.2023,-0.50586 0.5938,-0.50586 z m 5.4179,1.05859 0,1.4336 0.6602,0 c 0.7352,0 1.1074,-0.25867 1.1074,-0.72657 0,-0.4679 -0.3722,-0.70703 -1.1074,-0.70703 l -0.6602,0 z" id="path7580" style="color:#000000;font-style:normal;font-variant:normal;font-weight:normal;font-stretch:normal;font-size:medium;line-height:normal;font-family:sans-serif;text-indent:0;text-align:start;text-decoration:none;text-decoration-line:none;text-decoration-style:solid;text-decoration-color:#000000;letter-spacing:normal;word-spacing:normal;text-transform:none;direction:ltr;block-progression:tb;writing-mode:lr-tb;baseline-shift:baseline;text-anchor:start;white-space:normal;clip-rule:nonzero;display:inline;overflow:visible;visibility:visible;opacity:1;isolation:auto;mix-blend-mode:normal;color-interpolation:sRGB;color-interpolation-filters:linearRGB;solid-color:#000000;solid-opacity:1;fill:#11c111;fill-opacity:1;fill-rule:nonzero;stroke:none;stroke-width:3;stroke-linecap:round;stroke-linejoin:round;stroke-miterlimit:4;stroke-dasharray:none;stroke-dashoffset:0;stroke-opacity:1;color-rendering:auto;image-rendering:auto;shape-rendering:auto;text-rendering:auto;enable-background:accumulate" transform="translate(0,1004.3622)"/></g></g></svg>