<?xml version="1.0" ?><svg height="48" id="svg6485" version="1.1" viewBox="0 0 48 48" width="48" xmlns="http://www.w3.org/2000/svg" xmlns:cc="http://creativecommons.org/ns#" xmlns:dc="http://purl.org/dc/elements/1.1/" xmlns:inkscape="http://www.inkscape.org/namespaces/inkscape" xmlns:rdf="http://www.w3.org/1999/02/22-rdf-syntax-ns#" xmlns:sodipodi="http://sodipodi.sourceforge.net/DTD/sodipodi-0.dtd" xmlns:svg="http://www.w3.org/2000/svg"><defs id="defs6487"><clipPath clipPathUnits="userSpaceOnUse" id="clipPath18427"><rect height="121.40158" id="rect18429" style="opacity:1;fill:#e9e9e9;fill-opacity:0.8041237;stroke:none;stroke-width:1;stroke-linecap:round;stroke-linejoin:round;stroke-miterlimit:4;stroke-dasharray:none;stroke-dashoffset:0;stroke-opacity:1;paint-order:fill markers stroke" width="88.351334" x="-269.08893" y="204.7206"/></clipPath><clipPath clipPathUnits="userSpaceOnUse" id="clipPath18443"><path d="m -222.26758,211.43642 a 31.996582,31.996582 0 0 0 -31.99804,31.99609 31.996582,31.996582 0 0 0 10.67773,23.81446 c -3.77662,1.10404 -6.52344,4.57592 -6.52344,8.71875 0,5.03653 4.05527,9.09179 9.0918,9.09179 l 7.63086,0 0,35.49219 c 0,1.71385 1.3799,3.09375 3.09375,3.09375 1.71385,0 3.0918,-1.3799 3.0918,-3.09375 l 0,-35.49219 1.59179,0 0,37.99219 c 0,1.71385 1.3799,3.09375 3.09375,3.09375 1.71385,0 3.09375,-1.3799 3.09375,-3.09375 l 0,-37.99219 1.625,0 0,35.49219 c 0,1.71385 1.3799,3.09375 3.09375,3.09375 1.71385,0 3.09375,-1.3799 3.09375,-3.09375 l 0,-35.49219 6.67969,0 c 5.03653,0 9.0918,-4.05526 9.0918,-9.09179 0,-3.7665 -2.26947,-6.98211 -5.51954,-8.36524 a 31.996582,31.996582 0 0 0 11.0879,-24.16797 31.996582,31.996582 0 0 0 -31.9961,-31.99609 z" id="path18445" style="opacity:1;fill:#e9e9e9;fill-opacity:0.8041237;stroke:none;stroke-width:1;stroke-linecap:round;stroke-linejoin:round;stroke-miterlimit:4;stroke-dasharray:none;stroke-dashoffset:0;stroke-opacity:1;paint-order:fill markers stroke"/></clipPath><clipPath clipPathUnits="userSpaceOnUse" id="clipPath5172"><rect height="32" id="rect5174" rx="0" ry="0" style="color:#000000;clip-rule:nonzero;display:inline;overflow:visible;visibility:visible;opacity:1;isolation:auto;mix-blend-mode:normal;color-interpolation:sRGB;color-interpolation-filters:linearRGB;solid-color:#000000;solid-opacity:1;fill:#000000;fill-opacity:0.51572331;fill-rule:nonzero;stroke:none;stroke-width:1;stroke-linecap:round;stroke-linejoin:round;stroke-miterlimit:4;stroke-dasharray:none;stroke-dashoffset:0;stroke-opacity:1;color-rendering:auto;image-rendering:auto;shape-rendering:auto;text-rendering:auto;enable-background:accumulate" width="32" x="0" y="1020.3622"/></clipPath><clipPath clipPathUnits="userSpaceOnUse" id="clipPath5284"><rect height="48" id="rect5286" style="color:#000000;clip-rule:nonzero;display:inline;overflow:visible;visibility:visible;opacity:1;isolation:auto;mix-blend-mode:normal;color-interpolation:sRGB;color-interpolation-filters:linearRGB;solid-color:#000000;solid-opacity:1;fill:#000000;fill-opacity:0.48427675;fill-rule:nonzero;stroke:none;stroke-width:0.40000001;stroke-linecap:round;stroke-linejoin:round;stroke-miterlimit:4;stroke-dasharray:none;stroke-dashoffset:0;stroke-opacity:1;color-rendering:auto;image-rendering:auto;shape-rendering:auto;text-rendering:auto;enable-background:accumulate" width="48" x="0" y="1004.3622"/></clipPath></defs><g id="layer1" style="display:inline" transform="translate(0,-1004.3622)"><g id="g11434" style="display:inline" transform="translate(-819.0004,-105.9995)"><path d="m 845,1112.3622 c -0.554,0 -1,0.446 -1,1 l 0,1 c 0,0.554 0.446,1 1,1 l 10.0039,0 0.016,6.4844 c 0,0.8253 0.6708,1.4938 1.4961,1.4961 l 6.4844,0.017 0,28.502 c 0,0.8569 -0.6431,1.5 -1.5,1.5 l -23,0 c -0.857,0 -1.5,-0.6431 -1.5,-1.5 l 0,-1.5 c 0,-0.554 -0.446,-1 -1,-1 l -1,0 c -0.554,0 -1,0.446 -1,1 l 0,1.5 c 0,2.4671 2.0329,4.5 4.5,4.5 l 23,0 c 2.467,0 4.5,-2.0329 4.5,-4.5 l 0,-30.4863 c -10e-5,-0.3978 -0.1582,-0.7793 -0.4395,-1.0606 l -7.5137,-7.5136 c -0.2812,-0.2814 -0.6627,-0.4394 -1.0605,-0.4395 z m -11,21 c 0,0.554 0.446,1 1,1 l 1,0 c 0.554,0 1,-0.446 1,-1 l 0,-10 c 0,-0.554 -0.446,-1 -1,-1 l -1,0 c -0.554,0 -1,0.446 -1,1 z" id="path8642" style="color:#000000;font-style:normal;font-variant:normal;font-weight:normal;font-stretch:normal;font-size:medium;line-height:normal;font-family:sans-serif;text-indent:0;text-align:start;text-decoration:none;text-decoration-line:none;text-decoration-style:solid;text-decoration-color:#000000;letter-spacing:normal;word-spacing:normal;text-transform:none;direction:ltr;block-progression:tb;writing-mode:lr-tb;baseline-shift:baseline;text-anchor:start;white-space:normal;clip-rule:nonzero;display:inline;overflow:visible;visibility:visible;opacity:1;isolation:auto;mix-blend-mode:normal;color-interpolation:sRGB;color-interpolation-filters:linearRGB;solid-color:#000000;solid-opacity:1;fill:#242730;fill-opacity:1;fill-rule:nonzero;stroke:none;stroke-width:3;stroke-linecap:round;stroke-linejoin:round;stroke-miterlimit:4;stroke-dasharray:none;stroke-dashoffset:0;stroke-opacity:1;color-rendering:auto;image-rendering:auto;shape-rendering:auto;text-rendering:auto;enable-background:accumulate"/><path d="m 838.5,108 c -2.467,0 -4.5,2.0329 -4.5,4.5 l 0,2.5 c 0,0.554 0.446,1 1,1 l 1,0 c 0.554,0 1,-0.446 1,-1 l 0,-2.5 c 0,-0.8569 0.6431,-1.5 1.5,-1.5 l 2.5,0 c 0.554,0 1,-0.446 1,-1 l 0,-1 c 0,-0.554 -0.446,-1 -1,-1 l -2.5,0 z M 823,132 c -1.10801,0 -2,0.892 -2,2 l 0,7 c 0,1.108 0.89199,2 2,2 l 25,0 c 1.10801,0 2,-0.892 2,-2 l 0,-7 c 0,-1.108 -0.89199,-2 -2,-2 l -25,0 z m 4.85547,2.74023 1.20312,0 c 0.40105,0 0.5918,0.13363 0.5918,0.51563 0,0.3342 -0.18141,0.51562 -0.51562,0.51562 l -0.0762,0 0,1.41211 1.43946,-1.43945 c -0.32299,-0.038 -0.4375,-0.17388 -0.4375,-0.48828 0,-0.382 0.18294,-0.51563 0.58398,-0.51563 l 1.14453,0 c 0.40104,0 0.58399,0.13363 0.58399,0.51563 0,0.3437 -0.17209,0.52539 -0.52539,0.52539 -0.0286,0 -0.0673,-0.01 -0.10547,-0.01 l -1.36524,1.34571 c 0.62066,0.4583 1.00194,1.18556 1.43164,2.13086 0.0573,-0.01 0.10465,-0.0117 0.15235,-0.0117 0.36286,0 0.53515,0.17192 0.53515,0.51562 0,0.3915 -0.19053,0.51563 -0.58203,0.51563 l -0.57226,0 c -0.42969,0 -0.46007,-0.1903 -0.67969,-0.6582 -0.27691,-0.6016 -0.57204,-1.15575 -1.16406,-1.65235 l -0.43946,0.41992 0,0.86914 0.0762,0 c 0.33421,0 0.51562,0.17166 0.51562,0.50586 0,0.3915 -0.2003,0.51563 -0.5918,0.51563 l -1.20312,0 c -0.3915,0 -0.5918,-0.12413 -0.5918,-0.51563 0,-0.3342 0.18142,-0.50586 0.51563,-0.50586 l 0.0762,0 0,-3.47461 -0.0762,0 c -0.33421,0 -0.50586,-0.18142 -0.50586,-0.51562 0,-0.382 0.18098,-0.51563 0.58203,-0.51563 z m 5.74414,0 3.82031,0 c 0.39149,0 0.48633,0.095 0.48633,0.42969 l 0,1.04102 c 0,0.4011 -0.12369,0.59179 -0.49609,0.59179 -0.38195,0 -0.50586,-0.20029 -0.50586,-0.59179 l 0,-0.48828 -2.16797,0 0,1.19336 0.81055,0 0,-0.0566 c 0,-0.3533 0.1634,-0.5254 0.47851,-0.5254 0.3533,0 0.48633,0.19249 0.48633,0.58399 l 0,0.96289 c 0,0.3915 -0.12326,0.58398 -0.47656,0.58398 -0.31511,0 -0.47852,-0.16384 -0.47852,-0.49804 l 0,-0.0859 -0.82031,0 0,1.39453 2.16797,0 0,-0.55469 c 0,-0.401 0.13346,-0.58203 0.50586,-0.58203 0.38194,0 0.49609,0.19053 0.49609,0.58203 l 0,1.12696 c 0,0.3341 -0.0948,0.41992 -0.48633,0.41992 l -3.82031,0 c -0.38195,0 -0.57227,-0.13363 -0.57227,-0.51563 0,-0.3246 0.18099,-0.50586 0.4961,-0.50586 l 0.0762,0 0,-3.47461 -0.0664,0 c -0.32466,0 -0.50586,-0.18142 -0.50586,-0.51562 0,-0.3724 0.19032,-0.51563 0.57227,-0.51563 z m 5.7832,0 1.22071,0 c 0.34375,0 0.51562,0.12413 0.51562,0.51563 0,0.3437 -0.15125,0.51562 -0.44726,0.51562 l -0.0488,0 0.72656,1.51758 0.69727,-1.51758 -0.0195,0 c -0.28646,0 -0.42968,-0.18142 -0.42968,-0.51562 0,-0.3915 0.1621,-0.51563 0.50586,-0.51563 l 1.06054,0 c 0.39149,0 0.57227,0.12413 0.57227,0.51563 0,0.3342 -0.17144,0.51562 -0.4961,0.51562 l -0.0762,0 -1.25195,2.33008 0,1.14453 0.61133,0 c 0.3915,0 0.58203,0.11436 0.58203,0.50586 0,0.3629 -0.19075,0.51563 -0.5918,0.51563 l -2.41601,0 c -0.3915,0 -0.58203,-0.12413 -0.58204,-0.51563 0,-0.3915 0.19054,-0.50586 0.58204,-0.50586 l 0.61132,0 0,-1.01171 -1.32617,-2.4629 -0.0762,0 c -0.32465,0 -0.49805,-0.18142 -0.49805,-0.51562 0,-0.3915 0.19227,-0.51563 0.57422,-0.51563 z" id="path8644" style="color:#000000;font-style:normal;font-variant:normal;font-weight:normal;font-stretch:normal;font-size:medium;line-height:normal;font-family:sans-serif;text-indent:0;text-align:start;text-decoration:none;text-decoration-line:none;text-decoration-style:solid;text-decoration-color:#000000;letter-spacing:normal;word-spacing:normal;text-transform:none;direction:ltr;block-progression:tb;writing-mode:lr-tb;baseline-shift:baseline;text-anchor:start;white-space:normal;clip-rule:nonzero;display:inline;overflow:visible;visibility:visible;opacity:1;isolation:auto;mix-blend-mode:normal;color-interpolation:sRGB;color-interpolation-filters:linearRGB;solid-color:#000000;solid-opacity:1;fill:#11c111;fill-opacity:1;fill-rule:nonzero;stroke:none;stroke-width:3;stroke-linecap:round;stroke-linejoin:round;stroke-miterlimit:4;stroke-dasharray:none;stroke-dashoffset:0;stroke-opacity:1;color-rendering:auto;image-rendering:auto;shape-rendering:auto;text-rendering:auto;enable-background:accumulate" transform="translate(0,1004.3622)"/></g></g></svg>