<?xml version="1.0" ?><svg height="48" id="svg6485" version="1.1" viewBox="0 0 48 48" width="48" xmlns="http://www.w3.org/2000/svg" xmlns:cc="http://creativecommons.org/ns#" xmlns:dc="http://purl.org/dc/elements/1.1/" xmlns:inkscape="http://www.inkscape.org/namespaces/inkscape" xmlns:rdf="http://www.w3.org/1999/02/22-rdf-syntax-ns#" xmlns:sodipodi="http://sodipodi.sourceforge.net/DTD/sodipodi-0.dtd" xmlns:svg="http://www.w3.org/2000/svg"><defs id="defs6487"><clipPath clipPathUnits="userSpaceOnUse" id="clipPath18427"><rect height="121.40158" id="rect18429" style="opacity:1;fill:#e9e9e9;fill-opacity:0.8041237;stroke:none;stroke-width:1;stroke-linecap:round;stroke-linejoin:round;stroke-miterlimit:4;stroke-dasharray:none;stroke-dashoffset:0;stroke-opacity:1;paint-order:fill markers stroke" width="88.351334" x="-269.08893" y="204.7206"/></clipPath><clipPath clipPathUnits="userSpaceOnUse" id="clipPath18443"><path d="m -222.26758,211.43642 a 31.996582,31.996582 0 0 0 -31.99804,31.99609 31.996582,31.996582 0 0 0 10.67773,23.81446 c -3.77662,1.10404 -6.52344,4.57592 -6.52344,8.71875 0,5.03653 4.05527,9.09179 9.0918,9.09179 l 7.63086,0 0,35.49219 c 0,1.71385 1.3799,3.09375 3.09375,3.09375 1.71385,0 3.0918,-1.3799 3.0918,-3.09375 l 0,-35.49219 1.59179,0 0,37.99219 c 0,1.71385 1.3799,3.09375 3.09375,3.09375 1.71385,0 3.09375,-1.3799 3.09375,-3.09375 l 0,-37.99219 1.625,0 0,35.49219 c 0,1.71385 1.3799,3.09375 3.09375,3.09375 1.71385,0 3.09375,-1.3799 3.09375,-3.09375 l 0,-35.49219 6.67969,0 c 5.03653,0 9.0918,-4.05526 9.0918,-9.09179 0,-3.7665 -2.26947,-6.98211 -5.51954,-8.36524 a 31.996582,31.996582 0 0 0 11.0879,-24.16797 31.996582,31.996582 0 0 0 -31.9961,-31.99609 z" id="path18445" style="opacity:1;fill:#e9e9e9;fill-opacity:0.8041237;stroke:none;stroke-width:1;stroke-linecap:round;stroke-linejoin:round;stroke-miterlimit:4;stroke-dasharray:none;stroke-dashoffset:0;stroke-opacity:1;paint-order:fill markers stroke"/></clipPath><clipPath clipPathUnits="userSpaceOnUse" id="clipPath5172"><rect height="32" id="rect5174" rx="0" ry="0" style="color:#000000;clip-rule:nonzero;display:inline;overflow:visible;visibility:visible;opacity:1;isolation:auto;mix-blend-mode:normal;color-interpolation:sRGB;color-interpolation-filters:linearRGB;solid-color:#000000;solid-opacity:1;fill:#000000;fill-opacity:0.51572331;fill-rule:nonzero;stroke:none;stroke-width:1;stroke-linecap:round;stroke-linejoin:round;stroke-miterlimit:4;stroke-dasharray:none;stroke-dashoffset:0;stroke-opacity:1;color-rendering:auto;image-rendering:auto;shape-rendering:auto;text-rendering:auto;enable-background:accumulate" width="32" x="0" y="1020.3622"/></clipPath><clipPath clipPathUnits="userSpaceOnUse" id="clipPath5284"><rect height="48" id="rect5286" style="color:#000000;clip-rule:nonzero;display:inline;overflow:visible;visibility:visible;opacity:1;isolation:auto;mix-blend-mode:normal;color-interpolation:sRGB;color-interpolation-filters:linearRGB;solid-color:#000000;solid-opacity:1;fill:#000000;fill-opacity:0.48427675;fill-rule:nonzero;stroke:none;stroke-width:0.40000001;stroke-linecap:round;stroke-linejoin:round;stroke-miterlimit:4;stroke-dasharray:none;stroke-dashoffset:0;stroke-opacity:1;color-rendering:auto;image-rendering:auto;shape-rendering:auto;text-rendering:auto;enable-background:accumulate" width="48" x="0" y="1004.3622"/></clipPath></defs><g id="layer1" style="display:inline" transform="translate(0,-1004.3622)"><g id="g7008" style="display:inline" transform="translate(-440.99997,-265.9995)"><path d="m 467,1272.3622 c -0.55401,0 -1,0.446 -1,1 l 0,1 c 0,0.554 0.44599,1 1,1 l 10.00391,0 0.0156,6.4844 c 0.002,0.8253 0.67075,1.4938 1.49609,1.4961 l 6.48437,0.017 0,28.502 c 0,0.8569 -0.64305,1.5 -1.5,1.5 l -23,0 c -0.85695,0 -1.5,-0.6431 -1.5,-1.5 l 0,-1.5 c 0,-0.554 -0.44599,-1 -1,-1 l -1,0 c -0.55401,0 -1,0.446 -1,1 l 0,1.5 c 0,2.4671 2.03295,4.5 4.5,4.5 l 23,0 c 2.46705,0 4.5,-2.0329 4.5,-4.5 l 0,-30.4863 c -8e-5,-0.3978 -0.15815,-0.7793 -0.43945,-1.0606 l -7.51368,-7.5136 c -0.28126,-0.2814 -0.66274,-0.4394 -1.06054,-0.4395 z m -11,21 c 0,0.554 0.44599,1 1,1 l 1,0 c 0.55401,0 1,-0.446 1,-1 l 0,-10 c 0,-0.554 -0.44599,-1 -1,-1 l -1,0 c -0.55401,0 -1,0.446 -1,1 z" id="path5949" style="color:#000000;font-style:normal;font-variant:normal;font-weight:normal;font-stretch:normal;font-size:medium;line-height:normal;font-family:sans-serif;text-indent:0;text-align:start;text-decoration:none;text-decoration-line:none;text-decoration-style:solid;text-decoration-color:#000000;letter-spacing:normal;word-spacing:normal;text-transform:none;direction:ltr;block-progression:tb;writing-mode:lr-tb;baseline-shift:baseline;text-anchor:start;white-space:normal;clip-rule:nonzero;display:inline;overflow:visible;visibility:visible;opacity:1;isolation:auto;mix-blend-mode:normal;color-interpolation:sRGB;color-interpolation-filters:linearRGB;solid-color:#000000;solid-opacity:1;fill:#242730;fill-opacity:1;fill-rule:nonzero;stroke:none;stroke-width:3;stroke-linecap:round;stroke-linejoin:round;stroke-miterlimit:4;stroke-dasharray:none;stroke-dashoffset:0;stroke-opacity:1;color-rendering:auto;image-rendering:auto;shape-rendering:auto;text-rendering:auto;enable-background:accumulate"/><path d="m 460.5,1272.3622 c -2.46705,0 -4.5,2.0329 -4.5,4.5 l 0,2.5 c 0,0.554 0.44599,1 1,1 l 1,0 c 0.55401,0 1,-0.446 1,-1 l 0,-2.5 c 0,-0.8569 0.64305,-1.5 1.5,-1.5 l 2.5,0 c 0.55401,0 1,-0.446 1,-1 l 0,-1 c 0,-0.554 -0.44599,-1 -1,-1 l -2.5,0 z m -15.5,24 c -1.10801,0 -2,0.892 -2,2 l 0,7 c 0,1.108 0.89199,2 2,2 l 25,0 c 1.10801,0 2,-0.892 2,-2 l 0,-7 c 0,-1.108 -0.89199,-2 -2,-2 l -25,0 z m 2.12109,2.7402 0.72657,0 c 0.32465,0 0.50672,0.1428 0.63086,0.4961 l 0.91601,2.6446 0.88867,-2.6446 c 0.12414,-0.3533 0.30425,-0.4961 0.62891,-0.4961 l 0.72656,0 c 0.40105,0 0.5918,0.1337 0.5918,0.5157 0,0.3342 -0.18142,0.5156 -0.51563,0.5156 l -0.0762,0 0.13281,3.4746 0.0781,0 c 0.3342,0 0.50586,0.1717 0.50586,0.5059 0,0.3915 -0.19249,0.5156 -0.58399,0.5156 l -1.04882,0 c -0.3915,0 -0.58399,-0.1241 -0.58399,-0.5156 0,-0.3342 0.17361,-0.5059 0.50781,-0.5059 l 0.0762,0 -0.0684,-2.8457 -0.6875,2.1211 c -0.10504,0.3247 -0.28624,0.4492 -0.5918,0.4492 -0.30556,0 -0.48676,-0.1245 -0.5918,-0.4492 l -0.67773,-2.1211 -0.0664,2.8457 0.0762,0 c 0.3342,0 0.50585,0.1717 0.50585,0.5059 0,0.3915 -0.19053,0.5156 -0.58203,0.5156 l -1.05078,0 c -0.3915,0 -0.58203,-0.1241 -0.58203,-0.5156 0,-0.3342 0.17166,-0.5059 0.50586,-0.5059 l 0.0762,0 0.13281,-3.4746 -0.0762,0 c -0.3342,0 -0.51562,-0.1814 -0.51562,-0.5156 0,-0.382 0.19075,-0.5157 0.59179,-0.5157 z m 11.78516,0 0.87891,0 0.27734,0 c 0.88803,0 1.62239,0.02 2.19531,0.3633 0.73525,0.4488 1.16602,1.2889 1.16602,2.3965 0,1.1554 -0.48762,2.0431 -1.31836,2.4824 -0.48699,0.2674 -1.08832,0.2852 -1.79492,0.2852 l -0.52539,0 -0.87891,0 c -0.3915,0 -0.5918,-0.1241 -0.5918,-0.5156 0,-0.3342 0.18142,-0.5059 0.51563,-0.5059 l 0.0762,0 0,-3.4746 -0.0762,0 c -0.33421,0 -0.51563,-0.1814 -0.51563,-0.5156 0,-0.382 0.19075,-0.5157 0.5918,-0.5157 z m -5.16211,0.01 2.76953,0 c 0.3915,0 0.5918,0.1048 0.5918,0.5059 0,0.3915 -0.2003,0.5156 -0.5918,0.5156 l -0.7832,0 0,3.4746 0.7832,0 c 0.3915,0 0.58203,0.1144 0.58203,0.5059 0,0.3629 -0.18098,0.5156 -0.58203,0.5156 l -2.76953,0 c -0.3915,0 -0.5918,-0.1241 -0.5918,-0.5156 0,-0.3915 0.2003,-0.5059 0.5918,-0.5059 l 0.7832,0 0,-3.4746 -0.7832,0 c -0.3915,0 -0.5918,-0.1241 -0.5918,-0.5156 0,-0.3915 0.2003,-0.5059 0.5918,-0.5059 z m 11.48828,0 2.76953,0 c 0.3915,0 0.5918,0.1048 0.5918,0.5059 0,0.3915 -0.2003,0.5156 -0.5918,0.5156 l -0.7832,0 0,3.4746 0.7832,0 c 0.3915,0 0.58203,0.1144 0.58203,0.5059 0,0.3629 -0.18098,0.5156 -0.58203,0.5156 l -2.76953,0 c -0.3915,0 -0.5918,-0.1241 -0.5918,-0.5156 0,-0.3915 0.2003,-0.5059 0.5918,-0.5059 l 0.7832,0 0,-3.4746 -0.7832,0 c -0.3915,0 -0.5918,-0.1241 -0.5918,-0.5156 0,-0.3915 0.2003,-0.5059 0.5918,-0.5059 z m -4.8457,0.9922 c -0.0859,0 -0.18186,-4e-4 -0.27735,0.01 l 0,3.4844 c 0.0955,0.01 0.18164,0.01 0.26758,0.01 1.16495,0 1.70899,-0.5528 1.70899,-1.7559 0,-1.1745 -0.55338,-1.748 -1.69922,-1.748 z" id="path5951" style="color:#000000;font-style:normal;font-variant:normal;font-weight:normal;font-stretch:normal;font-size:medium;line-height:normal;font-family:sans-serif;text-indent:0;text-align:start;text-decoration:none;text-decoration-line:none;text-decoration-style:solid;text-decoration-color:#000000;letter-spacing:normal;word-spacing:normal;text-transform:none;direction:ltr;block-progression:tb;writing-mode:lr-tb;baseline-shift:baseline;text-anchor:start;white-space:normal;clip-rule:nonzero;display:inline;overflow:visible;visibility:visible;opacity:1;isolation:auto;mix-blend-mode:normal;color-interpolation:sRGB;color-interpolation-filters:linearRGB;solid-color:#000000;solid-opacity:1;fill:#11c111;fill-opacity:1;fill-rule:nonzero;stroke:none;stroke-width:3;stroke-linecap:round;stroke-linejoin:round;stroke-miterlimit:4;stroke-dasharray:none;stroke-dashoffset:0;stroke-opacity:1;color-rendering:auto;image-rendering:auto;shape-rendering:auto;text-rendering:auto;enable-background:accumulate"/></g></g></svg>