<?xml version="1.0" ?><svg height="48" id="svg6485" version="1.1" viewBox="0 0 48 48" width="48" xmlns="http://www.w3.org/2000/svg" xmlns:cc="http://creativecommons.org/ns#" xmlns:dc="http://purl.org/dc/elements/1.1/" xmlns:inkscape="http://www.inkscape.org/namespaces/inkscape" xmlns:rdf="http://www.w3.org/1999/02/22-rdf-syntax-ns#" xmlns:sodipodi="http://sodipodi.sourceforge.net/DTD/sodipodi-0.dtd" xmlns:svg="http://www.w3.org/2000/svg"><defs id="defs6487"><clipPath clipPathUnits="userSpaceOnUse" id="clipPath18427"><rect height="121.40158" id="rect18429" style="opacity:1;fill:#e9e9e9;fill-opacity:0.8041237;stroke:none;stroke-width:1;stroke-linecap:round;stroke-linejoin:round;stroke-miterlimit:4;stroke-dasharray:none;stroke-dashoffset:0;stroke-opacity:1;paint-order:fill markers stroke" width="88.351334" x="-269.08893" y="204.7206"/></clipPath><clipPath clipPathUnits="userSpaceOnUse" id="clipPath18443"><path d="m -222.26758,211.43642 a 31.996582,31.996582 0 0 0 -31.99804,31.99609 31.996582,31.996582 0 0 0 10.67773,23.81446 c -3.77662,1.10404 -6.52344,4.57592 -6.52344,8.71875 0,5.03653 4.05527,9.09179 9.0918,9.09179 l 7.63086,0 0,35.49219 c 0,1.71385 1.3799,3.09375 3.09375,3.09375 1.71385,0 3.0918,-1.3799 3.0918,-3.09375 l 0,-35.49219 1.59179,0 0,37.99219 c 0,1.71385 1.3799,3.09375 3.09375,3.09375 1.71385,0 3.09375,-1.3799 3.09375,-3.09375 l 0,-37.99219 1.625,0 0,35.49219 c 0,1.71385 1.3799,3.09375 3.09375,3.09375 1.71385,0 3.09375,-1.3799 3.09375,-3.09375 l 0,-35.49219 6.67969,0 c 5.03653,0 9.0918,-4.05526 9.0918,-9.09179 0,-3.7665 -2.26947,-6.98211 -5.51954,-8.36524 a 31.996582,31.996582 0 0 0 11.0879,-24.16797 31.996582,31.996582 0 0 0 -31.9961,-31.99609 z" id="path18445" style="opacity:1;fill:#e9e9e9;fill-opacity:0.8041237;stroke:none;stroke-width:1;stroke-linecap:round;stroke-linejoin:round;stroke-miterlimit:4;stroke-dasharray:none;stroke-dashoffset:0;stroke-opacity:1;paint-order:fill markers stroke"/></clipPath><clipPath clipPathUnits="userSpaceOnUse" id="clipPath5172"><rect height="32" id="rect5174" rx="0" ry="0" style="color:#000000;clip-rule:nonzero;display:inline;overflow:visible;visibility:visible;opacity:1;isolation:auto;mix-blend-mode:normal;color-interpolation:sRGB;color-interpolation-filters:linearRGB;solid-color:#000000;solid-opacity:1;fill:#000000;fill-opacity:0.51572331;fill-rule:nonzero;stroke:none;stroke-width:1;stroke-linecap:round;stroke-linejoin:round;stroke-miterlimit:4;stroke-dasharray:none;stroke-dashoffset:0;stroke-opacity:1;color-rendering:auto;image-rendering:auto;shape-rendering:auto;text-rendering:auto;enable-background:accumulate" width="32" x="0" y="1020.3622"/></clipPath><clipPath clipPathUnits="userSpaceOnUse" id="clipPath5284"><rect height="48" id="rect5286" style="color:#000000;clip-rule:nonzero;display:inline;overflow:visible;visibility:visible;opacity:1;isolation:auto;mix-blend-mode:normal;color-interpolation:sRGB;color-interpolation-filters:linearRGB;solid-color:#000000;solid-opacity:1;fill:#000000;fill-opacity:0.48427675;fill-rule:nonzero;stroke:none;stroke-width:0.40000001;stroke-linecap:round;stroke-linejoin:round;stroke-miterlimit:4;stroke-dasharray:none;stroke-dashoffset:0;stroke-opacity:1;color-rendering:auto;image-rendering:auto;shape-rendering:auto;text-rendering:auto;enable-background:accumulate" width="48" x="0" y="1004.3622"/></clipPath></defs><g id="layer1" style="display:inline" transform="translate(0,-1004.3622)"><g id="g7012" style="display:inline" transform="translate(-440.99997,-317.9995)"><path d="m 467,1324.3622 c -0.55401,0 -1,0.446 -1,1 l 0,1 c 0,0.554 0.44599,1 1,1 l 10.00391,0 0.0156,6.4844 c 0.002,0.8253 0.67075,1.4938 1.49609,1.4961 l 6.48437,0.017 0,28.502 c 0,0.8569 -0.64305,1.5 -1.5,1.5 l -23,0 c -0.85695,0 -1.5,-0.6431 -1.5,-1.5 l 0,-1.5 c 0,-0.554 -0.44599,-1 -1,-1 l -1,0 c -0.55401,0 -1,0.446 -1,1 l 0,1.5 c 0,2.4671 2.03295,4.5 4.5,4.5 l 23,0 c 2.46705,0 4.5,-2.0329 4.5,-4.5 l 0,-30.4863 c -8e-5,-0.3978 -0.15815,-0.7793 -0.43945,-1.0606 l -7.51368,-7.5136 c -0.28126,-0.2814 -0.66274,-0.4394 -1.06054,-0.4395 z m -11,21 c 0,0.554 0.44599,1 1,1 l 1,0 c 0.55401,0 1,-0.446 1,-1 l 0,-10 c 0,-0.554 -0.44599,-1 -1,-1 l -1,0 c -0.55401,0 -1,0.446 -1,1 z" id="path6109" style="color:#000000;font-style:normal;font-variant:normal;font-weight:normal;font-stretch:normal;font-size:medium;line-height:normal;font-family:sans-serif;text-indent:0;text-align:start;text-decoration:none;text-decoration-line:none;text-decoration-style:solid;text-decoration-color:#000000;letter-spacing:normal;word-spacing:normal;text-transform:none;direction:ltr;block-progression:tb;writing-mode:lr-tb;baseline-shift:baseline;text-anchor:start;white-space:normal;clip-rule:nonzero;display:inline;overflow:visible;visibility:visible;opacity:1;isolation:auto;mix-blend-mode:normal;color-interpolation:sRGB;color-interpolation-filters:linearRGB;solid-color:#000000;solid-opacity:1;fill:#242730;fill-opacity:1;fill-rule:nonzero;stroke:none;stroke-width:3;stroke-linecap:round;stroke-linejoin:round;stroke-miterlimit:4;stroke-dasharray:none;stroke-dashoffset:0;stroke-opacity:1;color-rendering:auto;image-rendering:auto;shape-rendering:auto;text-rendering:auto;enable-background:accumulate"/><path d="m 460.5,1324.3622 c -2.46705,0 -4.5,2.0329 -4.5,4.5 l 0,2.5 c 0,0.554 0.44599,1 1,1 l 1,0 c 0.55401,0 1,-0.446 1,-1 l 0,-2.5 c 0,-0.8569 0.64305,-1.5 1.5,-1.5 l 2.5,0 c 0.55401,0 1,-0.446 1,-1 l 0,-1 c 0,-0.554 -0.44599,-1 -1,-1 l -2.5,0 z m -15.5,24 c -1.10801,0 -2,0.892 -2,2 l 0,7 c 0,1.108 0.89199,2 2,2 l 25,0 c 1.10801,0 2,-0.892 2,-2 l 0,-7 c 0,-1.108 -0.89199,-2 -2,-2 l -25,0 z m 17.9668,2.2344 c 1.1172,0 1.77734,0.63 1.77734,1.5371 0,0.6016 -0.28775,1.0124 -0.91797,1.2988 0.7257,0.2292 1.06055,0.6973 1.06055,1.4707 0,1.1363 -0.80294,1.8906 -2.1875,1.8906 -1.17449,0 -1.90039,-0.4502 -1.90039,-0.9277 0,-0.296 0.20095,-0.5156 0.53515,-0.5156 0.31511,0 0.77474,0.4219 1.4336,0.4219 0.59202,0 0.90625,-0.3353 0.90625,-0.9082 0,-0.7257 -0.31532,-0.8695 -0.95508,-0.8985 -0.36285,-0.01 -0.49609,-0.095 -0.49609,-0.4863 0,-0.4203 0.17122,-0.3915 0.48632,-0.4395 0.49654,-0.067 0.80274,-0.1521 0.80274,-0.7441 0,-0.487 -0.22916,-0.7442 -0.6875,-0.7442 -0.63022,0 -0.97374,0.4297 -1.36524,0.4297 -0.24826,0 -0.40234,-0.1831 -0.40234,-0.4218 0,-0.4966 0.77386,-0.9629 1.91016,-0.9629 z m -13.74219,0.5058 0.72656,0 c 0.32466,0 0.50673,0.1428 0.63086,0.4961 l 0.91602,2.6446 0.88867,-2.6446 c 0.12413,-0.3533 0.30425,-0.4961 0.6289,-0.4961 l 0.72657,0 c 0.40104,0 0.59179,0.1337 0.59179,0.5157 0,0.3342 -0.18142,0.5156 -0.51562,0.5156 l -0.0762,0 0.13281,3.4746 0.0762,0 c 0.33421,0 0.50781,0.1717 0.50781,0.5058 0,0.3916 -0.19248,0.5157 -0.58398,0.5157 l -1.04883,0 c -0.3915,0 -0.58398,-0.1241 -0.58398,-0.5157 0,-0.3341 0.17165,-0.5058 0.50586,-0.5058 l 0.0781,0 -0.0684,-2.8457 -0.6875,2.1211 c -0.10504,0.3247 -0.28624,0.4492 -0.5918,0.4492 -0.30556,0 -0.48676,-0.1245 -0.5918,-0.4492 l -0.67773,-2.1211 -0.0664,2.8457 0.0762,0 c 0.33421,0 0.50586,0.1717 0.50586,0.5058 0,0.3916 -0.19053,0.5157 -0.58203,0.5157 l -1.05078,0 c -0.3915,0 -0.58203,-0.1241 -0.58203,-0.5157 0,-0.3341 0.17165,-0.5058 0.50586,-0.5058 l 0.0762,0 0.13281,-3.4746 -0.0762,0 c -0.33421,0 -0.51562,-0.1814 -0.51562,-0.5156 0,-0.382 0.19075,-0.5157 0.59179,-0.5157 z m 6.24219,0 1.92773,0 c 1.53734,0 2.31055,0.6019 2.31055,1.7286 0,1.1936 -0.77321,1.8242 -2.31055,1.8242 l -0.79297,0 0,0.9531 0.46875,0 c 0.38195,0 0.57227,0.124 0.57227,0.5059 0,0.382 -0.19032,0.5156 -0.57227,0.5156 l -1.60351,0 c -0.38195,0 -0.57422,-0.1336 -0.57422,-0.5156 0,-0.3246 0.18294,-0.5059 0.49804,-0.5059 l 0.0762,0 0,-3.4746 -0.0684,0 c -0.32465,0 -0.50585,-0.1814 -0.50585,-0.5156 0,-0.3724 0.19227,-0.5157 0.57421,-0.5157 z m 1.13476,1.0684 0,1.4336 0.66016,0 c 0.73525,0 1.10742,-0.2587 1.10742,-0.7266 0,-0.4679 -0.37217,-0.707 -1.10742,-0.707 l -0.66016,0 z" id="path6111" style="color:#000000;font-style:normal;font-variant:normal;font-weight:normal;font-stretch:normal;font-size:medium;line-height:normal;font-family:sans-serif;text-indent:0;text-align:start;text-decoration:none;text-decoration-line:none;text-decoration-style:solid;text-decoration-color:#000000;letter-spacing:normal;word-spacing:normal;text-transform:none;direction:ltr;block-progression:tb;writing-mode:lr-tb;baseline-shift:baseline;text-anchor:start;white-space:normal;clip-rule:nonzero;display:inline;overflow:visible;visibility:visible;opacity:1;isolation:auto;mix-blend-mode:normal;color-interpolation:sRGB;color-interpolation-filters:linearRGB;solid-color:#000000;solid-opacity:1;fill:#11c111;fill-opacity:1;fill-rule:nonzero;stroke:none;stroke-width:3;stroke-linecap:round;stroke-linejoin:round;stroke-miterlimit:4;stroke-dasharray:none;stroke-dashoffset:0;stroke-opacity:1;color-rendering:auto;image-rendering:auto;shape-rendering:auto;text-rendering:auto;enable-background:accumulate"/></g></g></svg>