<?xml version="1.0" ?><svg height="48" id="svg6485" version="1.1" viewBox="0 0 48 48" width="48" xmlns="http://www.w3.org/2000/svg" xmlns:cc="http://creativecommons.org/ns#" xmlns:dc="http://purl.org/dc/elements/1.1/" xmlns:inkscape="http://www.inkscape.org/namespaces/inkscape" xmlns:rdf="http://www.w3.org/1999/02/22-rdf-syntax-ns#" xmlns:sodipodi="http://sodipodi.sourceforge.net/DTD/sodipodi-0.dtd" xmlns:svg="http://www.w3.org/2000/svg"><defs id="defs6487"><clipPath clipPathUnits="userSpaceOnUse" id="clipPath18427"><rect height="121.40158" id="rect18429" style="opacity:1;fill:#e9e9e9;fill-opacity:0.8041237;stroke:none;stroke-width:1;stroke-linecap:round;stroke-linejoin:round;stroke-miterlimit:4;stroke-dasharray:none;stroke-dashoffset:0;stroke-opacity:1;paint-order:fill markers stroke" width="88.351334" x="-269.08893" y="204.7206"/></clipPath><clipPath clipPathUnits="userSpaceOnUse" id="clipPath18443"><path d="m -222.26758,211.43642 a 31.996582,31.996582 0 0 0 -31.99804,31.99609 31.996582,31.996582 0 0 0 10.67773,23.81446 c -3.77662,1.10404 -6.52344,4.57592 -6.52344,8.71875 0,5.03653 4.05527,9.09179 9.0918,9.09179 l 7.63086,0 0,35.49219 c 0,1.71385 1.3799,3.09375 3.09375,3.09375 1.71385,0 3.0918,-1.3799 3.0918,-3.09375 l 0,-35.49219 1.59179,0 0,37.99219 c 0,1.71385 1.3799,3.09375 3.09375,3.09375 1.71385,0 3.09375,-1.3799 3.09375,-3.09375 l 0,-37.99219 1.625,0 0,35.49219 c 0,1.71385 1.3799,3.09375 3.09375,3.09375 1.71385,0 3.09375,-1.3799 3.09375,-3.09375 l 0,-35.49219 6.67969,0 c 5.03653,0 9.0918,-4.05526 9.0918,-9.09179 0,-3.7665 -2.26947,-6.98211 -5.51954,-8.36524 a 31.996582,31.996582 0 0 0 11.0879,-24.16797 31.996582,31.996582 0 0 0 -31.9961,-31.99609 z" id="path18445" style="opacity:1;fill:#e9e9e9;fill-opacity:0.8041237;stroke:none;stroke-width:1;stroke-linecap:round;stroke-linejoin:round;stroke-miterlimit:4;stroke-dasharray:none;stroke-dashoffset:0;stroke-opacity:1;paint-order:fill markers stroke"/></clipPath><clipPath clipPathUnits="userSpaceOnUse" id="clipPath5172"><rect height="32" id="rect5174" rx="0" ry="0" style="color:#000000;clip-rule:nonzero;display:inline;overflow:visible;visibility:visible;opacity:1;isolation:auto;mix-blend-mode:normal;color-interpolation:sRGB;color-interpolation-filters:linearRGB;solid-color:#000000;solid-opacity:1;fill:#000000;fill-opacity:0.51572331;fill-rule:nonzero;stroke:none;stroke-width:1;stroke-linecap:round;stroke-linejoin:round;stroke-miterlimit:4;stroke-dasharray:none;stroke-dashoffset:0;stroke-opacity:1;color-rendering:auto;image-rendering:auto;shape-rendering:auto;text-rendering:auto;enable-background:accumulate" width="32" x="0" y="1020.3622"/></clipPath><clipPath clipPathUnits="userSpaceOnUse" id="clipPath5284"><rect height="48" id="rect5286" style="color:#000000;clip-rule:nonzero;display:inline;overflow:visible;visibility:visible;opacity:1;isolation:auto;mix-blend-mode:normal;color-interpolation:sRGB;color-interpolation-filters:linearRGB;solid-color:#000000;solid-opacity:1;fill:#000000;fill-opacity:0.48427675;fill-rule:nonzero;stroke:none;stroke-width:0.40000001;stroke-linecap:round;stroke-linejoin:round;stroke-miterlimit:4;stroke-dasharray:none;stroke-dashoffset:0;stroke-opacity:1;color-rendering:auto;image-rendering:auto;shape-rendering:auto;text-rendering:auto;enable-background:accumulate" width="48" x="0" y="1004.3622"/></clipPath></defs><g id="layer1" style="display:inline" transform="translate(0,-1004.3622)"><g id="g11217" style="display:inline" transform="translate(-265.0004,-505.9995)"><path d="m 291,1512.3622 c -0.554,0 -1,0.446 -1,1 l 0,1 c 0,0.554 0.446,1 1,1 l 10.0039,0 0.016,6.4844 c 0,0.8253 0.6708,1.4938 1.4961,1.4961 l 6.4844,0.017 0,28.502 c 0,0.8569 -0.6431,1.5 -1.5,1.5 l -23,0 c -0.857,0 -1.5,-0.6431 -1.5,-1.5 l 0,-1.5 c 0,-0.554 -0.446,-1 -1,-1 l -1,0 c -0.554,0 -1,0.446 -1,1 l 0,1.5 c 0,2.4671 2.0329,4.5 4.5,4.5 l 23,0 c 2.467,0 4.5,-2.0329 4.5,-4.5 l 0,-30.4863 c -1e-4,-0.3978 -0.1582,-0.7793 -0.4395,-1.0606 l -7.5137,-7.5136 c -0.2812,-0.2814 -0.6627,-0.4394 -1.0605,-0.4395 z m -11,21 c 0,0.554 0.446,1 1,1 l 1,0 c 0.554,0 1,-0.446 1,-1 l 0,-10 c 0,-0.554 -0.446,-1 -1,-1 l -1,0 c -0.554,0 -1,0.446 -1,1 z" id="path9238" style="color:#000000;font-style:normal;font-variant:normal;font-weight:normal;font-stretch:normal;font-size:medium;line-height:normal;font-family:sans-serif;text-indent:0;text-align:start;text-decoration:none;text-decoration-line:none;text-decoration-style:solid;text-decoration-color:#000000;letter-spacing:normal;word-spacing:normal;text-transform:none;direction:ltr;block-progression:tb;writing-mode:lr-tb;baseline-shift:baseline;text-anchor:start;white-space:normal;clip-rule:nonzero;display:inline;overflow:visible;visibility:visible;opacity:1;isolation:auto;mix-blend-mode:normal;color-interpolation:sRGB;color-interpolation-filters:linearRGB;solid-color:#000000;solid-opacity:1;fill:#242730;fill-opacity:1;fill-rule:nonzero;stroke:none;stroke-width:3;stroke-linecap:round;stroke-linejoin:round;stroke-miterlimit:4;stroke-dasharray:none;stroke-dashoffset:0;stroke-opacity:1;color-rendering:auto;image-rendering:auto;shape-rendering:auto;text-rendering:auto;enable-background:accumulate"/><path d="m 284.5,508 c -2.467,0 -4.5,2.0329 -4.5,4.5 l 0,2.5 c 0,0.554 0.446,1 1,1 l 1,0 c 0.554,0 1,-0.446 1,-1 l 0,-2.5 c 0,-0.8569 0.6431,-1.5 1.5,-1.5 l 2.5,0 c 0.554,0 1,-0.446 1,-1 l 0,-1 c 0,-0.554 -0.446,-1 -1,-1 l -2.5,0 z M 269,532 c -1.10801,0 -2,0.892 -2,2 l 0,7 c 0,1.108 0.89199,2 2,2 l 25,0 c 1.10801,0 2,-0.892 2,-2 l 0,-7 c 0,-1.108 -0.89199,-2 -2,-2 l -25,0 z m 18.78906,2.24219 c 0.0382,0 0.085,0.01 0.13282,0.0195 l 0.83007,0.14258 c 0.0954,0.019 0.14453,0.097 0.14453,0.24023 l 0,3.29297 c 0.0286,0.01 0.0475,0.01 0.0762,0.01 0.18142,0 0.24804,-0.23829 0.41992,-0.23829 0.24827,0 0.41992,0.13435 0.41992,0.37305 0,0.057 -0.0102,0.12464 -0.0293,0.18164 l -0.10351,0.34375 c -0.0382,0.1339 -0.12414,0.19141 -0.25781,0.19141 l -0.5254,0 0,0.58203 0.27735,0 c 0.3915,0 0.59179,0.11502 0.59179,0.44922 10e-6,0.3342 -0.20029,0.4375 -0.59179,0.4375 l -1.96875,0 c -0.39149,0 -0.58203,-0.1033 -0.58203,-0.4375 0,-0.3342 0.19054,-0.44922 0.58203,-0.44922 l 0.67969,0 0,-0.58203 -2.14844,0 c -0.15277,0 -0.25,-0.096 -0.25,-0.28711 l 0,-0.28711 c 0,-0.1528 6.4e-4,-0.2758 0.11523,-0.4668 l 1.95703,-3.33398 c 0.0764,-0.1334 0.12543,-0.18164 0.23047,-0.18164 z m -13.88476,0.49804 0.72461,0 c 0.32465,0 0.50673,0.1428 0.63086,0.4961 l 0.91601,2.64453 0.88867,-2.64453 c 0.12413,-0.3533 0.30425,-0.4961 0.62891,-0.4961 l 0.72656,0 c 0.40104,0 0.5918,0.13363 0.5918,0.51563 0,0.3342 -0.18143,0.51562 -0.51563,0.51562 l -0.0762,0 0.13281,3.47461 0.0781,0 c 0.33421,0 0.50586,0.17176 0.50586,0.50586 0,0.3916 -0.19249,0.51563 -0.58399,0.51563 l -1.04882,0 c -0.3915,0 -0.58399,-0.12403 -0.58399,-0.51563 0,-0.3341 0.17361,-0.50586 0.50781,-0.50586 l 0.0762,0 -0.0684,-2.8457 -0.6875,2.12109 c -0.10503,0.3247 -0.28624,0.44922 -0.5918,0.44922 -0.30556,0 -0.48676,-0.12452 -0.5918,-0.44922 l -0.67773,-2.12109 -0.0664,2.8457 0.0762,0 c 0.33421,0 0.50586,0.17176 0.50586,0.50586 0,0.3916 -0.19053,0.51563 -0.58203,0.51563 l -1.05078,0 c -0.39149,0 -0.58203,-0.12403 -0.58203,-0.51563 0,-0.3341 0.17166,-0.50586 0.50586,-0.50586 l 0.0762,0 0.13477,-3.47461 -0.0781,0 c -0.33421,0 -0.51562,-0.18142 -0.51562,-0.51562 0,-0.382 0.19271,-0.51563 0.59375,-0.51563 z m 6.24023,0 1.92774,0 c 1.53734,0 2.31054,0.60182 2.31054,1.72852 0,1.1936 -0.7732,1.82422 -2.31054,1.82422 l -0.79102,0 0,0.95312 0.4668,0 c 0.38195,0 0.57226,0.12406 0.57226,0.50586 0,0.3821 -0.19031,0.51563 -0.57226,0.51563 l -1.60352,0 c -0.38195,0 -0.57422,-0.13353 -0.57422,-0.51563 0,-0.3245 0.18294,-0.50586 0.49805,-0.50586 l 0.0762,0 0,-3.47461 -0.0664,0 c -0.32465,0 -0.50781,-0.18142 -0.50781,-0.51562 0,-0.3724 0.19227,-0.51563 0.57422,-0.51563 z m 7.74024,0.6211 -1.46094,2.57812 1.46094,0 0,-2.57812 z m -6.60352,0.44726 0,1.4336 0.6582,0 c 0.73525,0 1.10743,-0.25867 1.10743,-0.72657 -10e-6,-0.4679 -0.37218,-0.70703 -1.10743,-0.70703 l -0.6582,0 z" id="path9240" style="color:#000000;font-style:normal;font-variant:normal;font-weight:normal;font-stretch:normal;font-size:medium;line-height:normal;font-family:sans-serif;text-indent:0;text-align:start;text-decoration:none;text-decoration-line:none;text-decoration-style:solid;text-decoration-color:#000000;letter-spacing:normal;word-spacing:normal;text-transform:none;direction:ltr;block-progression:tb;writing-mode:lr-tb;baseline-shift:baseline;text-anchor:start;white-space:normal;clip-rule:nonzero;display:inline;overflow:visible;visibility:visible;opacity:1;isolation:auto;mix-blend-mode:normal;color-interpolation:sRGB;color-interpolation-filters:linearRGB;solid-color:#000000;solid-opacity:1;fill:#11c111;fill-opacity:1;fill-rule:nonzero;stroke:none;stroke-width:3;stroke-linecap:round;stroke-linejoin:round;stroke-miterlimit:4;stroke-dasharray:none;stroke-dashoffset:0;stroke-opacity:1;color-rendering:auto;image-rendering:auto;shape-rendering:auto;text-rendering:auto;enable-background:accumulate" transform="translate(0,1004.3622)"/></g></g></svg>