<?xml version="1.0" ?><svg height="48" id="svg6485" version="1.1" viewBox="0 0 48 48" width="48" xmlns="http://www.w3.org/2000/svg" xmlns:cc="http://creativecommons.org/ns#" xmlns:dc="http://purl.org/dc/elements/1.1/" xmlns:inkscape="http://www.inkscape.org/namespaces/inkscape" xmlns:rdf="http://www.w3.org/1999/02/22-rdf-syntax-ns#" xmlns:sodipodi="http://sodipodi.sourceforge.net/DTD/sodipodi-0.dtd" xmlns:svg="http://www.w3.org/2000/svg"><defs id="defs6487"><clipPath clipPathUnits="userSpaceOnUse" id="clipPath18427"><rect height="121.40158" id="rect18429" style="opacity:1;fill:#e9e9e9;fill-opacity:0.8041237;stroke:none;stroke-width:1;stroke-linecap:round;stroke-linejoin:round;stroke-miterlimit:4;stroke-dasharray:none;stroke-dashoffset:0;stroke-opacity:1;paint-order:fill markers stroke" width="88.351334" x="-269.08893" y="204.7206"/></clipPath><clipPath clipPathUnits="userSpaceOnUse" id="clipPath18443"><path d="m -222.26758,211.43642 a 31.996582,31.996582 0 0 0 -31.99804,31.99609 31.996582,31.996582 0 0 0 10.67773,23.81446 c -3.77662,1.10404 -6.52344,4.57592 -6.52344,8.71875 0,5.03653 4.05527,9.09179 9.0918,9.09179 l 7.63086,0 0,35.49219 c 0,1.71385 1.3799,3.09375 3.09375,3.09375 1.71385,0 3.0918,-1.3799 3.0918,-3.09375 l 0,-35.49219 1.59179,0 0,37.99219 c 0,1.71385 1.3799,3.09375 3.09375,3.09375 1.71385,0 3.09375,-1.3799 3.09375,-3.09375 l 0,-37.99219 1.625,0 0,35.49219 c 0,1.71385 1.3799,3.09375 3.09375,3.09375 1.71385,0 3.09375,-1.3799 3.09375,-3.09375 l 0,-35.49219 6.67969,0 c 5.03653,0 9.0918,-4.05526 9.0918,-9.09179 0,-3.7665 -2.26947,-6.98211 -5.51954,-8.36524 a 31.996582,31.996582 0 0 0 11.0879,-24.16797 31.996582,31.996582 0 0 0 -31.9961,-31.99609 z" id="path18445" style="opacity:1;fill:#e9e9e9;fill-opacity:0.8041237;stroke:none;stroke-width:1;stroke-linecap:round;stroke-linejoin:round;stroke-miterlimit:4;stroke-dasharray:none;stroke-dashoffset:0;stroke-opacity:1;paint-order:fill markers stroke"/></clipPath><clipPath clipPathUnits="userSpaceOnUse" id="clipPath5172"><rect height="32" id="rect5174" rx="0" ry="0" style="color:#000000;clip-rule:nonzero;display:inline;overflow:visible;visibility:visible;opacity:1;isolation:auto;mix-blend-mode:normal;color-interpolation:sRGB;color-interpolation-filters:linearRGB;solid-color:#000000;solid-opacity:1;fill:#000000;fill-opacity:0.51572331;fill-rule:nonzero;stroke:none;stroke-width:1;stroke-linecap:round;stroke-linejoin:round;stroke-miterlimit:4;stroke-dasharray:none;stroke-dashoffset:0;stroke-opacity:1;color-rendering:auto;image-rendering:auto;shape-rendering:auto;text-rendering:auto;enable-background:accumulate" width="32" x="0" y="1020.3622"/></clipPath><clipPath clipPathUnits="userSpaceOnUse" id="clipPath5284"><rect height="48" id="rect5286" style="color:#000000;clip-rule:nonzero;display:inline;overflow:visible;visibility:visible;opacity:1;isolation:auto;mix-blend-mode:normal;color-interpolation:sRGB;color-interpolation-filters:linearRGB;solid-color:#000000;solid-opacity:1;fill:#000000;fill-opacity:0.48427675;fill-rule:nonzero;stroke:none;stroke-width:0.40000001;stroke-linecap:round;stroke-linejoin:round;stroke-miterlimit:4;stroke-dasharray:none;stroke-dashoffset:0;stroke-opacity:1;color-rendering:auto;image-rendering:auto;shape-rendering:auto;text-rendering:auto;enable-background:accumulate" width="48" x="0" y="1004.3622"/></clipPath></defs><g id="layer1" style="display:inline" transform="translate(0,-1004.3622)"><g id="g10042" style="display:inline" transform="translate(-955.0004,-655.9995)"><path d="m 981,1662.3622 c -0.554,0 -1,0.446 -1,1 l 0,1 c 0,0.554 0.446,1 1,1 l 10.0039,0 0.016,6.4844 c 0,0.8253 0.6708,1.4938 1.4961,1.4961 l 6.4844,0.017 0,28.502 c 0,0.8569 -0.6431,1.5 -1.5,1.5 l -23,0 c -0.857,0 -1.5,-0.6431 -1.5,-1.5 l 0,-1.5 c 0,-0.554 -0.446,-1 -1,-1 l -1,0 c -0.554,0 -1,0.446 -1,1 l 0,1.5 c 0,2.4671 2.0329,4.5 4.5,4.5 l 23,0 c 2.467,0 4.5,-2.0329 4.5,-4.5 l 0,-30.4863 c -10e-5,-0.3978 -0.1582,-0.7793 -0.4395,-1.0606 l -7.5137,-7.5136 c -0.2812,-0.2814 -0.6627,-0.4394 -1.0605,-0.4395 z m -11,21 c 0,0.554 0.446,1 1,1 l 1,0 c 0.554,0 1,-0.446 1,-1 l 0,-10 c 0,-0.554 -0.446,-1 -1,-1 l -1,0 c -0.554,0 -1,0.446 -1,1 z" id="path9676" style="color:#000000;font-style:normal;font-variant:normal;font-weight:normal;font-stretch:normal;font-size:medium;line-height:normal;font-family:sans-serif;text-indent:0;text-align:start;text-decoration:none;text-decoration-line:none;text-decoration-style:solid;text-decoration-color:#000000;letter-spacing:normal;word-spacing:normal;text-transform:none;direction:ltr;block-progression:tb;writing-mode:lr-tb;baseline-shift:baseline;text-anchor:start;white-space:normal;clip-rule:nonzero;display:inline;overflow:visible;visibility:visible;opacity:1;isolation:auto;mix-blend-mode:normal;color-interpolation:sRGB;color-interpolation-filters:linearRGB;solid-color:#000000;solid-opacity:1;fill:#242730;fill-opacity:1;fill-rule:nonzero;stroke:none;stroke-width:3;stroke-linecap:round;stroke-linejoin:round;stroke-miterlimit:4;stroke-dasharray:none;stroke-dashoffset:0;stroke-opacity:1;color-rendering:auto;image-rendering:auto;shape-rendering:auto;text-rendering:auto;enable-background:accumulate"/><path d="m 974.5,658 c -2.467,0 -4.5,2.0329 -4.5,4.5 l 0,2.5 c 0,0.554 0.446,1 1,1 l 1,0 c 0.554,0 1,-0.446 1,-1 l 0,-2.5 c 0,-0.8569 0.6431,-1.5 1.5,-1.5 l 2.5,0 c 0.554,0 1,-0.446 1,-1 l 0,-1 c 0,-0.554 -0.446,-1 -1,-1 l -2.5,0 z M 959,682 c -1.108,0 -2,0.892 -2,2 l 0,7 c 0,1.108 0.892,2 2,2 l 25,0 c 1.108,0 2,-0.892 2,-2 l 0,-7 c 0,-1.108 -0.892,-2 -2,-2 l -25,0 z m 18.99219,2.73047 4.00976,0 c 0.4871,0 0.50639,0.11413 0.52539,0.58203 l 0.0488,1.39453 0,0.0371 c 0,0.3724 -0.13329,0.55469 -0.49609,0.55469 -0.2865,0 -0.46875,-0.19963 -0.46875,-0.39063 0,-0.029 -0.01,-0.087 -0.01,-0.20117 l -0.0293,-0.94531 -0.97461,0 0,3.47461 0.7832,0 c 0.3915,0 0.58398,0.12422 0.58398,0.51562 0,0.363 -0.18298,0.51563 -0.58398,0.51563 l -2.76758,0 c -0.4011,0 -0.5918,-0.15263 -0.5918,-0.51563 0,-0.3914 0.2003,-0.51562 0.5918,-0.51562 l 0.7832,0 0,-3.47461 -0.9746,0 -0.0293,0.94531 0,0.11524 c 0,0.2961 -0.1708,0.47656 -0.4668,0.47656 -0.3629,0 -0.50586,-0.18229 -0.50586,-0.55469 l 0,-0.0371 0.0469,-1.39453 c 0.019,-0.4679 0.038,-0.58203 0.52539,-0.58203 z m -16.99414,0.01 1.92968,0 c 1.5374,0 2.31055,0.60182 2.31055,1.72852 0,1.1936 -0.77315,1.82422 -2.31055,1.82422 l -0.79296,0 0,0.95312 0.46875,0 c 0.3819,0 0.57226,0.12406 0.57226,0.50586 0,0.3821 -0.19036,0.51563 -0.57226,0.51563 l -1.60547,0 c -0.382,0 -0.57227,-0.13353 -0.57227,-0.51563 0,-0.3245 0.181,-0.50586 0.4961,-0.50586 l 0.0762,0 0,-3.47461 -0.0664,0 c -0.3246,0 -0.50586,-0.18142 -0.50586,-0.51562 0,-0.3724 0.19027,-0.51563 0.57227,-0.51563 z m 6.05078,0 1.74609,0 c 0.4201,0 0.45979,0.11324 0.58399,0.45704 l 1.47851,4.04882 0.0762,0 c 0.3342,0 0.51563,0.17176 0.51563,0.50586 0,0.3916 -0.2003,0.51563 -0.5918,0.51563 l -1.4043,0 c -0.39149,0 -0.59179,-0.12403 -0.59179,-0.51563 0,-0.3914 0.20029,-0.50586 0.59179,-0.50586 l 0.16407,0 -0.19141,-0.54297 -2.01562,0 -0.19922,0.54297 0.16211,0 c 0.3915,0 0.59179,0.11446 0.59179,0.50586 0,0.3916 -0.20029,0.51563 -0.59179,0.51563 l -1.20313,0 c -0.3915,0 -0.5918,-0.12403 -0.5918,-0.51563 0,-0.3341 0.18133,-0.50586 0.51563,-0.50586 l 0.0762,0 1.25,-3.47461 -0.38086,0 c -0.3915,0 -0.58203,-0.12412 -0.58203,-0.51562 0,-0.382 0.1907,-0.51563 0.5918,-0.51563 z m 5.30469,0 2.14843,0 c 1.3368,0 2.00391,0.53408 2.00391,1.51758 0,0.697 -0.38129,1.22241 -1.08789,1.47071 0.1337,0.076 0.19158,0.2018 0.26758,0.3164 l 0.76367,1.20313 c 0.047,-0.01 0.10458,-0.0117 0.14258,-0.0117 0.3629,0 0.54492,0.17202 0.54492,0.51562 0,0.3916 -0.2003,0.51563 -0.5918,0.51563 l -0.57422,0 c -0.3152,0 -0.39126,-0.10376 -0.50586,-0.28516 l -1.14453,-1.75586 c -0.086,-0.1333 -0.20052,-0.21093 -0.32422,-0.21094 l -0.43945,0 0,1.23243 0.0762,0 c 0.3342,0 0.50586,0.17166 0.50586,0.50586 0,0.3915 -0.19053,0.51562 -0.58203,0.51562 l -1.20312,0 c -0.3915,0 -0.58399,-0.13362 -0.58399,-0.51562 0,-0.3342 0.18116,-0.50586 0.50586,-0.50586 l 0.0762,0 0,-3.47657 -0.0762,0 c -0.3247,0 -0.50586,-0.18142 -0.50586,-0.51562 0,-0.382 0.19249,-0.51563 0.58399,-0.51563 z m 1.14453,1.00196 0,1.31836 0.63086,0 c 0.7161,0 1.04101,-0.14456 1.04101,-0.66016 0,-0.4774 -0.27727,-0.6582 -0.88867,-0.6582 l -0.7832,0 z m -5.08399,0.0293 -0.67968,1.9668 1.35742,0 -0.67774,-1.9668 z m -6.27929,0.0371 0,1.4336 0.6582,0 c 0.7353,0 1.10742,-0.25867 1.10742,-0.72657 0,-0.4679 -0.37212,-0.70703 -1.10742,-0.70703 l -0.6582,0 z" id="path9678" style="color:#000000;font-style:normal;font-variant:normal;font-weight:normal;font-stretch:normal;font-size:medium;line-height:normal;font-family:sans-serif;text-indent:0;text-align:start;text-decoration:none;text-decoration-line:none;text-decoration-style:solid;text-decoration-color:#000000;letter-spacing:normal;word-spacing:normal;text-transform:none;direction:ltr;block-progression:tb;writing-mode:lr-tb;baseline-shift:baseline;text-anchor:start;white-space:normal;clip-rule:nonzero;display:inline;overflow:visible;visibility:visible;opacity:1;isolation:auto;mix-blend-mode:normal;color-interpolation:sRGB;color-interpolation-filters:linearRGB;solid-color:#000000;solid-opacity:1;fill:#11c111;fill-opacity:1;fill-rule:nonzero;stroke:none;stroke-width:3;stroke-linecap:round;stroke-linejoin:round;stroke-miterlimit:4;stroke-dasharray:none;stroke-dashoffset:0;stroke-opacity:1;color-rendering:auto;image-rendering:auto;shape-rendering:auto;text-rendering:auto;enable-background:accumulate" transform="translate(0,1004.3622)"/></g></g></svg>