<?xml version="1.0" ?><svg height="48" id="svg6485" version="1.1" viewBox="0 0 48 48" width="48" xmlns="http://www.w3.org/2000/svg" xmlns:cc="http://creativecommons.org/ns#" xmlns:dc="http://purl.org/dc/elements/1.1/" xmlns:inkscape="http://www.inkscape.org/namespaces/inkscape" xmlns:rdf="http://www.w3.org/1999/02/22-rdf-syntax-ns#" xmlns:sodipodi="http://sodipodi.sourceforge.net/DTD/sodipodi-0.dtd" xmlns:svg="http://www.w3.org/2000/svg"><defs id="defs6487"><clipPath clipPathUnits="userSpaceOnUse" id="clipPath18427"><rect height="121.40158" id="rect18429" style="opacity:1;fill:#e9e9e9;fill-opacity:0.8041237;stroke:none;stroke-width:1;stroke-linecap:round;stroke-linejoin:round;stroke-miterlimit:4;stroke-dasharray:none;stroke-dashoffset:0;stroke-opacity:1;paint-order:fill markers stroke" width="88.351334" x="-269.08893" y="204.7206"/></clipPath><clipPath clipPathUnits="userSpaceOnUse" id="clipPath18443"><path d="m -222.26758,211.43642 a 31.996582,31.996582 0 0 0 -31.99804,31.99609 31.996582,31.996582 0 0 0 10.67773,23.81446 c -3.77662,1.10404 -6.52344,4.57592 -6.52344,8.71875 0,5.03653 4.05527,9.09179 9.0918,9.09179 l 7.63086,0 0,35.49219 c 0,1.71385 1.3799,3.09375 3.09375,3.09375 1.71385,0 3.0918,-1.3799 3.0918,-3.09375 l 0,-35.49219 1.59179,0 0,37.99219 c 0,1.71385 1.3799,3.09375 3.09375,3.09375 1.71385,0 3.09375,-1.3799 3.09375,-3.09375 l 0,-37.99219 1.625,0 0,35.49219 c 0,1.71385 1.3799,3.09375 3.09375,3.09375 1.71385,0 3.09375,-1.3799 3.09375,-3.09375 l 0,-35.49219 6.67969,0 c 5.03653,0 9.0918,-4.05526 9.0918,-9.09179 0,-3.7665 -2.26947,-6.98211 -5.51954,-8.36524 a 31.996582,31.996582 0 0 0 11.0879,-24.16797 31.996582,31.996582 0 0 0 -31.9961,-31.99609 z" id="path18445" style="opacity:1;fill:#e9e9e9;fill-opacity:0.8041237;stroke:none;stroke-width:1;stroke-linecap:round;stroke-linejoin:round;stroke-miterlimit:4;stroke-dasharray:none;stroke-dashoffset:0;stroke-opacity:1;paint-order:fill markers stroke"/></clipPath><clipPath clipPathUnits="userSpaceOnUse" id="clipPath5172"><rect height="32" id="rect5174" rx="0" ry="0" style="color:#000000;clip-rule:nonzero;display:inline;overflow:visible;visibility:visible;opacity:1;isolation:auto;mix-blend-mode:normal;color-interpolation:sRGB;color-interpolation-filters:linearRGB;solid-color:#000000;solid-opacity:1;fill:#000000;fill-opacity:0.51572331;fill-rule:nonzero;stroke:none;stroke-width:1;stroke-linecap:round;stroke-linejoin:round;stroke-miterlimit:4;stroke-dasharray:none;stroke-dashoffset:0;stroke-opacity:1;color-rendering:auto;image-rendering:auto;shape-rendering:auto;text-rendering:auto;enable-background:accumulate" width="32" x="0" y="1020.3622"/></clipPath><clipPath clipPathUnits="userSpaceOnUse" id="clipPath5284"><rect height="48" id="rect5286" style="color:#000000;clip-rule:nonzero;display:inline;overflow:visible;visibility:visible;opacity:1;isolation:auto;mix-blend-mode:normal;color-interpolation:sRGB;color-interpolation-filters:linearRGB;solid-color:#000000;solid-opacity:1;fill:#000000;fill-opacity:0.48427675;fill-rule:nonzero;stroke:none;stroke-width:0.40000001;stroke-linecap:round;stroke-linejoin:round;stroke-miterlimit:4;stroke-dasharray:none;stroke-dashoffset:0;stroke-opacity:1;color-rendering:auto;image-rendering:auto;shape-rendering:auto;text-rendering:auto;enable-background:accumulate" width="48" x="0" y="1004.3622"/></clipPath></defs><g id="layer1" style="display:inline" transform="translate(0,-1004.3622)"><g id="g9614" style="display:inline" transform="translate(-1097.0004,-505.9995)"><path d="m 1123,1512.3622 c -0.554,0 -1,0.446 -1,1 l 0,1 c 0,0.554 0.446,1 1,1 l 10.0039,0 0.016,6.4844 c 0,0.8253 0.6708,1.4938 1.4961,1.4961 l 6.4844,0.017 0,28.502 c 0,0.8569 -0.6431,1.5 -1.5,1.5 l -23,0 c -0.857,0 -1.5,-0.6431 -1.5,-1.5 l 0,-1.5 c 0,-0.554 -0.446,-1 -1,-1 l -1,0 c -0.554,0 -1,0.446 -1,1 l 0,1.5 c 0,2.4671 2.0329,4.5 4.5,4.5 l 23,0 c 2.467,0 4.5,-2.0329 4.5,-4.5 l 0,-30.4863 c -10e-5,-0.3978 -0.1582,-0.7793 -0.4395,-1.0606 l -7.5137,-7.5136 c -0.2812,-0.2814 -0.6627,-0.4394 -1.0605,-0.4395 z m -11,21 c 0,0.554 0.446,1 1,1 l 1,0 c 0.554,0 1,-0.446 1,-1 l 0,-10 c 0,-0.554 -0.446,-1 -1,-1 l -1,0 c -0.554,0 -1,0.446 -1,1 z" id="path7626" style="color:#000000;font-style:normal;font-variant:normal;font-weight:normal;font-stretch:normal;font-size:medium;line-height:normal;font-family:sans-serif;text-indent:0;text-align:start;text-decoration:none;text-decoration-line:none;text-decoration-style:solid;text-decoration-color:#000000;letter-spacing:normal;word-spacing:normal;text-transform:none;direction:ltr;block-progression:tb;writing-mode:lr-tb;baseline-shift:baseline;text-anchor:start;white-space:normal;clip-rule:nonzero;display:inline;overflow:visible;visibility:visible;opacity:1;isolation:auto;mix-blend-mode:normal;color-interpolation:sRGB;color-interpolation-filters:linearRGB;solid-color:#000000;solid-opacity:1;fill:#242730;fill-opacity:1;fill-rule:nonzero;stroke:none;stroke-width:3;stroke-linecap:round;stroke-linejoin:round;stroke-miterlimit:4;stroke-dasharray:none;stroke-dashoffset:0;stroke-opacity:1;color-rendering:auto;image-rendering:auto;shape-rendering:auto;text-rendering:auto;enable-background:accumulate"/><path d="m 1116.5,508 c -2.467,0 -4.5,2.0329 -4.5,4.5 l 0,2.5 c 0,0.554 0.446,1 1,1 l 1,0 c 0.554,0 1,-0.446 1,-1 l 0,-2.5 c 0,-0.8569 0.6431,-1.5 1.5,-1.5 l 2.5,0 c 0.554,0 1,-0.446 1,-1 l 0,-1 c 0,-0.554 -0.446,-1 -1,-1 l -2.5,0 z m -15.5,24 c -1.108,0 -2,0.892 -2,2 l 0,7 c 0,1.108 0.892,2 2,2 l 25,0 c 1.108,0 2,-0.892 2,-2 l 0,-7 c 0,-1.108 -0.892,-2 -2,-2 l -25,0 z m 12.3281,2.58594 c 0.4297,0 0.8217,0.0859 1.2227,0.25781 0.1051,-0.2289 0.2186,-0.25781 0.4765,-0.25781 0.3055,0 0.3826,0.0969 0.3926,0.49804 l 0.018,0.89649 0,0.0488 c 0,0.3533 -0.1137,0.49609 -0.4766,0.49609 -0.3819,0 -0.4205,-0.21025 -0.5351,-0.43945 -0.191,-0.3724 -0.5239,-0.58203 -0.9727,-0.58203 -0.5825,0 -0.9375,0.3056 -0.9375,0.6875 0,0.487 0.5356,0.53387 1.5,0.73437 1.1554,0.2387 1.6992,0.75587 1.6992,1.70117 0,1.1459 -0.8025,1.78516 -2.2539,1.78516 -0.4775,0 -0.9153,-0.049 -1.4023,-0.23047 -0.105,0.1812 -0.2295,0.23047 -0.4395,0.23047 -0.382,0 -0.5251,-0.11436 -0.5351,-0.50586 l -0.029,-1.09961 0,-0.0469 c 0,-0.401 0.1339,-0.55469 0.5254,-0.55469 0.3628,0 0.4122,0.26736 0.584,0.60156 0.2483,0.487 0.6666,0.7168 1.2968,0.7168 0.5633,0 0.9082,-0.23854 0.9082,-0.67774 0,-0.6016 -0.5355,-0.602 -1.5859,-0.8789 -1.0504,-0.2769 -1.6035,-0.63088 -1.6035,-1.57618 0,-1.05999 0.8784,-1.80468 2.1484,-1.80468 z m -7.4453,0.15429 0,0 1.9277,0 c 1.5373,0 2.3105,0.60182 2.3105,1.72852 0,1.1936 -0.7732,1.82422 -2.3105,1.82422 l -0.793,0 0,0.95312 0.4668,0 c 0.382,0 0.5742,0.12406 0.5742,0.50586 0,0.3821 -0.1922,0.51563 -0.5742,0.51563 l -1.6035,0 c -0.382,0 -0.5723,-0.13353 -0.5723,-0.51563 0,-0.3245 0.181,-0.50586 0.4961,-0.50586 l 0.076,0 0,-3.47461 -0.066,0 c -0.3246,0 -0.5078,-0.18142 -0.5078,-0.51562 0,-0.3724 0.1922,-0.51563 0.5742,-0.51563 z m 11.2891,0 0.8789,0 0.2773,0 c 0.8881,0 1.6224,0.02 2.1953,0.36329 0.7353,0.4488 1.1661,1.28888 1.1661,2.39648 0,1.1554 -0.4877,2.04312 -1.3184,2.48242 -0.487,0.2674 -1.0883,0.28516 -1.7949,0.28516 l -0.5254,0 -0.8789,0 c -0.3915,0 -0.5918,-0.12403 -0.5918,-0.51563 0,-0.3341 0.1813,-0.50586 0.5156,-0.50586 l 0.076,0 0,-3.47461 -0.076,0 c -0.3343,0 -0.5156,-0.18142 -0.5156,-0.51562 0,-0.382 0.1908,-0.51563 0.5918,-0.51563 z m 1.4804,1.00196 c -0.086,0 -0.1813,-4.4e-4 -0.2773,0.01 l 0,3.48438 c 0.095,0.01 0.1816,0.01 0.2676,0.01 1.165,0 1.709,-0.55276 1.709,-1.75586 0,-1.1745 -0.5535,-1.74804 -1.6993,-1.74804 z m -11.6308,0.0664 0,1.4336 0.6582,0 c 0.7353,0 1.1074,-0.25867 1.1074,-0.72657 0,-0.4679 -0.3721,-0.70703 -1.1074,-0.70703 l -0.6582,0 z" id="path7628" style="color:#000000;font-style:normal;font-variant:normal;font-weight:normal;font-stretch:normal;font-size:medium;line-height:normal;font-family:sans-serif;text-indent:0;text-align:start;text-decoration:none;text-decoration-line:none;text-decoration-style:solid;text-decoration-color:#000000;letter-spacing:normal;word-spacing:normal;text-transform:none;direction:ltr;block-progression:tb;writing-mode:lr-tb;baseline-shift:baseline;text-anchor:start;white-space:normal;clip-rule:nonzero;display:inline;overflow:visible;visibility:visible;opacity:1;isolation:auto;mix-blend-mode:normal;color-interpolation:sRGB;color-interpolation-filters:linearRGB;solid-color:#000000;solid-opacity:1;fill:#11c111;fill-opacity:1;fill-rule:nonzero;stroke:none;stroke-width:3;stroke-linecap:round;stroke-linejoin:round;stroke-miterlimit:4;stroke-dasharray:none;stroke-dashoffset:0;stroke-opacity:1;color-rendering:auto;image-rendering:auto;shape-rendering:auto;text-rendering:auto;enable-background:accumulate" transform="translate(0,1004.3622)"/></g></g></svg>