<?xml version="1.0" ?><svg height="48" id="svg6485" version="1.1" viewBox="0 0 48 48" width="48" xmlns="http://www.w3.org/2000/svg" xmlns:cc="http://creativecommons.org/ns#" xmlns:dc="http://purl.org/dc/elements/1.1/" xmlns:inkscape="http://www.inkscape.org/namespaces/inkscape" xmlns:rdf="http://www.w3.org/1999/02/22-rdf-syntax-ns#" xmlns:sodipodi="http://sodipodi.sourceforge.net/DTD/sodipodi-0.dtd" xmlns:svg="http://www.w3.org/2000/svg"><defs id="defs6487"><clipPath clipPathUnits="userSpaceOnUse" id="clipPath18427"><rect height="121.40158" id="rect18429" style="opacity:1;fill:#e9e9e9;fill-opacity:0.8041237;stroke:none;stroke-width:1;stroke-linecap:round;stroke-linejoin:round;stroke-miterlimit:4;stroke-dasharray:none;stroke-dashoffset:0;stroke-opacity:1;paint-order:fill markers stroke" width="88.351334" x="-269.08893" y="204.7206"/></clipPath><clipPath clipPathUnits="userSpaceOnUse" id="clipPath18443"><path d="m -222.26758,211.43642 a 31.996582,31.996582 0 0 0 -31.99804,31.99609 31.996582,31.996582 0 0 0 10.67773,23.81446 c -3.77662,1.10404 -6.52344,4.57592 -6.52344,8.71875 0,5.03653 4.05527,9.09179 9.0918,9.09179 l 7.63086,0 0,35.49219 c 0,1.71385 1.3799,3.09375 3.09375,3.09375 1.71385,0 3.0918,-1.3799 3.0918,-3.09375 l 0,-35.49219 1.59179,0 0,37.99219 c 0,1.71385 1.3799,3.09375 3.09375,3.09375 1.71385,0 3.09375,-1.3799 3.09375,-3.09375 l 0,-37.99219 1.625,0 0,35.49219 c 0,1.71385 1.3799,3.09375 3.09375,3.09375 1.71385,0 3.09375,-1.3799 3.09375,-3.09375 l 0,-35.49219 6.67969,0 c 5.03653,0 9.0918,-4.05526 9.0918,-9.09179 0,-3.7665 -2.26947,-6.98211 -5.51954,-8.36524 a 31.996582,31.996582 0 0 0 11.0879,-24.16797 31.996582,31.996582 0 0 0 -31.9961,-31.99609 z" id="path18445" style="opacity:1;fill:#e9e9e9;fill-opacity:0.8041237;stroke:none;stroke-width:1;stroke-linecap:round;stroke-linejoin:round;stroke-miterlimit:4;stroke-dasharray:none;stroke-dashoffset:0;stroke-opacity:1;paint-order:fill markers stroke"/></clipPath><clipPath clipPathUnits="userSpaceOnUse" id="clipPath5172"><rect height="32" id="rect5174" rx="0" ry="0" style="color:#000000;clip-rule:nonzero;display:inline;overflow:visible;visibility:visible;opacity:1;isolation:auto;mix-blend-mode:normal;color-interpolation:sRGB;color-interpolation-filters:linearRGB;solid-color:#000000;solid-opacity:1;fill:#000000;fill-opacity:0.51572331;fill-rule:nonzero;stroke:none;stroke-width:1;stroke-linecap:round;stroke-linejoin:round;stroke-miterlimit:4;stroke-dasharray:none;stroke-dashoffset:0;stroke-opacity:1;color-rendering:auto;image-rendering:auto;shape-rendering:auto;text-rendering:auto;enable-background:accumulate" width="32" x="0" y="1020.3622"/></clipPath><clipPath clipPathUnits="userSpaceOnUse" id="clipPath5284"><rect height="48" id="rect5286" style="color:#000000;clip-rule:nonzero;display:inline;overflow:visible;visibility:visible;opacity:1;isolation:auto;mix-blend-mode:normal;color-interpolation:sRGB;color-interpolation-filters:linearRGB;solid-color:#000000;solid-opacity:1;fill:#000000;fill-opacity:0.48427675;fill-rule:nonzero;stroke:none;stroke-width:0.40000001;stroke-linecap:round;stroke-linejoin:round;stroke-miterlimit:4;stroke-dasharray:none;stroke-dashoffset:0;stroke-opacity:1;color-rendering:auto;image-rendering:auto;shape-rendering:auto;text-rendering:auto;enable-background:accumulate" width="48" x="0" y="1004.3622"/></clipPath></defs><g id="layer1" style="display:inline" transform="translate(0,-1004.3622)"><g id="g7817" style="display:inline" transform="translate(-522.99997,-455.9995)"><path d="m 549,1462.3622 c -0.55401,0 -1,0.446 -1,1 l 0,1 c 0,0.554 0.44599,1 1,1 l 10.00391,0 0.0156,6.4844 c 0.002,0.8253 0.67075,1.4938 1.49609,1.4961 l 6.48437,0.017 0,28.502 c 0,0.8569 -0.64305,1.5 -1.5,1.5 l -23,0 c -0.85695,0 -1.5,-0.6431 -1.5,-1.5 l 0,-1.5 c 0,-0.554 -0.44599,-1 -1,-1 l -1,0 c -0.55401,0 -1,0.446 -1,1 l 0,1.5 c 0,2.4671 2.03295,4.5 4.5,4.5 l 23,0 c 2.46705,0 4.5,-2.0329 4.5,-4.5 l 0,-30.4863 c -8e-5,-0.3978 -0.15815,-0.7793 -0.43945,-1.0606 l -7.51368,-7.5136 c -0.28126,-0.2814 -0.66274,-0.4394 -1.06054,-0.4395 z m -11,21 c 0,0.554 0.44599,1 1,1 l 1,0 c 0.55401,0 1,-0.446 1,-1 l 0,-10 c 0,-0.554 -0.44599,-1 -1,-1 l -1,0 c -0.55401,0 -1,0.446 -1,1 z" id="path7124" style="color:#000000;font-style:normal;font-variant:normal;font-weight:normal;font-stretch:normal;font-size:medium;line-height:normal;font-family:sans-serif;text-indent:0;text-align:start;text-decoration:none;text-decoration-line:none;text-decoration-style:solid;text-decoration-color:#000000;letter-spacing:normal;word-spacing:normal;text-transform:none;direction:ltr;block-progression:tb;writing-mode:lr-tb;baseline-shift:baseline;text-anchor:start;white-space:normal;clip-rule:nonzero;display:inline;overflow:visible;visibility:visible;opacity:1;isolation:auto;mix-blend-mode:normal;color-interpolation:sRGB;color-interpolation-filters:linearRGB;solid-color:#000000;solid-opacity:1;fill:#242730;fill-opacity:1;fill-rule:nonzero;stroke:none;stroke-width:3;stroke-linecap:round;stroke-linejoin:round;stroke-miterlimit:4;stroke-dasharray:none;stroke-dashoffset:0;stroke-opacity:1;color-rendering:auto;image-rendering:auto;shape-rendering:auto;text-rendering:auto;enable-background:accumulate"/><path d="m 542.5,458 c -2.46705,0 -4.5,2.0329 -4.5,4.5 l 0,2.5 c 0,0.554 0.44599,1 1,1 l 1,0 c 0.55401,0 1,-0.446 1,-1 l 0,-2.5 c 0,-0.8569 0.64305,-1.5 1.5,-1.5 l 2.5,0 c 0.55401,0 1,-0.446 1,-1 l 0,-1 c 0,-0.554 -0.44599,-1 -1,-1 l -2.5,0 z M 527,482 c -1.10801,0 -2,0.892 -2,2 l 0,7 c 0,1.108 0.89199,2 2,2 l 25,0 c 1.10801,0 2,-0.892 2,-2 l 0,-7 c 0,-1.108 -0.89199,-2 -2,-2 l -25,0 z m 6.55078,1.9082 c 0.42969,0 0.82162,0.086 1.22266,0.25782 0.10504,-0.2288 0.21874,-0.25782 0.47656,-0.25782 0.30558,0 0.38258,0.0969 0.39258,0.49805 l 0.0176,0.89648 0,0.0488 c 0,0.3533 -0.11372,0.4961 -0.47657,0.4961 -0.38195,0 -0.42056,-0.21026 -0.53515,-0.43946 -0.19097,-0.3724 -0.52582,-0.58203 -0.97461,-0.58203 -0.58247,0 -0.93555,0.3056 -0.93555,0.6875 0,0.487 0.53558,0.53388 1.5,0.73438 1.15539,0.2387 1.69922,0.75577 1.69922,1.70117 0,1.1458 -0.8025,1.78516 -2.25391,1.78516 -0.47744,0 -0.91536,-0.049 -1.40234,-0.23047 -0.10504,0.1815 -0.22938,0.23047 -0.43945,0.23047 -0.38195,0 -0.52516,-0.11436 -0.53516,-0.50586 l -0.0293,-1.09961 0,-0.0469 c 0,-0.401 0.1339,-0.55469 0.52539,-0.55469 0.36285,0 0.41017,0.26737 0.58204,0.60157 0.24827,0.487 0.6686,0.71679 1.29882,0.71679 0.56337,0 0.90821,-0.23853 0.90821,-0.67773 0,-0.6016 -0.53558,-0.60201 -1.58594,-0.87891 -1.05036,-0.2769 -1.60352,-0.63087 -1.60352,-1.57617 0,-1.06 0.87846,-1.80469 2.14844,-1.80469 z m 5.81055,0 c 1.53734,0 2.62695,1.19235 2.62695,2.87305 0,1.6901 -1.10784,2.89453 -2.58789,2.89453 -0.0478,0 -0.15408,4.4e-4 -0.31641,-0.01 l -0.35351,0.36132 c 0.25781,-0.086 0.51563,-0.13281 0.77344,-0.13281 0.63977,0 1.00412,0.21875 1.27148,0.21875 0.28646,0 0.52387,-0.19922 0.71484,-0.19922 0.22917,0 0.40235,0.1994 0.40235,0.4668 0,0.3437 -0.45964,0.64062 -1.08985,0.64062 -0.60157,0 -1.03992,-0.29687 -1.50781,-0.29687 -0.58247,0 -0.98285,0.36328 -1.25976,0.36328 -0.26737,0 -0.47852,-0.20092 -0.47852,-0.44922 0,-0.191 0.14257,-0.3908 0.40039,-0.6582 l 0.4668,-0.47656 c -1.02079,-0.3729 -1.69727,-1.42476 -1.69727,-2.72266 0,-1.6807 1.07833,-2.87305 2.63477,-2.87305 z m 3.64453,0.15235 1.99414,0 c 0.38194,0 0.57422,0.14322 0.57422,0.51562 0,0.3819 -0.19228,0.51563 -0.57422,0.51563 l -0.41016,0 0,3.47461 2.11914,0 0,-0.83008 c 0,-0.4011 0.13542,-0.5918 0.50782,-0.5918 0.38195,0 0.50586,0.2003 0.50586,0.5918 l 0,1.43164 c 0,0.3339 -0.0968,0.41992 -0.48828,0.41992 l -4.22852,0 c -0.38195,0 -0.56445,-0.13362 -0.56445,-0.51562 0,-0.3819 0.1825,-0.50586 0.56445,-0.50586 l 0.41016,0 0,-3.47461 -0.41016,0 c -0.38195,0 -0.56445,-0.13373 -0.56445,-0.51563 0,-0.3724 0.1825,-0.51562 0.56445,-0.51562 z m -3.64453,0.92578 c -0.78299,0 -1.28906,0.64998 -1.28906,1.83398 0,1.1841 0.52516,1.8418 1.28906,1.8418 0.77345,0 1.28906,-0.6482 1.28906,-1.8418 0,-1.1936 -0.51561,-1.83398 -1.28906,-1.83398 z" id="path7126" style="color:#000000;font-style:normal;font-variant:normal;font-weight:normal;font-stretch:normal;font-size:medium;line-height:normal;font-family:sans-serif;text-indent:0;text-align:start;text-decoration:none;text-decoration-line:none;text-decoration-style:solid;text-decoration-color:#000000;letter-spacing:normal;word-spacing:normal;text-transform:none;direction:ltr;block-progression:tb;writing-mode:lr-tb;baseline-shift:baseline;text-anchor:start;white-space:normal;clip-rule:nonzero;display:inline;overflow:visible;visibility:visible;opacity:1;isolation:auto;mix-blend-mode:normal;color-interpolation:sRGB;color-interpolation-filters:linearRGB;solid-color:#000000;solid-opacity:1;fill:#11c111;fill-opacity:1;fill-rule:nonzero;stroke:none;stroke-width:3;stroke-linecap:round;stroke-linejoin:round;stroke-miterlimit:4;stroke-dasharray:none;stroke-dashoffset:0;stroke-opacity:1;color-rendering:auto;image-rendering:auto;shape-rendering:auto;text-rendering:auto;enable-background:accumulate" transform="translate(0,1004.3622)"/></g></g></svg>