<?xml version="1.0" ?><svg height="48" id="svg6485" version="1.1" viewBox="0 0 48 48" width="48" xmlns="http://www.w3.org/2000/svg" xmlns:cc="http://creativecommons.org/ns#" xmlns:dc="http://purl.org/dc/elements/1.1/" xmlns:inkscape="http://www.inkscape.org/namespaces/inkscape" xmlns:rdf="http://www.w3.org/1999/02/22-rdf-syntax-ns#" xmlns:sodipodi="http://sodipodi.sourceforge.net/DTD/sodipodi-0.dtd" xmlns:svg="http://www.w3.org/2000/svg"><defs id="defs6487"><clipPath clipPathUnits="userSpaceOnUse" id="clipPath18427"><rect height="121.40158" id="rect18429" style="opacity:1;fill:#e9e9e9;fill-opacity:0.8041237;stroke:none;stroke-width:1;stroke-linecap:round;stroke-linejoin:round;stroke-miterlimit:4;stroke-dasharray:none;stroke-dashoffset:0;stroke-opacity:1;paint-order:fill markers stroke" width="88.351334" x="-269.08893" y="204.7206"/></clipPath><clipPath clipPathUnits="userSpaceOnUse" id="clipPath18443"><path d="m -222.26758,211.43642 a 31.996582,31.996582 0 0 0 -31.99804,31.99609 31.996582,31.996582 0 0 0 10.67773,23.81446 c -3.77662,1.10404 -6.52344,4.57592 -6.52344,8.71875 0,5.03653 4.05527,9.09179 9.0918,9.09179 l 7.63086,0 0,35.49219 c 0,1.71385 1.3799,3.09375 3.09375,3.09375 1.71385,0 3.0918,-1.3799 3.0918,-3.09375 l 0,-35.49219 1.59179,0 0,37.99219 c 0,1.71385 1.3799,3.09375 3.09375,3.09375 1.71385,0 3.09375,-1.3799 3.09375,-3.09375 l 0,-37.99219 1.625,0 0,35.49219 c 0,1.71385 1.3799,3.09375 3.09375,3.09375 1.71385,0 3.09375,-1.3799 3.09375,-3.09375 l 0,-35.49219 6.67969,0 c 5.03653,0 9.0918,-4.05526 9.0918,-9.09179 0,-3.7665 -2.26947,-6.98211 -5.51954,-8.36524 a 31.996582,31.996582 0 0 0 11.0879,-24.16797 31.996582,31.996582 0 0 0 -31.9961,-31.99609 z" id="path18445" style="opacity:1;fill:#e9e9e9;fill-opacity:0.8041237;stroke:none;stroke-width:1;stroke-linecap:round;stroke-linejoin:round;stroke-miterlimit:4;stroke-dasharray:none;stroke-dashoffset:0;stroke-opacity:1;paint-order:fill markers stroke"/></clipPath><clipPath clipPathUnits="userSpaceOnUse" id="clipPath5172"><rect height="32" id="rect5174" rx="0" ry="0" style="color:#000000;clip-rule:nonzero;display:inline;overflow:visible;visibility:visible;opacity:1;isolation:auto;mix-blend-mode:normal;color-interpolation:sRGB;color-interpolation-filters:linearRGB;solid-color:#000000;solid-opacity:1;fill:#000000;fill-opacity:0.51572331;fill-rule:nonzero;stroke:none;stroke-width:1;stroke-linecap:round;stroke-linejoin:round;stroke-miterlimit:4;stroke-dasharray:none;stroke-dashoffset:0;stroke-opacity:1;color-rendering:auto;image-rendering:auto;shape-rendering:auto;text-rendering:auto;enable-background:accumulate" width="32" x="0" y="1020.3622"/></clipPath><clipPath clipPathUnits="userSpaceOnUse" id="clipPath5284"><rect height="48" id="rect5286" style="color:#000000;clip-rule:nonzero;display:inline;overflow:visible;visibility:visible;opacity:1;isolation:auto;mix-blend-mode:normal;color-interpolation:sRGB;color-interpolation-filters:linearRGB;solid-color:#000000;solid-opacity:1;fill:#000000;fill-opacity:0.48427675;fill-rule:nonzero;stroke:none;stroke-width:0.40000001;stroke-linecap:round;stroke-linejoin:round;stroke-miterlimit:4;stroke-dasharray:none;stroke-dashoffset:0;stroke-opacity:1;color-rendering:auto;image-rendering:auto;shape-rendering:auto;text-rendering:auto;enable-background:accumulate" width="48" x="0" y="1004.3622"/></clipPath></defs><g id="layer1" style="display:inline" transform="translate(0,-1004.3622)"><g id="g11405" style="display:inline" transform="translate(-677.0004,-455.9995)"><path d="m 703,1462.3622 c -0.554,0 -1,0.446 -1,1 l 0,1 c 0,0.554 0.446,1 1,1 l 10.0039,0 0.016,6.4844 c 0,0.8253 0.6708,1.4938 1.4961,1.4961 l 6.4844,0.017 0,28.502 c 0,0.8569 -0.6431,1.5 -1.5,1.5 l -23,0 c -0.857,0 -1.5,-0.6431 -1.5,-1.5 l 0,-1.5 c 0,-0.554 -0.446,-1 -1,-1 l -1,0 c -0.554,0 -1,0.446 -1,1 l 0,1.5 c 0,2.4671 2.0329,4.5 4.5,4.5 l 23,0 c 2.467,0 4.5,-2.0329 4.5,-4.5 l 0,-30.4863 c -10e-5,-0.3978 -0.1582,-0.7793 -0.4395,-1.0606 l -7.5137,-7.5136 c -0.2812,-0.2814 -0.6627,-0.4394 -1.0605,-0.4395 z m -11,21 c 0,0.554 0.446,1 1,1 l 1,0 c 0.554,0 1,-0.446 1,-1 l 0,-10 c 0,-0.554 -0.446,-1 -1,-1 l -1,0 c -0.554,0 -1,0.446 -1,1 z" id="path8854" style="color:#000000;font-style:normal;font-variant:normal;font-weight:normal;font-stretch:normal;font-size:medium;line-height:normal;font-family:sans-serif;text-indent:0;text-align:start;text-decoration:none;text-decoration-line:none;text-decoration-style:solid;text-decoration-color:#000000;letter-spacing:normal;word-spacing:normal;text-transform:none;direction:ltr;block-progression:tb;writing-mode:lr-tb;baseline-shift:baseline;text-anchor:start;white-space:normal;clip-rule:nonzero;display:inline;overflow:visible;visibility:visible;opacity:1;isolation:auto;mix-blend-mode:normal;color-interpolation:sRGB;color-interpolation-filters:linearRGB;solid-color:#000000;solid-opacity:1;fill:#242730;fill-opacity:1;fill-rule:nonzero;stroke:none;stroke-width:3;stroke-linecap:round;stroke-linejoin:round;stroke-miterlimit:4;stroke-dasharray:none;stroke-dashoffset:0;stroke-opacity:1;color-rendering:auto;image-rendering:auto;shape-rendering:auto;text-rendering:auto;enable-background:accumulate"/><path d="m 696.5,458 c -2.467,0 -4.5,2.0329 -4.5,4.5 l 0,2.5 c 0,0.554 0.446,1 1,1 l 1,0 c 0.554,0 1,-0.446 1,-1 l 0,-2.5 c 0,-0.8569 0.6431,-1.5 1.5,-1.5 l 2.5,0 c 0.554,0 1,-0.446 1,-1 l 0,-1 c 0,-0.554 -0.446,-1 -1,-1 l -2.5,0 z M 681,482 c -1.10801,0 -2,0.892 -2,2 l 0,7 c 0,1.108 0.89199,2 2,2 l 25,0 c 1.10801,0 2,-0.892 2,-2 l 0,-7 c 0,-1.108 -0.89199,-2 -2,-2 l -25,0 z m 2.42773,2.98633 c 0.37071,0 0.70868,0.0739 1.05469,0.22265 0.0906,-0.1973 0.18968,-0.22265 0.41211,-0.22265 0.26363,0 0.32889,0.0819 0.33789,0.42773 l 0.0176,0.77539 0,0.041 c 0,0.3048 -0.10102,0.42969 -0.41406,0.42969 -0.32954,0 -0.36204,-0.18121 -0.46094,-0.37891 -0.16476,-0.3213 -0.45265,-0.50391 -0.83984,-0.50391 -0.50254,0 -0.8086,0.26435 -0.8086,0.59375 0,0.4203 0.46286,0.45972 1.29492,0.63282 0.99682,0.2059 1.46485,0.65109 1.46485,1.46679 0,0.9886 -0.69115,1.54102 -1.94336,1.54102 -0.4119,0 -0.79079,-0.0411 -1.21094,-0.19727 -0.0906,0.1568 -0.19766,0.19727 -0.37891,0.19727 -0.32952,0 -0.45389,-0.0981 -0.46289,-0.43555 l -0.0234,-0.94922 0,-0.041 c 0,-0.3459 0.11536,-0.47656 0.45312,-0.47656 0.31306,0 0.35562,0.22927 0.50391,0.51757 0.21419,0.4201 0.57543,0.61914 1.11914,0.61914 0.48606,0 0.7832,-0.20693 0.7832,-0.58593 0,-0.519 -0.46295,-0.51902 -1.36914,-0.75782 -0.9062,-0.239 -1.38281,-0.54367 -1.38281,-1.35937 0,-0.9145 0.75783,-1.55664 1.85351,-1.55664 z m 18.15039,0.125 3.46094,0 c 0.42019,0 0.43663,0.0979 0.45313,0.50195 l 0.041,1.20313 0,0.0332 c 0,0.3213 -0.11468,0.47656 -0.42773,0.47656 -0.24715,0 -0.4043,-0.17319 -0.4043,-0.33789 0,-0.025 -0.008,-0.073 -0.008,-0.17187 L 704.66797,486 l -0.8418,0 0,2.99805 0.67774,0 c 0.33777,0 0.50195,0.10761 0.50195,0.44531 0,0.3131 -0.15594,0.44531 -0.50195,0.44531 l -2.38868,0 c -0.346,0 -0.51171,-0.13221 -0.51171,-0.44531 0,-0.3377 0.17396,-0.44531 0.51171,-0.44531 l 0.67383,0 0,-2.99805 -0.83984,0 -0.0234,0.81641 0,0.0996 c 0,0.2555 -0.14892,0.41015 -0.4043,0.41015 -0.31307,0 -0.43554,-0.15526 -0.43554,-0.47656 l 0,-0.0332 0.041,-1.20313 c 0.0165,-0.4035 0.031,-0.50195 0.45117,-0.50195 z m -15.20312,0.01 0.9707,0 c 0.33777,0 0.50196,0.10556 0.50196,0.44336 0,0.3048 -0.14788,0.44727 -0.46094,0.44727 l -0.10742,0 0.14843,2.35547 0.4961,-1.73828 c 0.0742,-0.2718 0.24614,-0.38672 0.50976,-0.38672 0.26362,0 0.42737,0.11492 0.50977,0.38672 l 0.51172,1.73828 0.13867,-2.35547 -0.10742,0 c -0.31305,0 -0.46094,-0.14247 -0.46094,-0.44727 0,-0.3378 0.16419,-0.44336 0.50195,-0.44336 l 0.97461,0 c 0.33777,0 0.50196,0.10556 0.50196,0.44336 0,0.2883 -0.14915,0.44727 -0.4375,0.44727 l -0.0645,0 -0.39648,3.54297 c -0.0329,0.3125 -0.0899,0.33593 -0.35352,0.33593 l -0.18945,0 c -0.2801,0 -0.3219,-0.10651 -0.4043,-0.38671 l -0.73242,-2.38868 -0.70898,2.38868 c -0.0824,0.2802 -0.13245,0.38671 -0.4043,0.38671 l -0.18945,0 c -0.26361,0 -0.33038,-0.023 -0.36328,-0.33593 l -0.38477,-3.54297 -0.0684,0 c -0.28834,0 -0.43555,-0.15897 -0.43555,-0.44727 0,-0.3378 0.16614,-0.44336 0.50391,-0.44336 z m 10.32227,0 3.29492,0 c 0.33774,0 0.41992,0.081 0.41992,0.36914 l 0,0.89844 c 0,0.346 -0.11621,0.51172 -0.4375,0.51172 -0.32955,0 -0.42774,-0.17392 -0.42773,-0.51172 l 0,-0.41992 -1.86915,0 0,1.0293 0.69922,0 0,-0.0488 c 0,-0.3047 0.14026,-0.45117 0.41211,-0.45117 0.30482,0 0.41211,0.16425 0.41211,0.50195 l 0,0.83008 c 0,0.3377 -0.10729,0.5039 -0.41211,0.5039 -0.27185,0 -0.41211,-0.13943 -0.41211,-0.42773 l 0,-0.0762 -0.69922,0 0,1.17969 0.22071,0 c 0.32952,0 0.49609,0.10604 0.49609,0.43554 0,0.3296 -0.16657,0.44531 -0.49609,0.44531 l -1.20117,0 c -0.32953,0 -0.49415,-0.11571 -0.49415,-0.44531 10e-6,-0.28 0.15588,-0.43554 0.42774,-0.43554 l 0.0664,0 0,-2.99805 -0.0586,0 c -0.2801,0 -0.43554,-0.15897 -0.43555,-0.44727 0,-0.3212 0.16462,-0.44336 0.49415,-0.44336 z m -4.49415,0.01 2.38868,0 c 0.33778,0 0.50976,0.091 0.50976,0.4375 0,0.3378 -0.17198,0.44531 -0.50976,0.44531 l -0.67578,0 0,3 0.67578,0 c 0.33778,0 0.50195,0.096 0.50195,0.4336 0,0.3131 -0.15594,0.44726 -0.50195,0.44726 l -2.38868,0 c -0.33776,0 -0.51171,-0.10946 -0.51171,-0.44726 0,-0.338 0.17396,-0.4336 0.51171,-0.4336 l 0.67383,0 0,-3 -0.67383,0 c -0.33776,0 -0.51171,-0.10751 -0.51171,-0.44531 0,-0.3379 0.17396,-0.4375 0.51171,-0.4375 z" id="path8856" style="color:#000000;font-style:normal;font-variant:normal;font-weight:normal;font-stretch:normal;font-size:medium;line-height:normal;font-family:sans-serif;text-indent:0;text-align:start;text-decoration:none;text-decoration-line:none;text-decoration-style:solid;text-decoration-color:#000000;letter-spacing:normal;word-spacing:normal;text-transform:none;direction:ltr;block-progression:tb;writing-mode:lr-tb;baseline-shift:baseline;text-anchor:start;white-space:normal;clip-rule:nonzero;display:inline;overflow:visible;visibility:visible;opacity:1;isolation:auto;mix-blend-mode:normal;color-interpolation:sRGB;color-interpolation-filters:linearRGB;solid-color:#000000;solid-opacity:1;fill:#11c111;fill-opacity:1;fill-rule:nonzero;stroke:none;stroke-width:3;stroke-linecap:round;stroke-linejoin:round;stroke-miterlimit:4;stroke-dasharray:none;stroke-dashoffset:0;stroke-opacity:1;color-rendering:auto;image-rendering:auto;shape-rendering:auto;text-rendering:auto;enable-background:accumulate" transform="translate(0,1004.3622)"/></g></g></svg>