<?xml version="1.0" ?><svg height="48" id="svg6485" version="1.1" viewBox="0 0 48 48" width="48" xmlns="http://www.w3.org/2000/svg" xmlns:cc="http://creativecommons.org/ns#" xmlns:dc="http://purl.org/dc/elements/1.1/" xmlns:inkscape="http://www.inkscape.org/namespaces/inkscape" xmlns:rdf="http://www.w3.org/1999/02/22-rdf-syntax-ns#" xmlns:sodipodi="http://sodipodi.sourceforge.net/DTD/sodipodi-0.dtd" xmlns:svg="http://www.w3.org/2000/svg"><defs id="defs6487"><clipPath clipPathUnits="userSpaceOnUse" id="clipPath18427"><rect height="121.40158" id="rect18429" style="opacity:1;fill:#e9e9e9;fill-opacity:0.8041237;stroke:none;stroke-width:1;stroke-linecap:round;stroke-linejoin:round;stroke-miterlimit:4;stroke-dasharray:none;stroke-dashoffset:0;stroke-opacity:1;paint-order:fill markers stroke" width="88.351334" x="-269.08893" y="204.7206"/></clipPath><clipPath clipPathUnits="userSpaceOnUse" id="clipPath18443"><path d="m -222.26758,211.43642 a 31.996582,31.996582 0 0 0 -31.99804,31.99609 31.996582,31.996582 0 0 0 10.67773,23.81446 c -3.77662,1.10404 -6.52344,4.57592 -6.52344,8.71875 0,5.03653 4.05527,9.09179 9.0918,9.09179 l 7.63086,0 0,35.49219 c 0,1.71385 1.3799,3.09375 3.09375,3.09375 1.71385,0 3.0918,-1.3799 3.0918,-3.09375 l 0,-35.49219 1.59179,0 0,37.99219 c 0,1.71385 1.3799,3.09375 3.09375,3.09375 1.71385,0 3.09375,-1.3799 3.09375,-3.09375 l 0,-37.99219 1.625,0 0,35.49219 c 0,1.71385 1.3799,3.09375 3.09375,3.09375 1.71385,0 3.09375,-1.3799 3.09375,-3.09375 l 0,-35.49219 6.67969,0 c 5.03653,0 9.0918,-4.05526 9.0918,-9.09179 0,-3.7665 -2.26947,-6.98211 -5.51954,-8.36524 a 31.996582,31.996582 0 0 0 11.0879,-24.16797 31.996582,31.996582 0 0 0 -31.9961,-31.99609 z" id="path18445" style="opacity:1;fill:#e9e9e9;fill-opacity:0.8041237;stroke:none;stroke-width:1;stroke-linecap:round;stroke-linejoin:round;stroke-miterlimit:4;stroke-dasharray:none;stroke-dashoffset:0;stroke-opacity:1;paint-order:fill markers stroke"/></clipPath><clipPath clipPathUnits="userSpaceOnUse" id="clipPath5172"><rect height="32" id="rect5174" rx="0" ry="0" style="color:#000000;clip-rule:nonzero;display:inline;overflow:visible;visibility:visible;opacity:1;isolation:auto;mix-blend-mode:normal;color-interpolation:sRGB;color-interpolation-filters:linearRGB;solid-color:#000000;solid-opacity:1;fill:#000000;fill-opacity:0.51572331;fill-rule:nonzero;stroke:none;stroke-width:1;stroke-linecap:round;stroke-linejoin:round;stroke-miterlimit:4;stroke-dasharray:none;stroke-dashoffset:0;stroke-opacity:1;color-rendering:auto;image-rendering:auto;shape-rendering:auto;text-rendering:auto;enable-background:accumulate" width="32" x="0" y="1020.3622"/></clipPath><clipPath clipPathUnits="userSpaceOnUse" id="clipPath5284"><rect height="48" id="rect5286" style="color:#000000;clip-rule:nonzero;display:inline;overflow:visible;visibility:visible;opacity:1;isolation:auto;mix-blend-mode:normal;color-interpolation:sRGB;color-interpolation-filters:linearRGB;solid-color:#000000;solid-opacity:1;fill:#000000;fill-opacity:0.48427675;fill-rule:nonzero;stroke:none;stroke-width:0.40000001;stroke-linecap:round;stroke-linejoin:round;stroke-miterlimit:4;stroke-dasharray:none;stroke-dashoffset:0;stroke-opacity:1;color-rendering:auto;image-rendering:auto;shape-rendering:auto;text-rendering:auto;enable-background:accumulate" width="48" x="0" y="1004.3622"/></clipPath></defs><g id="layer1" style="display:inline" transform="translate(0,-1004.3622)"><g id="g7250" style="display:inline" transform="translate(-296.99997,-255.9995)"><path d="m 323,1262.3622 c -0.55401,0 -1,0.446 -1,1 l 0,1 c 0,0.554 0.44599,1 1,1 l 10.00391,0 0.0156,6.4844 c 0.002,0.8253 0.67075,1.4938 1.49609,1.4961 l 6.48437,0.017 0,28.502 c 0,0.8569 -0.64305,1.5 -1.5,1.5 l -23,0 c -0.85695,0 -1.5,-0.6431 -1.5,-1.5 l 0,-1.5 c 0,-0.554 -0.44599,-1 -1,-1 l -1,0 c -0.55401,0 -1,0.446 -1,1 l 0,1.5 c 0,2.4671 2.03295,4.5 4.5,4.5 l 23,0 c 2.46705,0 4.5,-2.0329 4.5,-4.5 l 0,-30.4863 c -8e-5,-0.3978 -0.15815,-0.7793 -0.43945,-1.0606 l -7.51368,-7.5136 c -0.28126,-0.2814 -0.66274,-0.4394 -1.06054,-0.4395 z m -11,21 c 0,0.554 0.44599,1 1,1 l 1,0 c 0.55401,0 1,-0.446 1,-1 l 0,-10 c 0,-0.554 -0.44599,-1 -1,-1 l -1,0 c -0.55401,0 -1,0.446 -1,1 z" id="path6732" style="color:#000000;font-style:normal;font-variant:normal;font-weight:normal;font-stretch:normal;font-size:medium;line-height:normal;font-family:sans-serif;text-indent:0;text-align:start;text-decoration:none;text-decoration-line:none;text-decoration-style:solid;text-decoration-color:#000000;letter-spacing:normal;word-spacing:normal;text-transform:none;direction:ltr;block-progression:tb;writing-mode:lr-tb;baseline-shift:baseline;text-anchor:start;white-space:normal;clip-rule:nonzero;display:inline;overflow:visible;visibility:visible;opacity:1;isolation:auto;mix-blend-mode:normal;color-interpolation:sRGB;color-interpolation-filters:linearRGB;solid-color:#000000;solid-opacity:1;fill:#242730;fill-opacity:1;fill-rule:nonzero;stroke:none;stroke-width:3;stroke-linecap:round;stroke-linejoin:round;stroke-miterlimit:4;stroke-dasharray:none;stroke-dashoffset:0;stroke-opacity:1;color-rendering:auto;image-rendering:auto;shape-rendering:auto;text-rendering:auto;enable-background:accumulate"/><path d="m 316.5,258 c -2.46705,0 -4.5,2.0329 -4.5,4.5 l 0,2.5 c 0,0.554 0.44599,1 1,1 l 1,0 c 0.55401,0 1,-0.446 1,-1 l 0,-2.5 c 0,-0.8569 0.64305,-1.5 1.5,-1.5 l 2.5,0 c 0.55401,0 1,-0.446 1,-1 l 0,-1 c 0,-0.554 -0.44599,-1 -1,-1 l -2.5,0 z M 301,282 c -1.10801,0 -2,0.892 -2,2 l 0,7 c 0,1.108 0.89199,2 2,2 l 25,0 c 1.10801,0 2,-0.892 2,-2 l 0,-7 c 0,-1.108 -0.89199,-2 -2,-2 l -25,0 z m 7.73047,3.08008 c 1.2686,0 2.18164,1.00667 2.18164,2.41797 -10e-6,1.4192 -0.91304,2.41797 -2.18164,2.41797 -1.25272,0 -2.1875,-0.99877 -2.1875,-2.41797 0,-1.4192 0.90306,-2.41797 2.1875,-2.41797 z m 9.48437,0 c 0.35679,0 0.68262,0.072 1.01563,0.21484 0.0872,-0.1902 0.18045,-0.21484 0.39453,-0.21484 0.25377,0 0.31817,0.0811 0.32617,0.41406 l 0.0156,0.74414 0,0.041 c 0,0.2934 -0.0952,0.41211 -0.39649,0.41211 -0.31715,0 -0.35021,-0.17494 -0.44531,-0.36524 -0.15858,-0.3092 -0.43594,-0.48437 -0.80859,-0.48437 -0.48365,0 -0.77735,0.25516 -0.77735,0.57226 0,0.4044 0.4453,0.44288 1.2461,0.60938 0.95938,0.1982 1.41015,0.62711 1.41015,1.41211 0,0.9514 -0.66593,1.48242 -1.87109,1.48242 -0.39644,0 -0.75969,-0.041 -1.16406,-0.19141 -0.0872,0.1504 -0.1908,0.19141 -0.36524,0.19141 -0.31714,0 -0.43536,-0.095 -0.44336,-0.41992 l -0.0254,-0.91407 0,-0.0371 c 0,-0.33301 0.11243,-0.46094 0.4375,-0.46094 0.30129,0 0.3397,0.22054 0.48242,0.49804 0.20615,0.4043 0.55483,0.59571 1.07813,0.59571 0.46779,0 0.7539,-0.1978 0.7539,-0.5625 10e-6,-0.4995 -0.44424,-0.50057 -1.3164,-0.73047 -0.87216,-0.23 -1.33203,-0.52369 -1.33203,-1.3086 0,-0.8802 0.73064,-1.49804 1.78515,-1.49804 z m -15.91796,0.11914 3.33007,0 c 0.40435,0 0.41965,0.094 0.43555,0.48242 l 0.0391,1.1582 0,0.0312 c 0,0.3093 -0.11081,0.46094 -0.41211,0.46094 -0.23786,0 -0.38672,-0.16757 -0.38672,-0.32617 0,-0.024 -0.01,-0.0709 -0.01,-0.16602 l -0.0234,-0.78515 -0.80859,0 0,2.88476 0.65039,0 c 0.32507,0 0.48242,0.10274 0.48242,0.42774 0,0.3014 -0.14942,0.42969 -0.48242,0.42969 l -2.30078,0 c -0.33301,0 -0.49024,-0.12829 -0.49024,-0.42969 0,-0.325 0.16516,-0.42774 0.49024,-0.42774 l 0.65039,0 0,-2.88476 -0.80664,0 -0.0254,0.78515 0,0.0957 c 0,0.2458 -0.14289,0.39648 -0.38868,0.39648 -0.30129,0 -0.41992,-0.15164 -0.41992,-0.46094 l 0,-0.0312 0.041,-1.1582 c 0.0159,-0.3882 0.0312,-0.48242 0.43555,-0.48242 z m 19.07812,0 3.33008,0 c 0.40435,0 0.41966,0.094 0.43554,0.48242 l 0.0391,1.1582 0,0.0312 c 0,0.3093 -0.11083,0.46094 -0.41211,0.46094 -0.23787,0 -0.38672,-0.16757 -0.38672,-0.32617 0,-0.024 -0.01,-0.0709 -0.01,-0.16602 l -0.0234,-0.78515 -0.8086,0 0,2.88476 0.65039,0 c 0.32508,0 0.48243,0.10274 0.48243,0.42774 -1e-5,0.3014 -0.14942,0.42969 -0.48243,0.42969 l -2.30078,0 c -0.333,0 -0.49023,-0.12829 -0.49023,-0.42969 0,-0.325 0.16516,-0.42774 0.49023,-0.42774 l 0.65039,0 0,-2.88476 -0.80664,0 -0.0254,0.78515 0,0.0957 c 0,0.2458 -0.14289,0.39648 -0.38867,0.39648 -0.3013,0 -0.41992,-0.15164 -0.41992,-0.46094 l 0,-0.0312 0.041,-1.1582 c 0.0159,-0.3882 0.0312,-0.48242 0.43555,-0.48242 z m -9.08789,0.01 1.45117,0 c 0.34886,0 0.37935,0.093 0.48242,0.37891 l 1.23047,3.36133 0.0625,0 c 0.2775,0 0.42774,0.14242 0.42774,0.41992 0,0.325 -0.16516,0.42969 -0.49024,0.42969 l -1.16601,0 c -0.32508,0 -0.49219,-0.10469 -0.49219,-0.42969 0,-0.3251 0.16711,-0.41992 0.49219,-0.41992 l 0.13476,0 -0.16015,-0.44922 -1.67188,0 -0.16601,0.44922 0.13476,0 c 0.32508,0 0.49024,0.095 0.49024,0.41992 0,0.325 -0.16516,0.42969 -0.49024,0.42969 l -1,0 c -0.32508,0 -0.49023,-0.10469 -0.49023,-0.42969 0,-0.2775 0.15022,-0.41992 0.42773,-0.41992 l 0.0625,0 1.03906,-2.88477 -0.3164,0 c -0.32507,0 -0.48438,-0.10273 -0.48438,-0.42773 0,-0.3172 0.15919,-0.42774 0.49219,-0.42774 z m -3.55664,0.76758 c -0.65014,0 -1.07031,0.54034 -1.07031,1.52344 0,0.9832 0.43603,1.5293 1.07031,1.5293 0.64223,0 1.07031,-0.5382 1.07031,-1.5293 0,-0.9911 -0.42808,-1.52344 -1.07031,-1.52344 z m 4.68945,0.0879 -0.5625,1.63477 1.125,0 -0.5625,-1.63477 z" id="path6734" style="color:#000000;font-style:normal;font-variant:normal;font-weight:normal;font-stretch:normal;font-size:medium;line-height:normal;font-family:sans-serif;text-indent:0;text-align:start;text-decoration:none;text-decoration-line:none;text-decoration-style:solid;text-decoration-color:#000000;letter-spacing:normal;word-spacing:normal;text-transform:none;direction:ltr;block-progression:tb;writing-mode:lr-tb;baseline-shift:baseline;text-anchor:start;white-space:normal;clip-rule:nonzero;display:inline;overflow:visible;visibility:visible;opacity:1;isolation:auto;mix-blend-mode:normal;color-interpolation:sRGB;color-interpolation-filters:linearRGB;solid-color:#000000;solid-opacity:1;fill:#11c111;fill-opacity:1;fill-rule:nonzero;stroke:none;stroke-width:3;stroke-linecap:round;stroke-linejoin:round;stroke-miterlimit:4;stroke-dasharray:none;stroke-dashoffset:0;stroke-opacity:1;color-rendering:auto;image-rendering:auto;shape-rendering:auto;text-rendering:auto;enable-background:accumulate" transform="translate(0,1004.3622)"/></g></g></svg>