<?xml version="1.0" ?><svg height="48" id="svg6485" version="1.1" viewBox="0 0 48 48" width="48" xmlns="http://www.w3.org/2000/svg" xmlns:cc="http://creativecommons.org/ns#" xmlns:dc="http://purl.org/dc/elements/1.1/" xmlns:inkscape="http://www.inkscape.org/namespaces/inkscape" xmlns:rdf="http://www.w3.org/1999/02/22-rdf-syntax-ns#" xmlns:sodipodi="http://sodipodi.sourceforge.net/DTD/sodipodi-0.dtd" xmlns:svg="http://www.w3.org/2000/svg"><defs id="defs6487"><clipPath clipPathUnits="userSpaceOnUse" id="clipPath18427"><rect height="121.40158" id="rect18429" style="opacity:1;fill:#e9e9e9;fill-opacity:0.8041237;stroke:none;stroke-width:1;stroke-linecap:round;stroke-linejoin:round;stroke-miterlimit:4;stroke-dasharray:none;stroke-dashoffset:0;stroke-opacity:1;paint-order:fill markers stroke" width="88.351334" x="-269.08893" y="204.7206"/></clipPath><clipPath clipPathUnits="userSpaceOnUse" id="clipPath18443"><path d="m -222.26758,211.43642 a 31.996582,31.996582 0 0 0 -31.99804,31.99609 31.996582,31.996582 0 0 0 10.67773,23.81446 c -3.77662,1.10404 -6.52344,4.57592 -6.52344,8.71875 0,5.03653 4.05527,9.09179 9.0918,9.09179 l 7.63086,0 0,35.49219 c 0,1.71385 1.3799,3.09375 3.09375,3.09375 1.71385,0 3.0918,-1.3799 3.0918,-3.09375 l 0,-35.49219 1.59179,0 0,37.99219 c 0,1.71385 1.3799,3.09375 3.09375,3.09375 1.71385,0 3.09375,-1.3799 3.09375,-3.09375 l 0,-37.99219 1.625,0 0,35.49219 c 0,1.71385 1.3799,3.09375 3.09375,3.09375 1.71385,0 3.09375,-1.3799 3.09375,-3.09375 l 0,-35.49219 6.67969,0 c 5.03653,0 9.0918,-4.05526 9.0918,-9.09179 0,-3.7665 -2.26947,-6.98211 -5.51954,-8.36524 a 31.996582,31.996582 0 0 0 11.0879,-24.16797 31.996582,31.996582 0 0 0 -31.9961,-31.99609 z" id="path18445" style="opacity:1;fill:#e9e9e9;fill-opacity:0.8041237;stroke:none;stroke-width:1;stroke-linecap:round;stroke-linejoin:round;stroke-miterlimit:4;stroke-dasharray:none;stroke-dashoffset:0;stroke-opacity:1;paint-order:fill markers stroke"/></clipPath><clipPath clipPathUnits="userSpaceOnUse" id="clipPath5172"><rect height="32" id="rect5174" rx="0" ry="0" style="color:#000000;clip-rule:nonzero;display:inline;overflow:visible;visibility:visible;opacity:1;isolation:auto;mix-blend-mode:normal;color-interpolation:sRGB;color-interpolation-filters:linearRGB;solid-color:#000000;solid-opacity:1;fill:#000000;fill-opacity:0.51572331;fill-rule:nonzero;stroke:none;stroke-width:1;stroke-linecap:round;stroke-linejoin:round;stroke-miterlimit:4;stroke-dasharray:none;stroke-dashoffset:0;stroke-opacity:1;color-rendering:auto;image-rendering:auto;shape-rendering:auto;text-rendering:auto;enable-background:accumulate" width="32" x="0" y="1020.3622"/></clipPath><clipPath clipPathUnits="userSpaceOnUse" id="clipPath5284"><rect height="48" id="rect5286" style="color:#000000;clip-rule:nonzero;display:inline;overflow:visible;visibility:visible;opacity:1;isolation:auto;mix-blend-mode:normal;color-interpolation:sRGB;color-interpolation-filters:linearRGB;solid-color:#000000;solid-opacity:1;fill:#000000;fill-opacity:0.48427675;fill-rule:nonzero;stroke:none;stroke-width:0.40000001;stroke-linecap:round;stroke-linejoin:round;stroke-miterlimit:4;stroke-dasharray:none;stroke-dashoffset:0;stroke-opacity:1;color-rendering:auto;image-rendering:auto;shape-rendering:auto;text-rendering:auto;enable-background:accumulate" width="48" x="0" y="1004.3622"/></clipPath></defs><g id="layer1" style="display:inline" transform="translate(0,-1004.3622)"><g id="g10058" style="display:inline" transform="translate(-955.0004,-855.9995)"><path d="m 981,1862.3622 c -0.554,0 -1,0.446 -1,1 l 0,1 c 0,0.554 0.446,1 1,1 l 10.0039,0 0.016,6.4844 c 0,0.8253 0.6708,1.4938 1.4961,1.4961 l 6.4844,0.017 0,28.502 c 0,0.8569 -0.6431,1.5 -1.5,1.5 l -23,0 c -0.857,0 -1.5,-0.6431 -1.5,-1.5 l 0,-1.5 c 0,-0.554 -0.446,-1 -1,-1 l -1,0 c -0.554,0 -1,0.446 -1,1 l 0,1.5 c 0,2.4671 2.0329,4.5 4.5,4.5 l 23,0 c 2.467,0 4.5,-2.0329 4.5,-4.5 l 0,-30.4863 c -10e-5,-0.3978 -0.1582,-0.7793 -0.4395,-1.0606 l -7.5137,-7.5136 c -0.2812,-0.2814 -0.6627,-0.4394 -1.0605,-0.4395 z m -11,21 c 0,0.554 0.446,1 1,1 l 1,0 c 0.554,0 1,-0.446 1,-1 l 0,-10 c 0,-0.554 -0.446,-1 -1,-1 l -1,0 c -0.554,0 -1,0.446 -1,1 z" id="path9724" style="color:#000000;font-style:normal;font-variant:normal;font-weight:normal;font-stretch:normal;font-size:medium;line-height:normal;font-family:sans-serif;text-indent:0;text-align:start;text-decoration:none;text-decoration-line:none;text-decoration-style:solid;text-decoration-color:#000000;letter-spacing:normal;word-spacing:normal;text-transform:none;direction:ltr;block-progression:tb;writing-mode:lr-tb;baseline-shift:baseline;text-anchor:start;white-space:normal;clip-rule:nonzero;display:inline;overflow:visible;visibility:visible;opacity:1;isolation:auto;mix-blend-mode:normal;color-interpolation:sRGB;color-interpolation-filters:linearRGB;solid-color:#000000;solid-opacity:1;fill:#242730;fill-opacity:1;fill-rule:nonzero;stroke:none;stroke-width:3;stroke-linecap:round;stroke-linejoin:round;stroke-miterlimit:4;stroke-dasharray:none;stroke-dashoffset:0;stroke-opacity:1;color-rendering:auto;image-rendering:auto;shape-rendering:auto;text-rendering:auto;enable-background:accumulate"/><path d="m 974.5,858 c -2.467,0 -4.5,2.0329 -4.5,4.5 l 0,2.5 c 0,0.554 0.446,1 1,1 l 1,0 c 0.554,0 1,-0.446 1,-1 l 0,-2.5 c 0,-0.8569 0.6431,-1.5 1.5,-1.5 l 2.5,0 c 0.554,0 1,-0.446 1,-1 l 0,-1 c 0,-0.554 -0.446,-1 -1,-1 l -2.5,0 z M 959,882 c -1.108,0 -2,0.892 -2,2 l 0,7 c 0,1.108 0.892,2 2,2 l 25,0 c 1.108,0 2,-0.892 2,-2 l 0,-7 c 0,-1.108 -0.892,-2 -2,-2 l -25,0 z m 10.76172,3.14844 0.002,0 3.4043,0 c 0.413,0 0.42931,0.0969 0.44531,0.49414 l 0.041,1.18359 0,0.0332 c 0,0.31619 -0.11378,0.4707 -0.42188,0.4707 -0.2433,0 -0.39648,-0.17179 -0.39648,-0.33399 0,-0.024 -0.01,-0.073 -0.01,-0.16992 l -0.0254,-0.80273 -0.82617,0 0,2.95117 0.66406,0 c 0.3324,0 0.4961,0.105 0.4961,0.4375 0,0.3081 -0.1556,0.43945 -0.4961,0.43945 l -2.34961,0 c -0.339,-6e-4 -0.50195,-0.1301 -0.50195,-0.4375 0,-0.3325 0.17151,-0.43945 0.50391,-0.43945 l 0.66406,0 0,-2.95117 -0.82813,0 -0.0234,0.80273 0,0.0977 c 0,0.2514 -0.14509,0.40625 -0.39649,0.40625 -0.3081,0 -0.42969,-0.15451 -0.42969,-0.4707 l 0,-0.0332 0.041,-1.18359 c 0.016,-0.3968 0.0325,-0.49375 0.44336,-0.49414 z m -9.66602,0.01 1.01368,0 c 0.3405,0 0.50195,0.1132 0.50195,0.4375 0,0.2676 -0.13865,0.4215 -0.40625,0.4375 l 0.53515,0.75391 0.51954,-0.75391 c -0.2595,-0.024 -0.38868,-0.178 -0.38868,-0.4375 0,-0.3243 0.15354,-0.4375 0.49414,-0.4375 l 0.88282,0 c 0.3405,0 0.5039,0.1132 0.5039,0.4375 0,0.2919 -0.15507,0.44532 -0.45507,0.44532 -0.041,0 -0.072,5.3e-4 -0.11329,-0.01 l -0.98828,1.37109 1.16797,1.57227 c 0.032,0 0.0627,-0.01 0.0957,-0.01 0.3,0 0.45508,0.15342 0.45508,0.44532 0,0.3243 -0.1633,0.43945 -0.5039,0.43945 l -1.06055,0 c -0.3405,0 -0.50391,-0.11515 -0.50391,-0.43945 0,-0.2838 0.12998,-0.4215 0.42188,-0.4375 l -0.60742,-0.88282 -0.625,0.88282 c 0.3,0.01 0.44531,0.1456 0.44531,0.4375 0,0.3243 -0.16145,0.43945 -0.50195,0.43945 l -0.92383,0 c -0.3405,0 -0.49414,-0.11515 -0.49414,-0.43945 0,-0.2919 0.14531,-0.44532 0.44531,-0.44532 0.032,0 0.0657,0.01 0.0977,0.01 l 1.09375,-1.48242 -1.05469,-1.46094 c -0.032,0 -0.0637,0.01 -0.0957,0.01 -0.3,0 -0.45508,-0.15342 -0.45508,-0.44532 0,-0.3243 0.1633,-0.4375 0.5039,-0.4375 z m 4.82032,0 1.02148,0 c 0.3406,0 0.50195,0.1132 0.50195,0.4375 0,0.2838 -0.1537,0.4375 -0.4375,0.4375 l -0.0644,0 0,0.90821 1.29688,0 0,-0.90821 -0.0645,0 c -0.2838,0 -0.4375,-0.1537 -0.4375,-0.4375 0,-0.3243 0.16136,-0.4375 0.50196,-0.4375 l 1.02148,0 c 0.3405,0 0.48633,0.1132 0.48633,0.4375 0,0.2838 -0.13818,0.4375 -0.42188,0.4375 l -0.0644,0 0,2.95118 0.0644,0 c 0.2837,0 0.42188,0.14588 0.42188,0.42968 0,0.3324 -0.15393,0.43946 -0.48633,0.43946 l -1.02148,0 c -0.3325,0 -0.50196,-0.10706 -0.50196,-0.43946 0,-0.2838 0.1537,-0.42969 0.4375,-0.42968 l 0.0645,0 0,-1.16602 -1.29688,0 0,1.16602 0.0644,0 c 0.2838,0 0.4375,0.14588 0.4375,0.42968 0,0.3324 -0.16945,0.43946 -0.50195,0.43946 l -1.02148,0 c -0.3324,0 -0.49414,-0.10706 -0.49414,-0.43946 0,-0.2838 0.14588,-0.42969 0.42968,-0.42968 l 0.0645,0 0,-2.95118 -0.0645,0 c -0.2838,0 -0.42968,-0.1537 -0.42968,-0.4375 0,-0.3243 0.15364,-0.4375 0.49414,-0.4375 z m 9.5039,0 0.61524,0 c 0.2756,0 0.42975,0.12188 0.53515,0.42188 l 0.7793,2.24609 0.75391,-2.24609 c 0.1054,-0.3 0.25945,-0.42188 0.53515,-0.42188 l 0.61719,0 c 0.3406,0 0.50195,0.1132 0.50195,0.4375 0,0.2838 -0.1537,0.4375 -0.4375,0.4375 l -0.0664,0 0.11523,2.95118 0.0644,0 c 0.2838,0 0.42969,0.14588 0.42969,0.42968 0,0.3324 -0.16164,0.43946 -0.49414,0.43946 l -0.89258,0 c -0.3324,0 -0.49414,-0.10706 -0.49414,-0.43946 0,-0.2838 0.14589,-0.42969 0.42969,-0.42968 l 0.0644,0 -0.0566,-2.41602 -0.58398,1.80078 c -0.089,0.2757 -0.24256,0.38086 -0.50196,0.38086 -0.2595,0 -0.4149,-0.10516 -0.5039,-0.38086 l -0.57617,-1.80078 -0.0566,2.41602 0.0664,0 c 0.2838,0 0.42969,0.14588 0.42969,0.42968 0,0.3324 -0.16359,0.43946 -0.49609,0.43946 l -0.89063,0 c -0.3324,0 -0.49609,-0.10706 -0.49609,-0.43946 0,-0.2838 0.14588,-0.42969 0.42968,-0.42968 l 0.0645,0 0.11328,-2.95118 -0.0625,0 c -0.2838,0 -0.43945,-0.1537 -0.43945,-0.4375 0,-0.3243 0.1634,-0.4375 0.5039,-0.4375 z m 5.01563,0 1.69336,0 c 0.3243,0 0.48632,0.1213 0.48632,0.4375 0,0.3243 -0.16202,0.4375 -0.48632,0.4375 l -0.34766,0 0,2.95118 1.79883,0 0,-0.70508 c 0,-0.3405 0.11349,-0.50196 0.42969,-0.50196 0.3243,0 0.42968,0.16956 0.42968,0.50196 l 0,1.21679 c 0,0.2837 -0.0799,0.35743 -0.41211,0.35743 l -3.59179,0 c -0.3243,0 -0.47852,-0.11516 -0.47852,-0.43946 0,-0.3244 0.15422,-0.42968 0.47852,-0.42968 l 0.34765,0 0,-2.95118 -0.34765,0 c -0.3243,0 -0.47852,-0.1132 -0.47852,-0.4375 0,-0.3162 0.15422,-0.4375 0.47852,-0.4375 z" id="path9726" style="color:#000000;font-style:normal;font-variant:normal;font-weight:normal;font-stretch:normal;font-size:medium;line-height:normal;font-family:sans-serif;text-indent:0;text-align:start;text-decoration:none;text-decoration-line:none;text-decoration-style:solid;text-decoration-color:#000000;letter-spacing:normal;word-spacing:normal;text-transform:none;direction:ltr;block-progression:tb;writing-mode:lr-tb;baseline-shift:baseline;text-anchor:start;white-space:normal;clip-rule:nonzero;display:inline;overflow:visible;visibility:visible;opacity:1;isolation:auto;mix-blend-mode:normal;color-interpolation:sRGB;color-interpolation-filters:linearRGB;solid-color:#000000;solid-opacity:1;fill:#11c111;fill-opacity:1;fill-rule:nonzero;stroke:none;stroke-width:3;stroke-linecap:round;stroke-linejoin:round;stroke-miterlimit:4;stroke-dasharray:none;stroke-dashoffset:0;stroke-opacity:1;color-rendering:auto;image-rendering:auto;shape-rendering:auto;text-rendering:auto;enable-background:accumulate" transform="translate(0,1004.3622)"/></g></g></svg>