<?xml version="1.0" ?><svg height="48" id="svg6485" version="1.1" viewBox="0 0 48 48" width="48" xmlns="http://www.w3.org/2000/svg" xmlns:cc="http://creativecommons.org/ns#" xmlns:dc="http://purl.org/dc/elements/1.1/" xmlns:inkscape="http://www.inkscape.org/namespaces/inkscape" xmlns:rdf="http://www.w3.org/1999/02/22-rdf-syntax-ns#" xmlns:sodipodi="http://sodipodi.sourceforge.net/DTD/sodipodi-0.dtd" xmlns:svg="http://www.w3.org/2000/svg"><defs id="defs6487"><clipPath clipPathUnits="userSpaceOnUse" id="clipPath18427"><rect height="121.40158" id="rect18429" style="opacity:1;fill:#e9e9e9;fill-opacity:0.8041237;stroke:none;stroke-width:1;stroke-linecap:round;stroke-linejoin:round;stroke-miterlimit:4;stroke-dasharray:none;stroke-dashoffset:0;stroke-opacity:1;paint-order:fill markers stroke" width="88.351334" x="-269.08893" y="204.7206"/></clipPath><clipPath clipPathUnits="userSpaceOnUse" id="clipPath18443"><path d="m -222.26758,211.43642 a 31.996582,31.996582 0 0 0 -31.99804,31.99609 31.996582,31.996582 0 0 0 10.67773,23.81446 c -3.77662,1.10404 -6.52344,4.57592 -6.52344,8.71875 0,5.03653 4.05527,9.09179 9.0918,9.09179 l 7.63086,0 0,35.49219 c 0,1.71385 1.3799,3.09375 3.09375,3.09375 1.71385,0 3.0918,-1.3799 3.0918,-3.09375 l 0,-35.49219 1.59179,0 0,37.99219 c 0,1.71385 1.3799,3.09375 3.09375,3.09375 1.71385,0 3.09375,-1.3799 3.09375,-3.09375 l 0,-37.99219 1.625,0 0,35.49219 c 0,1.71385 1.3799,3.09375 3.09375,3.09375 1.71385,0 3.09375,-1.3799 3.09375,-3.09375 l 0,-35.49219 6.67969,0 c 5.03653,0 9.0918,-4.05526 9.0918,-9.09179 0,-3.7665 -2.26947,-6.98211 -5.51954,-8.36524 a 31.996582,31.996582 0 0 0 11.0879,-24.16797 31.996582,31.996582 0 0 0 -31.9961,-31.99609 z" id="path18445" style="opacity:1;fill:#e9e9e9;fill-opacity:0.8041237;stroke:none;stroke-width:1;stroke-linecap:round;stroke-linejoin:round;stroke-miterlimit:4;stroke-dasharray:none;stroke-dashoffset:0;stroke-opacity:1;paint-order:fill markers stroke"/></clipPath><clipPath clipPathUnits="userSpaceOnUse" id="clipPath5172"><rect height="32" id="rect5174" rx="0" ry="0" style="color:#000000;clip-rule:nonzero;display:inline;overflow:visible;visibility:visible;opacity:1;isolation:auto;mix-blend-mode:normal;color-interpolation:sRGB;color-interpolation-filters:linearRGB;solid-color:#000000;solid-opacity:1;fill:#000000;fill-opacity:0.51572331;fill-rule:nonzero;stroke:none;stroke-width:1;stroke-linecap:round;stroke-linejoin:round;stroke-miterlimit:4;stroke-dasharray:none;stroke-dashoffset:0;stroke-opacity:1;color-rendering:auto;image-rendering:auto;shape-rendering:auto;text-rendering:auto;enable-background:accumulate" width="32" x="0" y="1020.3622"/></clipPath><clipPath clipPathUnits="userSpaceOnUse" id="clipPath5284"><rect height="48" id="rect5286" style="color:#000000;clip-rule:nonzero;display:inline;overflow:visible;visibility:visible;opacity:1;isolation:auto;mix-blend-mode:normal;color-interpolation:sRGB;color-interpolation-filters:linearRGB;solid-color:#000000;solid-opacity:1;fill:#000000;fill-opacity:0.48427675;fill-rule:nonzero;stroke:none;stroke-width:0.40000001;stroke-linecap:round;stroke-linejoin:round;stroke-miterlimit:4;stroke-dasharray:none;stroke-dashoffset:0;stroke-opacity:1;color-rendering:auto;image-rendering:auto;shape-rendering:auto;text-rendering:auto;enable-background:accumulate" width="48" x="0" y="1004.3622"/></clipPath></defs><g id="layer1" style="display:inline" transform="translate(0,-1004.3622)"><g id="g11347" style="display:inline" transform="translate(-543.0004,-155.9995)"><path d="m 569,1162.3622 c -0.554,0 -1,0.446 -1,1 l 0,1 c 0,0.554 0.446,1 1,1 l 10.0039,0 0.016,6.4844 c 0,0.8253 0.6708,1.4938 1.4961,1.4961 l 6.4844,0.017 0,28.502 c 0,0.8569 -0.6431,1.5 -1.5,1.5 l -23,0 c -0.857,0 -1.5,-0.6431 -1.5,-1.5 l 0,-1.5 c 0,-0.554 -0.446,-1 -1,-1 l -1,0 c -0.554,0 -1,0.446 -1,1 l 0,1.5 c 0,2.4671 2.0329,4.5 4.5,4.5 l 23,0 c 2.467,0 4.5,-2.0329 4.5,-4.5 l 0,-30.4863 c -10e-5,-0.3978 -0.1582,-0.7793 -0.4395,-1.0606 l -7.5137,-7.5136 c -0.2812,-0.2814 -0.6627,-0.4394 -1.0605,-0.4395 z m -11,21 c 0,0.554 0.446,1 1,1 l 1,0 c 0.554,0 1,-0.446 1,-1 l 0,-10 c 0,-0.554 -0.446,-1 -1,-1 l -1,0 c -0.554,0 -1,0.446 -1,1 z" id="path8906" style="color:#000000;font-style:normal;font-variant:normal;font-weight:normal;font-stretch:normal;font-size:medium;line-height:normal;font-family:sans-serif;text-indent:0;text-align:start;text-decoration:none;text-decoration-line:none;text-decoration-style:solid;text-decoration-color:#000000;letter-spacing:normal;word-spacing:normal;text-transform:none;direction:ltr;block-progression:tb;writing-mode:lr-tb;baseline-shift:baseline;text-anchor:start;white-space:normal;clip-rule:nonzero;display:inline;overflow:visible;visibility:visible;opacity:1;isolation:auto;mix-blend-mode:normal;color-interpolation:sRGB;color-interpolation-filters:linearRGB;solid-color:#000000;solid-opacity:1;fill:#242730;fill-opacity:1;fill-rule:nonzero;stroke:none;stroke-width:3;stroke-linecap:round;stroke-linejoin:round;stroke-miterlimit:4;stroke-dasharray:none;stroke-dashoffset:0;stroke-opacity:1;color-rendering:auto;image-rendering:auto;shape-rendering:auto;text-rendering:auto;enable-background:accumulate"/><path d="m 562.5,158 c -2.467,0 -4.5,2.0329 -4.5,4.5 l 0,2.5 c 0,0.554 0.446,1 1,1 l 1,0 c 0.554,0 1,-0.446 1,-1 l 0,-2.5 c 0,-0.8569 0.6431,-1.5 1.5,-1.5 l 2.5,0 c 0.554,0 1,-0.446 1,-1 l 0,-1 c 0,-0.554 -0.446,-1 -1,-1 l -2.5,0 z M 547,182 c -1.10801,0 -2,0.892 -2,2 l 0,7 c 0,1.108 0.89199,2 2,2 l 25,0 c 1.10801,0 2,-0.892 2,-2 l 0,-7 c 0,-1.108 -0.89199,-2 -2,-2 l -25,0 z m 4.67969,2.74023 1.19336,0 c 0.40104,0 0.59179,0.13363 0.59179,0.51563 0,0.3151 -0.1634,0.49662 -0.47851,0.51562 l 0.63086,0.88868 0.61133,-0.88868 c -0.30555,-0.029 -0.45899,-0.21012 -0.45899,-0.51562 0,-0.382 0.18294,-0.51563 0.58399,-0.51563 l 1.03906,0 c 0.40104,0 0.59375,0.13363 0.59375,0.51563 0,0.3437 -0.18186,0.52539 -0.53516,0.52539 -0.0478,0 -0.0871,4.3e-4 -0.13476,-0.01 l -1.16407,1.61329 1.375,1.85156 c 0.0382,0 0.077,-0.01 0.11524,-0.01 0.35331,0 0.5332,0.18169 0.5332,0.52539 0,0.382 -0.19075,0.51563 -0.5918,0.51563 l -1.25,0 c -0.40105,0 -0.59179,-0.13363 -0.59179,-0.51563 0,-0.3342 0.15234,-0.49662 0.49609,-0.51562 l -0.7168,-1.04102 -0.73437,1.04102 c 0.3533,0.01 0.52539,0.17192 0.52539,0.51562 0,0.382 -0.19076,0.51563 -0.5918,0.51563 l -1.08984,0 c -0.40104,0 -0.58203,-0.13363 -0.58203,-0.51563 0,-0.3437 0.17209,-0.52539 0.52539,-0.52539 0.0382,0 0.077,0.01 0.11523,0.01 l 1.28907,-1.7461 -1.24219,-1.71875 c -0.0382,0 -0.077,0.01 -0.11524,0.01 -0.3533,0 -0.5332,-0.18169 -0.5332,-0.52539 0,-0.382 0.19075,-0.51563 0.5918,-0.51563 z m 5.54297,0 1.99609,0 c 0.38195,0 0.57227,0.14323 0.57227,0.51563 0,0.3819 -0.19032,0.51562 -0.57227,0.51562 l -0.41016,0 0,3.47461 2.11914,0 0,-0.83007 c 0,-0.4011 0.13346,-0.5918 0.50586,-0.5918 0.38195,0 0.50586,0.2003 0.50586,0.5918 l 0,1.43164 c 0,0.3341 -0.0948,0.41992 -0.48633,0.41992 l -4.23046,0 c -0.38194,0 -0.5625,-0.13363 -0.5625,-0.51563 0,-0.3819 0.18056,-0.50586 0.5625,-0.50586 l 0.41015,0 0,-3.47461 -0.41015,0 c -0.38194,0 -0.5625,-0.13372 -0.5625,-0.51562 0,-0.3724 0.18056,-0.51563 0.5625,-0.51563 z m 5.94531,0 2.14844,0 c 1.33682,0 2.0039,0.53408 2.0039,1.51758 0,0.697 -0.38129,1.22241 -1.08789,1.47071 0.13368,0.076 0.19118,0.2018 0.26758,0.3164 l 0.76367,1.20313 c 0.0477,-0.01 0.10438,-0.0117 0.14258,-0.0117 0.36285,0 0.54492,0.17192 0.54492,0.51562 0,0.3915 -0.20031,0.51563 -0.59179,0.51563 l -0.57227,0 c -0.3151,0 -0.39322,-0.10376 -0.50781,-0.28516 l -1.14453,-1.75586 c -0.0858,-0.1333 -0.2005,-0.21094 -0.32422,-0.21094 l -0.43946,0 0,1.23243 0.0762,0 c 0.3342,0 0.50585,0.17166 0.50585,0.50586 1e-5,0.3915 -0.19054,0.51562 -0.58203,0.51562 l -1.20312,0 c -0.3915,0 -0.58399,-0.13362 -0.58399,-0.51562 0,-0.3342 0.18316,-0.50586 0.50782,-0.50586 l 0.0762,0 0,-3.47657 -0.0762,0 c -0.32466,0 -0.50782,-0.18142 -0.50782,-0.51562 0,-0.382 0.19249,-0.51563 0.58399,-0.51563 z m 1.14453,1.00196 0,1.31836 0.63086,0 c 0.71615,0 1.04101,-0.14456 1.04102,-0.66016 0,-0.4774 -0.27756,-0.6582 -0.88868,-0.6582 l -0.7832,0 z" id="path8908" style="color:#000000;font-style:normal;font-variant:normal;font-weight:normal;font-stretch:normal;font-size:medium;line-height:normal;font-family:sans-serif;text-indent:0;text-align:start;text-decoration:none;text-decoration-line:none;text-decoration-style:solid;text-decoration-color:#000000;letter-spacing:normal;word-spacing:normal;text-transform:none;direction:ltr;block-progression:tb;writing-mode:lr-tb;baseline-shift:baseline;text-anchor:start;white-space:normal;clip-rule:nonzero;display:inline;overflow:visible;visibility:visible;opacity:1;isolation:auto;mix-blend-mode:normal;color-interpolation:sRGB;color-interpolation-filters:linearRGB;solid-color:#000000;solid-opacity:1;fill:#11c111;fill-opacity:1;fill-rule:nonzero;stroke:none;stroke-width:3;stroke-linecap:round;stroke-linejoin:round;stroke-miterlimit:4;stroke-dasharray:none;stroke-dashoffset:0;stroke-opacity:1;color-rendering:auto;image-rendering:auto;shape-rendering:auto;text-rendering:auto;enable-background:accumulate" transform="translate(0,1004.3622)"/></g></g></svg>