<?xml version="1.0" ?><svg height="48" id="svg6485" version="1.1" viewBox="0 0 48 48" width="48" xmlns="http://www.w3.org/2000/svg" xmlns:cc="http://creativecommons.org/ns#" xmlns:dc="http://purl.org/dc/elements/1.1/" xmlns:inkscape="http://www.inkscape.org/namespaces/inkscape" xmlns:rdf="http://www.w3.org/1999/02/22-rdf-syntax-ns#" xmlns:sodipodi="http://sodipodi.sourceforge.net/DTD/sodipodi-0.dtd" xmlns:svg="http://www.w3.org/2000/svg"><defs id="defs6487"><clipPath clipPathUnits="userSpaceOnUse" id="clipPath18427"><rect height="121.40158" id="rect18429" style="opacity:1;fill:#e9e9e9;fill-opacity:0.8041237;stroke:none;stroke-width:1;stroke-linecap:round;stroke-linejoin:round;stroke-miterlimit:4;stroke-dasharray:none;stroke-dashoffset:0;stroke-opacity:1;paint-order:fill markers stroke" width="88.351334" x="-269.08893" y="204.7206"/></clipPath><clipPath clipPathUnits="userSpaceOnUse" id="clipPath18443"><path d="m -222.26758,211.43642 a 31.996582,31.996582 0 0 0 -31.99804,31.99609 31.996582,31.996582 0 0 0 10.67773,23.81446 c -3.77662,1.10404 -6.52344,4.57592 -6.52344,8.71875 0,5.03653 4.05527,9.09179 9.0918,9.09179 l 7.63086,0 0,35.49219 c 0,1.71385 1.3799,3.09375 3.09375,3.09375 1.71385,0 3.0918,-1.3799 3.0918,-3.09375 l 0,-35.49219 1.59179,0 0,37.99219 c 0,1.71385 1.3799,3.09375 3.09375,3.09375 1.71385,0 3.09375,-1.3799 3.09375,-3.09375 l 0,-37.99219 1.625,0 0,35.49219 c 0,1.71385 1.3799,3.09375 3.09375,3.09375 1.71385,0 3.09375,-1.3799 3.09375,-3.09375 l 0,-35.49219 6.67969,0 c 5.03653,0 9.0918,-4.05526 9.0918,-9.09179 0,-3.7665 -2.26947,-6.98211 -5.51954,-8.36524 a 31.996582,31.996582 0 0 0 11.0879,-24.16797 31.996582,31.996582 0 0 0 -31.9961,-31.99609 z" id="path18445" style="opacity:1;fill:#e9e9e9;fill-opacity:0.8041237;stroke:none;stroke-width:1;stroke-linecap:round;stroke-linejoin:round;stroke-miterlimit:4;stroke-dasharray:none;stroke-dashoffset:0;stroke-opacity:1;paint-order:fill markers stroke"/></clipPath><clipPath clipPathUnits="userSpaceOnUse" id="clipPath5172"><rect height="32" id="rect5174" rx="0" ry="0" style="color:#000000;clip-rule:nonzero;display:inline;overflow:visible;visibility:visible;opacity:1;isolation:auto;mix-blend-mode:normal;color-interpolation:sRGB;color-interpolation-filters:linearRGB;solid-color:#000000;solid-opacity:1;fill:#000000;fill-opacity:0.51572331;fill-rule:nonzero;stroke:none;stroke-width:1;stroke-linecap:round;stroke-linejoin:round;stroke-miterlimit:4;stroke-dasharray:none;stroke-dashoffset:0;stroke-opacity:1;color-rendering:auto;image-rendering:auto;shape-rendering:auto;text-rendering:auto;enable-background:accumulate" width="32" x="0" y="1020.3622"/></clipPath><clipPath clipPathUnits="userSpaceOnUse" id="clipPath5284"><rect height="48" id="rect5286" style="color:#000000;clip-rule:nonzero;display:inline;overflow:visible;visibility:visible;opacity:1;isolation:auto;mix-blend-mode:normal;color-interpolation:sRGB;color-interpolation-filters:linearRGB;solid-color:#000000;solid-opacity:1;fill:#000000;fill-opacity:0.48427675;fill-rule:nonzero;stroke:none;stroke-width:0.40000001;stroke-linecap:round;stroke-linejoin:round;stroke-miterlimit:4;stroke-dasharray:none;stroke-dashoffset:0;stroke-opacity:1;color-rendering:auto;image-rendering:auto;shape-rendering:auto;text-rendering:auto;enable-background:accumulate" width="48" x="0" y="1004.3622"/></clipPath></defs><g id="layer1" style="display:inline" transform="translate(0,-1004.3622)"><g id="g11351" style="display:inline" transform="translate(-543.0004,-205.9995)"><path d="m 569,1212.3622 c -0.554,0 -1,0.446 -1,1 l 0,1 c 0,0.554 0.446,1 1,1 l 10.0039,0 0.016,6.4844 c 0,0.8253 0.6708,1.4938 1.4961,1.4961 l 6.4844,0.017 0,28.502 c 0,0.8569 -0.6431,1.5 -1.5,1.5 l -23,0 c -0.857,0 -1.5,-0.6431 -1.5,-1.5 l 0,-1.5 c 0,-0.554 -0.446,-1 -1,-1 l -1,0 c -0.554,0 -1,0.446 -1,1 l 0,1.5 c 0,2.4671 2.0329,4.5 4.5,4.5 l 23,0 c 2.467,0 4.5,-2.0329 4.5,-4.5 l 0,-30.4863 c -10e-5,-0.3978 -0.1582,-0.7793 -0.4395,-1.0606 l -7.5137,-7.5136 c -0.2812,-0.2814 -0.6627,-0.4394 -1.0605,-0.4395 z m -11,21 c 0,0.554 0.446,1 1,1 l 1,0 c 0.554,0 1,-0.446 1,-1 l 0,-10 c 0,-0.554 -0.446,-1 -1,-1 l -1,0 c -0.554,0 -1,0.446 -1,1 z" id="path8918" style="color:#000000;font-style:normal;font-variant:normal;font-weight:normal;font-stretch:normal;font-size:medium;line-height:normal;font-family:sans-serif;text-indent:0;text-align:start;text-decoration:none;text-decoration-line:none;text-decoration-style:solid;text-decoration-color:#000000;letter-spacing:normal;word-spacing:normal;text-transform:none;direction:ltr;block-progression:tb;writing-mode:lr-tb;baseline-shift:baseline;text-anchor:start;white-space:normal;clip-rule:nonzero;display:inline;overflow:visible;visibility:visible;opacity:1;isolation:auto;mix-blend-mode:normal;color-interpolation:sRGB;color-interpolation-filters:linearRGB;solid-color:#000000;solid-opacity:1;fill:#242730;fill-opacity:1;fill-rule:nonzero;stroke:none;stroke-width:3;stroke-linecap:round;stroke-linejoin:round;stroke-miterlimit:4;stroke-dasharray:none;stroke-dashoffset:0;stroke-opacity:1;color-rendering:auto;image-rendering:auto;shape-rendering:auto;text-rendering:auto;enable-background:accumulate"/><path d="m 562.5,208 c -2.467,0 -4.5,2.0329 -4.5,4.5 l 0,2.5 c 0,0.554 0.446,1 1,1 l 1,0 c 0.554,0 1,-0.446 1,-1 l 0,-2.5 c 0,-0.8569 0.6431,-1.5 1.5,-1.5 l 2.5,0 c 0.554,0 1,-0.446 1,-1 l 0,-1 c 0,-0.554 -0.446,-1 -1,-1 l -2.5,0 z M 547,232 c -1.10801,0 -2,0.892 -2,2 l 0,7 c 0,1.108 0.89199,2 2,2 l 25,0 c 1.10801,0 2,-0.892 2,-2 l 0,-7 c 0,-1.108 -0.89199,-2 -2,-2 l -25,0 z m 18.2832,2.58594 c 0.42969,0 0.81966,0.0859 1.22071,0.25781 0.10503,-0.2289 0.2207,-0.25781 0.47851,-0.25781 0.3056,0 0.38063,0.0969 0.39063,0.49804 l 0.0195,0.89649 0,0.0488 c 0,0.3533 -0.11371,0.49609 -0.47656,0.49609 -0.38195,0 -0.42057,-0.21025 -0.53516,-0.43945 -0.19097,-0.3724 -0.52582,-0.58203 -0.97461,-0.58203 -0.58247,0 -0.93555,0.3056 -0.93555,0.6875 0,0.487 0.53558,0.53387 1.5,0.73437 1.15539,0.2387 1.69922,0.75577 1.69922,1.70117 0,1.1458 -0.80249,1.78516 -2.2539,1.78516 -0.47743,0 -0.91732,-0.049 -1.4043,-0.23047 -0.10504,0.1812 -0.22938,0.23047 -0.43945,0.23047 -0.38195,0 -0.52321,-0.11436 -0.53321,-0.50586 l -0.0293,-1.09961 0,-0.0469 c 0,-0.401 0.1339,-0.55469 0.52539,-0.55469 0.36286,0 0.41015,0.26736 0.58203,0.60156 0.24826,0.487 0.66862,0.7168 1.29883,0.7168 0.56338,0 0.90625,-0.23854 0.90625,-0.67774 0,-0.6016 -0.53363,-0.602 -1.58399,-0.8789 -1.05036,-0.2769 -1.60351,-0.63088 -1.60351,-1.57618 0,-1.05999 0.87845,-1.80468 2.14843,-1.80468 z m -13.32226,0.15429 1.19336,0 c 0.40105,0 0.59179,0.13363 0.59179,0.51563 0,0.3151 -0.16145,0.49662 -0.47656,0.51562 l 0.62891,0.88868 0.61133,-0.88868 c -0.30556,-0.029 -0.45704,-0.21012 -0.45704,-0.51562 0,-0.382 0.181,-0.51563 0.58204,-0.51563 l 1.04101,0 c 0.40104,0 0.5918,0.13363 0.5918,0.51563 0,0.3437 -0.18186,0.52539 -0.53516,0.52539 -0.0478,0 -0.0851,4.3e-4 -0.13281,-0.01 l -1.16602,1.61329 1.375,1.85156 c 0.0382,0 0.077,-0.01 0.11524,-0.01 0.3533,0 0.53515,0.18169 0.53515,0.52539 0,0.382 -0.1927,0.51563 -0.59375,0.51563 l -1.25,0 c -0.40105,0 -0.59179,-0.13363 -0.59179,-0.51563 0,-0.3342 0.15234,-0.49662 0.49609,-0.51562 l -0.7168,-1.04102 -0.73437,1.04102 c 0.35331,0.01 0.52539,0.17192 0.52539,0.51562 0,0.382 -0.19075,0.51563 -0.5918,0.51563 l -1.08984,0 c -0.40105,0 -0.58203,-0.13363 -0.58203,-0.51563 0,-0.3437 0.17209,-0.52539 0.52539,-0.52539 0.0382,0 0.077,0.01 0.11523,0.01 l 1.28907,-1.7461 -1.24219,-1.71875 c -0.0382,0 -0.0751,0.01 -0.11328,0.01 -0.3533,0 -0.53516,-0.18169 -0.53516,-0.52539 0,-0.382 0.19076,-0.51563 0.5918,-0.51563 z m 5.54297,0 1.99609,0 c 0.38195,0 0.57227,0.14323 0.57227,0.51563 0,0.3819 -0.19032,0.51562 -0.57227,0.51562 l -0.41016,0 0,3.47461 2.11914,0 0,-0.83007 c 0,-0.4011 0.13346,-0.5918 0.50586,-0.5918 0.38195,0 0.50586,0.2003 0.50586,0.5918 l 0,1.43164 c 0,0.3341 -0.0948,0.41992 -0.48632,0.41992 l -4.23047,0 c -0.38195,0 -0.5625,-0.13363 -0.5625,-0.51563 0,-0.3819 0.18055,-0.50586 0.5625,-0.50586 l 0.41015,0 0,-3.47461 -0.41015,0 c -0.38195,0 -0.5625,-0.13372 -0.5625,-0.51562 0,-0.3724 0.18055,-0.51563 0.5625,-0.51563 z" id="path8920" style="color:#000000;font-style:normal;font-variant:normal;font-weight:normal;font-stretch:normal;font-size:medium;line-height:normal;font-family:sans-serif;text-indent:0;text-align:start;text-decoration:none;text-decoration-line:none;text-decoration-style:solid;text-decoration-color:#000000;letter-spacing:normal;word-spacing:normal;text-transform:none;direction:ltr;block-progression:tb;writing-mode:lr-tb;baseline-shift:baseline;text-anchor:start;white-space:normal;clip-rule:nonzero;display:inline;overflow:visible;visibility:visible;opacity:1;isolation:auto;mix-blend-mode:normal;color-interpolation:sRGB;color-interpolation-filters:linearRGB;solid-color:#000000;solid-opacity:1;fill:#11c111;fill-opacity:1;fill-rule:nonzero;stroke:none;stroke-width:3;stroke-linecap:round;stroke-linejoin:round;stroke-miterlimit:4;stroke-dasharray:none;stroke-dashoffset:0;stroke-opacity:1;color-rendering:auto;image-rendering:auto;shape-rendering:auto;text-rendering:auto;enable-background:accumulate" transform="translate(0,1004.3622)"/></g></g></svg>