<?xml version="1.0" ?><svg height="56.25" id="svg2" version="1.1" width="56.25" xml:space="preserve" xmlns="http://www.w3.org/2000/svg" xmlns:cc="http://creativecommons.org/ns#" xmlns:dc="http://purl.org/dc/elements/1.1/" xmlns:inkscape="http://www.inkscape.org/namespaces/inkscape" xmlns:rdf="http://www.w3.org/1999/02/22-rdf-syntax-ns#" xmlns:svg="http://www.w3.org/2000/svg"><defs id="defs6"><clipPath id="clipPath16"><path d="M 0,0 0,45 45,45 45,0 0,0" id="path18"/></clipPath></defs><g id="g10" transform="matrix(1.25,0,0,-1.25,0,56.25)"><g id="g12"><g clip-path="url(#clipPath16)" id="g14"><g id="g20"><g id="g22"><g id="g24"><path d="m 9.347,6.027 0,32.946 c 0,0.843 0.684,1.527 1.527,1.527 l 13.349,0 11.43,-11.43 0,-23.043 C 35.653,5.184 34.969,4.5 34.126,4.5 l -23.252,0 c -0.843,0 -1.527,0.684 -1.527,1.527 z" id="path26" style="fill:#2b2b2b;fill-opacity:1;fill-rule:evenodd;stroke:none"/></g></g><g id="g28"><g id="g30"><path d="m 24.223,40.5 11.43,-11.43 -9.903,0 c -0.843,0 -1.527,0.684 -1.527,1.527 l 0,9.903 z" id="path32" style="fill:#525252;fill-opacity:1;fill-rule:evenodd;stroke:none"/></g></g><g id="g34"><g id="g36"><path d="m 18.993,13.837 0.765,0 -1.491,-5.182 -0.714,0 -1.245,4.186 -1.238,-4.186 -0.71,0 -1.494,5.182 0.765,0 1.117,-4.08 1.194,4.08 0.743,0 1.191,-4.08 1.117,4.08 z" id="path38" style="fill:#e6e6e6;fill-opacity:1;fill-rule:nonzero;stroke:none"/></g></g><g id="g40"><g id="g42"><path d="m 23.453,9.277 0,-0.615 -3.088,0 0,5.175 3.029,0 0,-0.608 -2.304,0 0,-1.546 2.176,0 0,-0.608 -2.176,0 0,-1.798 2.363,0 z" id="path44" style="fill:#e6e6e6;fill-opacity:1;fill-rule:nonzero;stroke:none"/></g></g><g id="g46"><g id="g48"><path d="M 27.884,10.131 C 27.884,9.672 27.7,9.294 27.331,8.999 27.045,8.774 26.61,8.662 26.024,8.662 l -1.678,0 0,5.175 1.396,0 c 0.564,0 0.973,-0.082 1.226,-0.246 0.372,-0.239 0.557,-0.589 0.557,-1.051 0,-0.266 -0.075,-0.504 -0.225,-0.714 -0.15,-0.21 -0.338,-0.349 -0.562,-0.417 l 0,-0.019 c 0.354,-0.075 0.633,-0.221 0.838,-0.435 0.206,-0.215 0.308,-0.49 0.308,-0.824 z m -1.088,2.325 c 0,0.315 -0.114,0.536 -0.344,0.663 -0.171,0.095 -0.408,0.142 -0.71,0.139 l -0.671,0 0,-1.641 0.608,0 c 0.376,0 0.634,0.053 0.773,0.158 0.23,0.168 0.344,0.396 0.344,0.681 z m 0.341,-2.292 c 0,0.305 -0.126,0.542 -0.377,0.71 -0.186,0.125 -0.489,0.187 -0.908,0.187 l -0.781,0 0,-1.806 0.781,0 c 0.429,0 0.732,0.06 0.908,0.18 0.251,0.171 0.377,0.414 0.377,0.729 z" id="path50" style="fill:#e6e6e6;fill-opacity:1;fill-rule:nonzero;stroke:none"/></g></g><g id="g52"><g id="g54"><path d="m 31.956,12.361 c 0.001,-0.459 -0.167,-0.829 -0.501,-1.11 -0.286,-0.244 -0.703,-0.367 -1.253,-0.37 l -0.729,0 0,-2.219 -0.725,0 0,5.175 1.454,0 c 0.55,0 0.967,-0.122 1.253,-0.366 0.334,-0.291 0.502,-0.661 0.501,-1.11 z m -1.065,-0.692 c 0.21,0.156 0.315,0.387 0.315,0.692 0,0.305 -0.105,0.532 -0.315,0.681 -0.191,0.134 -0.44,0.201 -0.747,0.201 l -0.671,0 0,-1.768 0.671,0 c 0.31,0 0.559,0.064 0.747,0.194 z" id="path56" style="fill:#e6e6e6;fill-opacity:1;fill-rule:nonzero;stroke:none"/></g></g></g></g></g></g></svg>